<svg width="58" height="58" viewBox="0 0 58 58" fill="none" xmlns="http://www.w3.org/2000/svg">
<g clip-path="url(#clip0_663_799)">
<path d="M10.2594 19.0415C14.864 12.395 22.8972 8.64591 31.0315 6.55604C39.1546 4.46907 47.3075 4.05487 52.0652 4.025H52.0652H52.0653H52.0653H52.0653H52.0654H52.0654H52.0655H52.0655H52.0656H52.0656H52.0656H52.0657H52.0657H52.0658H52.0658H52.0658H52.0659H52.0659H52.066H52.066H52.0661H52.0661H52.0661H52.0662H52.0662H52.0663H52.0663H52.0664H52.0664H52.0664H52.0665H52.0665H52.0666H52.0666H52.0667H52.0667H52.0667H52.0668H52.0668H52.0669H52.0669H52.067H52.067H52.067H52.0671H52.0671H52.0672H52.0672H52.0673H52.0673H52.0673H52.0674H52.0674H52.0675H52.0675H52.0676H52.0676H52.0676H52.0677H52.0677H52.0678H52.0678H52.0678H52.0679H52.0679H52.068H52.068H52.0681H52.0681H52.0681H52.0682H52.0682H52.0683H52.0683H52.0684H52.0684H52.0684H52.0685H52.0685H52.0686H52.0686H52.0687H52.0687H52.0687H52.0688H52.0688H52.0689H52.0689H52.069H52.069H52.069H52.0691H52.0691H52.0692H52.0692H52.0692H52.0693H52.0693H52.0694H52.0694H52.0695H52.0695H52.0695H52.0696H52.0696H52.0697H52.0697H52.0698H52.0698H52.0698H52.0699H52.0699H52.07H52.07H52.0701H52.0701H52.0701H52.0702H52.0702H52.0703H52.0703H52.0704H52.0704H52.0704H52.0705H52.0705H52.0706H52.0706H52.0707H52.0707H52.0707H52.0708H52.0708H52.0709H52.0709H52.0709H52.071H52.071H52.0711H52.0711H52.0712H52.0712H52.0712H52.0713H52.0713H52.0714H52.0714H52.0715H52.0715H52.0715H52.0716H52.0716H52.0717H52.0717H52.0718H52.0718H52.0718H52.0719H52.0719H52.072H52.072H52.0721H52.0721H52.0721H52.0722H52.0722H52.0723H52.0723H52.0723H52.0724H52.0724H52.0725H52.0725H52.0726H52.0726H52.0726H52.0727H52.0727H52.0728H52.0728H52.0729H52.0729H52.0729H52.073H52.073H52.0731H52.0731H52.0732H52.0732H52.0732H52.0733H52.0733H52.0734H52.0734H52.0735H52.0735H52.0735H52.0736H52.0736H52.0737H52.0737H52.0738H52.0738H52.0738H52.0739H52.0739H52.074H52.074H52.0741H52.0741H52.0741H52.0742H52.0742H52.0743H52.0743H52.0743H52.0744H52.0744H52.0745H52.0745H52.0746H52.0746H52.0746H52.0747H52.0747H52.0748H52.0748C52.7261 4.025 53.2966 4.47328 53.4474 5.10772L53.4477 5.10896C53.6015 5.74668 53.294 6.40838 52.7054 6.70407L52.7054 6.70399L52.6979 6.70798C52.5054 6.80984 46.2373 10.5874 46.2373 27.1893C46.2373 33.8122 44.2704 38.9414 40.4385 42.4925L40.7104 42.7859L40.4385 42.4925C35.6007 46.9761 28.5774 48.175 22.4803 48.175C21.1538 48.175 19.8772 48.1193 18.6811 48.0275L18.681 48.0275C17.9037 47.9682 17.3208 47.2898 17.38 46.5138L17.38 46.5138C17.4396 45.7326 18.1176 45.1477 18.8935 45.2109L18.896 45.2111C21.9267 45.4392 25.5274 45.4437 29.0173 44.7948C32.5055 44.1461 35.9108 42.8392 38.5191 40.4221L38.5193 40.422C41.7852 37.3921 43.4123 32.9174 43.4123 27.1875C43.4123 16.6902 45.8333 10.7886 48.008 7.60428L48.4632 6.93776L47.6571 6.97922C42.4593 7.24652 35.5407 8.01237 29.0052 10.0283C22.477 12.042 16.276 15.32 12.5833 20.6504C8.8155 26.0877 8.20025 33.109 10.6211 41.4796L10.9031 42.4546L11.3621 41.5494C14.6955 34.9763 20.3576 26.6963 29.5407 20.5748L29.5414 20.5744C30.1905 20.1398 31.0658 20.3153 31.5001 20.9661C31.934 21.6163 31.7585 22.493 31.1092 22.925L31.1089 22.9252C22.8729 28.4155 17.5972 35.8506 14.3773 41.9254C11.1823 47.9534 9.99936 52.6648 9.9564 52.8589C9.81384 53.5209 9.22768 53.975 8.57663 53.975C8.47672 53.975 8.37806 53.965 8.28001 53.944C7.51674 53.7801 7.0298 53.0283 7.19316 52.2664C7.19304 52.2669 7.19515 52.2575 7.20044 52.2354C7.20538 52.2147 7.21255 52.1852 7.22203 52.1471C7.24099 52.0709 7.26912 51.9607 7.30708 51.8187C7.383 51.5348 7.49817 51.124 7.65787 50.6037C7.9773 49.563 8.47469 48.085 9.1922 46.3088L9.26228 46.1353L9.17403 45.9703C9.15365 45.9322 9.13253 45.9001 9.11555 45.8756C9.10189 45.8559 9.08055 45.8267 9.07476 45.8186C9.06567 45.8059 9.0612 45.7989 9.0594 45.796C5.04599 34.9017 5.49112 25.9259 10.2594 19.0415ZM10.2594 19.0415L9.93057 18.8138L10.2594 19.0415ZM47.6777 7.37869C47.5863 7.51245 47.4946 7.65078 47.4028 7.7938C47.5019 7.7884 47.6003 7.78319 47.6982 7.77816L47.6777 7.37869ZM47.6777 7.37869L47.3474 7.1531C47.291 7.23561 47.2346 7.31979 47.178 7.40565C47.3463 7.39615 47.5128 7.38717 47.6777 7.37869ZM11.0054 41.3685C11.093 41.1957 11.1822 41.0218 11.273 40.8467C11.3111 40.9832 11.3499 41.1201 11.3896 41.2574L11.0054 41.3685ZM11.0054 41.3685C10.9506 41.179 10.8974 40.9903 10.8457 40.8022C10.7791 40.9313 10.7134 41.0598 10.6486 41.1876L11.0054 41.3685ZM9.06153 45.8018L9.06125 45.801L9.06153 45.8018Z" fill="#6A3F2D" stroke="#EAE8D6" stroke-width="0.8"/>
</g>
<defs>
<clipPath id="clip0_663_799">
<rect width="58" height="58" fill="white"/>
</clipPath>
</defs>
</svg>
