<svg width="58" height="58" viewBox="0 0 58 58" fill="none" xmlns="http://www.w3.org/2000/svg">
<path d="M55.9225 42.382C56.0245 42.138 56.0245 41.862 55.9225 41.618C55.8205 41.373 55.6265 41.179 55.3815 41.077C55.2595 41.026 55.1295 41 54.9995 41H52.4995C52.4985 28.355 42.5115 18.048 29.9945 17.525C29.9945 17.516 29.9995 17.508 29.9995 17.5V14.837C31.4415 14.404 32.4985 13.084 32.4995 11.5C32.4985 9.566 30.9335 8.001 28.9995 8C27.0655 8.001 25.5005 9.566 25.4995 11.5C25.5005 13.084 26.5575 14.404 27.9995 14.837V17.5C27.9995 17.509 28.0045 17.517 28.0045 17.525C15.4875 18.048 5.5005 28.355 5.4995 41H2.9995C2.8695 41 2.7395 41.026 2.6175 41.077C2.3725 41.179 2.1785 41.373 2.0765 41.618C1.9745 41.862 1.9745 42.138 2.0765 42.382C2.1275 42.505 2.2005 42.616 2.2935 42.708L8.1715 48.586C8.8915 49.301 9.8505 49.873 10.8745 50.301C11.9015 50.723 12.9845 50.996 13.9995 51H43.9995C45.0145 50.996 46.0975 50.723 47.1245 50.301C48.1485 49.873 49.1075 49.301 49.8275 48.586L55.7055 42.708C55.7985 42.616 55.8715 42.505 55.9225 42.382ZM27.4995 11.5C27.5015 10.672 28.1715 10.002 28.9995 10C29.8275 10.002 30.4975 10.672 30.4995 11.5C30.4975 12.328 29.8275 12.998 28.9995 13C28.1715 12.998 27.5015 12.328 27.4995 11.5ZM13.7975 25.798C17.6905 21.905 23.0605 19.5 28.9995 19.5C34.9385 19.5 40.3085 21.905 44.2015 25.798C48.0945 29.691 50.4985 35.061 50.4995 41H7.4995C7.4995 35.061 9.9045 29.691 13.7975 25.798ZM48.4135 47.172C47.9675 47.623 47.1905 48.111 46.3585 48.453C45.5295 48.8 44.6355 49.004 43.9995 49H13.9995C13.3635 49.004 12.4695 48.8 11.6405 48.453C10.8085 48.111 10.0325 47.623 9.5855 47.172L5.4135 43H52.5855L48.4135 47.172Z" fill="#6A3F2D"/>
<path d="M21.6836 24.0518C18.4746 25.1198 16.3196 27.0018 14.9816 28.6098C13.6416 30.2198 13.0996 31.5598 13.0716 31.6298C12.8666 32.1428 13.1166 32.7248 13.6296 32.9298C14.1426 33.1348 14.7246 32.8848 14.9296 32.3718V32.3698C14.9616 32.2918 15.4636 31.1188 16.6296 29.7588C17.7976 28.3978 19.6126 26.8508 22.3176 25.9478C22.8406 25.7738 23.1246 25.2078 22.9496 24.6828C22.7736 24.1598 22.2076 23.8768 21.6836 24.0518Z" fill="#6A3F2D"/>
</svg>
