<svg width="58" height="58" viewBox="0 0 58 58" fill="none" xmlns="http://www.w3.org/2000/svg">
<path d="M39.301 12.0418L41.7635 9.02559L41.8347 8.9384L41.7397 8.87797C32.3845 2.92609 20.077 4.2471 12.1674 12.1568C2.89008 21.4341 2.89008 36.5386 12.1674 45.8159C16.6584 50.3223 22.6415 52.7932 28.997 52.7932C35.3526 52.7932 41.3357 50.3067 45.8265 45.8159C50.0066 41.6358 52.4775 36.0881 52.7728 30.1983L52.7728 30.1982C52.801 29.6201 53.3101 29.1662 53.8905 29.1945C54.4686 29.2227 54.9224 29.7317 54.8942 30.3121C54.5705 36.7402 51.8883 42.7828 47.3409 47.3302C42.4387 52.2324 35.9339 54.9299 29.0124 54.9299C22.091 54.9299 15.5862 52.2324 10.6685 47.3148C0.556323 37.2026 0.556323 20.7701 10.6685 10.6579C19.3473 1.9791 32.8971 0.5765 43.117 7.23562L43.1924 7.28471L43.2491 7.21498L45.7426 4.15289L46.4664 11.3179L39.301 12.0418Z" fill="#6A3F2D" stroke="#EAE8D6" stroke-width="0.2"/>
<path d="M41.1608 23.7163H41.1869C41.1914 23.7577 41.1918 23.8098 41.1918 23.8794V41.3346C41.1918 41.9138 40.7104 42.3952 40.1312 42.3952H17.8325C17.2532 42.3952 16.7719 41.9138 16.7719 41.3346V23.8639C16.7719 23.8082 16.7813 23.7513 16.7938 23.6871C16.8028 23.6751 16.8081 23.6631 16.8112 23.6537C16.8187 23.6313 16.8184 23.6076 16.8183 23.6019C16.8186 23.6008 16.8194 23.5984 16.8209 23.5938L16.8214 23.5922C16.8255 23.58 16.8338 23.5554 16.8338 23.5234L16.8338 23.5184L16.8492 23.503V23.4773C16.8512 23.4733 16.8537 23.4677 16.8559 23.4618C16.8575 23.4577 16.8592 23.4526 16.8608 23.4465C16.8681 23.4315 16.8749 23.4171 16.8815 23.4031C16.9044 23.3547 16.9245 23.312 16.953 23.274L16.9531 23.274L16.9556 23.2703L21.8765 16.0592L21.8765 16.0592L21.8771 16.0583C22.0749 15.7617 22.3992 15.5922 22.7533 15.5922H35.2258C35.5799 15.5922 35.9043 15.7617 36.102 16.0583L36.1025 16.0591L41.0234 23.2857L41.0233 23.2858L41.0261 23.2894C41.0634 23.3392 41.0898 23.3898 41.1172 23.457C41.119 23.4652 41.1212 23.4721 41.1232 23.4773C41.126 23.4847 41.1292 23.4915 41.1312 23.4956C41.1326 23.5051 41.1346 23.5129 41.1358 23.5174C41.1381 23.5259 41.141 23.5344 41.1427 23.5396L41.1456 23.5485C41.147 23.5758 41.154 23.5967 41.1577 23.6077L41.1582 23.6092C41.1598 23.614 41.1605 23.6164 41.1608 23.6175V23.7163ZM23.3723 17.7134H23.3196L23.2898 17.7569L19.9473 22.6469L19.8404 22.8033H20.0298H37.9338H38.1228L38.0165 22.647L34.6895 17.7571L34.6597 17.7134H34.6068H23.3723ZM18.9085 40.1895V40.2895H19.0085H38.9706H38.9861H39.0861V40.1895V25.0399V24.9399H38.9861H19.0085H18.9085V25.0399V40.1895Z" fill="#6A3F2D" stroke="#EAE8D6" stroke-width="0.2"/>
</svg>
