<svg width="58" height="58" viewBox="0 0 58 58" fill="none" xmlns="http://www.w3.org/2000/svg">
<g clip-path="url(#clip0_663_814)">
<path d="M45.2456 16.2413C47.1676 16.2413 48.7256 14.6832 48.7256 12.7613C48.7256 10.8393 47.1676 9.28125 45.2456 9.28125C43.3237 9.28125 41.7656 10.8393 41.7656 12.7613C41.7656 14.6832 43.3237 16.2413 45.2456 16.2413Z" stroke="#6A3F2D" stroke-width="1.9" stroke-miterlimit="10" stroke-linecap="round"/>
<path d="M54.5247 6.38047C54.5247 4.77851 53.2266 3.48047 51.6247 3.48047C51.4437 3.48047 34.3685 3.48279 34.3685 3.48279C32.8257 3.48279 31.349 3.40159 30.4929 4.25767L4.1273 30.6221C3.27006 31.4782 3.27006 32.8679 4.1273 33.724L24.2811 53.8778C25.1372 54.7339 26.5269 54.7339 27.383 53.8778L53.7475 27.5122C54.6035 26.6573 54.5223 25.2154 54.5223 23.6378C54.5223 23.6378 54.5247 6.56143 54.5247 6.38047Z" stroke="#6A3F2D" stroke-width="1.9" stroke-miterlimit="10" stroke-linecap="round"/>
</g>
<defs>
<clipPath id="clip0_663_814">
<rect width="58" height="58" fill="white"/>
</clipPath>
</defs>
</svg>
