<svg width="22" height="22" viewBox="0 0 22 22" fill="none" xmlns="http://www.w3.org/2000/svg">
<g clip-path="url(#clip0_497_278)">
<path d="M17.7894 16.6749H6.33413L3.5355 1.28753C3.50276 1.10325 3.40663 0.936222 3.26376 0.815328C3.12088 0.694433 2.94024 0.627281 2.75309 0.625488H0.9375" stroke="white" stroke-linecap="round" stroke-linejoin="round"/>
<path d="M7.35384 20.6872C8.46182 20.6872 9.36002 19.789 9.36002 18.681C9.36002 17.573 8.46182 16.6748 7.35384 16.6748C6.24585 16.6748 5.34766 17.573 5.34766 18.681C5.34766 19.789 6.24585 20.6872 7.35384 20.6872Z" stroke="white" stroke-linecap="round" stroke-linejoin="round"/>
<path d="M17.7874 20.6872C18.8954 20.6872 19.7936 19.789 19.7936 18.681C19.7936 17.573 18.8954 16.6748 17.7874 16.6748C16.6794 16.6748 15.7812 17.573 15.7812 18.681C15.7812 19.789 16.6794 20.6872 17.7874 20.6872Z" stroke="white" stroke-linecap="round" stroke-linejoin="round"/>
<path d="M5.60292 12.6624H18.2017C18.5769 12.6636 18.9404 12.5324 19.2284 12.2921C19.5164 12.0518 19.7105 11.7176 19.7766 11.3484L21.0004 4.6377H4.14844" stroke="white" stroke-linecap="round" stroke-linejoin="round"/>
</g>
<defs>
<clipPath id="clip0_497_278">
<rect width="22" height="22" fill="white"/>
</clipPath>
</defs>
</svg>
