<svg width="60" height="60" viewBox="0 0 60 60" fill="none" xmlns="http://www.w3.org/2000/svg">
<path d="M8.3727 15H51.6289C52.5522 15 53.3979 15.3487 54.0086 15.9027C54.6194 16.4625 55 17.2339 55 18.076V42.9237C55 43.7674 54.6194 44.5387 54.0086 45.0943C53.3996 45.6529 52.5508 46 51.6289 46H8.3727C7.44778 46 6.60206 45.6529 5.993 45.0958C5.38223 44.5387 5 43.7676 5 42.9239V18.0762C5 17.2341 5.38226 16.4627 5.98964 15.9044C6.60515 15.3488 7.44778 15 8.3727 15ZM52.0904 44.2799L40.4997 33.0538L38.1331 35.8227C37.0574 37.0771 35.8312 38.0345 34.4721 38.6759C33.1032 39.323 31.6032 39.6539 29.9995 39.6539C28.399 39.6539 26.899 39.3231 25.5285 38.6759C24.1694 38.0345 22.9448 37.0771 21.8692 35.8227L19.4992 33.0538L7.90856 44.2799C8.05588 44.3227 8.2099 44.3435 8.37173 44.3435H51.628C51.7884 44.3435 51.9428 44.3214 52.0904 44.2799ZM41.6276 31.7371L53.1854 42.9293V18.2282L41.6276 31.7371ZM6.81771 42.928L18.3727 31.7358L6.81771 18.2341V42.928ZM7.83834 16.7434L23.2968 34.8044C24.2056 35.8682 25.2327 36.675 26.3585 37.2053C27.4665 37.7299 28.688 37.9958 29.9999 37.9958C31.3135 37.9958 32.535 37.7299 33.6447 37.2053C34.7672 36.675 35.7959 35.8683 36.7063 34.8044L52.1605 16.7402C51.9937 16.6855 51.8154 16.6559 51.6293 16.6559H8.37302C8.18664 16.6559 8.0052 16.6872 7.83834 16.7434Z" fill="white" stroke="#33251F" stroke-width="0.4"/>
</svg>
