<svg width="60" height="60" viewBox="0 0 60 60" fill="none" xmlns="http://www.w3.org/2000/svg">
<g clip-path="url(#clip0_254_462)">
<path d="M37.3594 9.375C40.5397 10.2285 43.4396 11.9036 45.768 14.232C48.0964 16.5604 49.7715 19.4603 50.625 22.6406" stroke="white" stroke-width="1.4" stroke-linecap="round" stroke-linejoin="round"/>
<path d="M35.4141 16.6172C37.3268 17.1252 39.0713 18.1298 40.4708 19.5292C41.8702 20.9287 42.8748 22.6732 43.3828 24.5859" stroke="white" stroke-width="1.4" stroke-linecap="round" stroke-linejoin="round"/>
<path d="M21.6797 29.2497C23.6091 33.2341 26.831 36.4477 30.8203 38.3669C31.1146 38.5062 31.4401 38.5665 31.7647 38.5419C32.0894 38.5172 32.402 38.4085 32.6719 38.2263L38.5313 34.3122C38.7901 34.1366 39.0893 34.0295 39.4008 34.0008C39.7122 33.9721 40.0259 34.0228 40.3125 34.1481L51.2813 38.8591C51.6561 39.0151 51.9693 39.29 52.1726 39.6416C52.3759 39.9931 52.458 40.4017 52.4063 40.8044C52.0586 43.5178 50.7341 46.0117 48.6807 47.8192C46.6273 49.6267 43.9856 50.6241 41.25 50.6247C32.7962 50.6247 24.6887 47.2665 18.711 41.2887C12.7333 35.311 9.375 27.2035 9.375 18.7497C9.37562 16.0141 10.373 13.3724 12.1805 11.319C13.9881 9.26556 16.4819 7.94111 19.1953 7.59346C19.5981 7.54173 20.0066 7.62382 20.3582 7.8271C20.7097 8.03038 20.9846 8.34358 21.1406 8.71846L25.8516 19.7106C25.9741 19.9927 26.0253 20.3006 26.0008 20.6071C25.9763 20.9137 25.8767 21.2095 25.7109 21.4685L21.7969 27.4216C21.6226 27.6908 21.5203 28.0003 21.4998 28.3204C21.4793 28.6404 21.5412 28.9604 21.6797 29.2497Z" stroke="white" stroke-width="1.4" stroke-linecap="round" stroke-linejoin="round"/>
</g>
<defs>
<clipPath id="clip0_254_462">
<rect width="60" height="60" fill="white"/>
</clipPath>
</defs>
</svg>
