<svg width="60" height="60" viewBox="0 0 60 60" fill="none" xmlns="http://www.w3.org/2000/svg">
<path d="M30.0006 54.2863C16.59 54.2863 5.71484 43.4111 5.71484 30.0006C5.71484 16.59 16.59 5.71484 30.0006 5.71484C43.4111 5.71484 54.2863 16.59 54.2863 30.0006C54.2863 43.4111 43.4111 54.2863 30.0006 54.2863Z" fill="#25D366"/>
<path fill-rule="evenodd" clip-rule="evenodd" d="M41.3611 18.694C38.3497 15.6777 34.3377 14.0166 30.0683 14.0117C21.272 14.0117 14.1077 21.1711 14.1077 29.9723C14.1077 32.7846 14.8411 35.5337 16.24 37.9526L13.9766 46.2243L22.4377 44.0046C24.7691 45.2771 27.392 45.9474 30.0634 45.9474H30.0683C38.8646 45.9474 46.024 38.788 46.0289 29.9869C46.0337 25.7223 44.3774 21.7103 41.3611 18.694ZM30.0731 43.2517H30.0683C27.6883 43.2517 25.352 42.6106 23.3168 41.4011L22.8311 41.1146L17.8088 42.4309L19.1494 37.5349L18.8337 37.0346C17.5077 34.9217 16.8034 32.4834 16.8034 29.9723C16.8083 22.6574 22.7583 16.7074 30.078 16.7074C33.6237 16.7074 36.9508 18.0917 39.4571 20.598C41.9634 23.1043 43.3429 26.4411 43.338 29.982C43.338 37.3017 37.3831 43.2517 30.0731 43.2517ZM37.3491 33.314C36.9508 33.1149 34.9886 32.1483 34.6243 32.0171C34.26 31.886 33.9929 31.818 33.7257 32.2163C33.4586 32.6146 32.696 33.5131 32.4629 33.7803C32.2297 34.0474 31.9966 34.0814 31.5983 33.8823C31.2 33.6831 29.9128 33.2606 28.3926 31.9006C27.2074 30.8417 26.406 29.5351 26.1728 29.1369C25.9397 28.7386 26.1486 28.52 26.3477 28.3209C26.5274 28.1411 26.746 27.8546 26.9451 27.6214C27.1443 27.3883 27.2123 27.2231 27.3434 26.956C27.4746 26.6889 27.4114 26.4557 27.3094 26.2566C27.2074 26.0574 26.4108 24.0951 26.0806 23.2937C25.7551 22.5166 25.4297 22.6234 25.182 22.6089C24.9488 22.5991 24.6817 22.5943 24.4194 22.5943C24.1523 22.5943 23.72 22.6963 23.3557 23.0946C22.9914 23.4929 21.9617 24.4594 21.9617 26.4217C21.9617 28.384 23.3897 30.2831 23.5888 30.5454C23.788 30.8126 26.4011 34.8391 30.4034 36.5683C31.3554 36.9811 32.0986 37.224 32.6766 37.4086C33.6334 37.7146 34.5028 37.6709 35.1877 37.5689C35.9551 37.4523 37.5483 36.6023 37.8786 35.6746C38.2089 34.742 38.2089 33.9454 38.1117 33.7803C38.0146 33.6151 37.7474 33.518 37.3491 33.314Z" fill="white"/>
</svg>
