<svg width="21" height="20" viewBox="0 0 21 20" fill="none" xmlns="http://www.w3.org/2000/svg">
<path fill-rule="evenodd" clip-rule="evenodd" d="M7.33915 8.88992C6.89308 8.88992 6.51562 8.54108 6.51562 8.15736C6.51562 7.77364 6.89308 7.4248 7.33915 7.4248C7.78523 7.4248 8.16268 7.77364 8.16268 8.15736C8.16268 8.54108 7.81955 8.88992 7.33915 8.88992Z" fill="#26A5C1" stroke="#26A5C1" stroke-width="0.1"/>
<path fill-rule="evenodd" clip-rule="evenodd" d="M13.4134 8.92508C12.9673 8.92508 12.5898 8.57624 12.5898 8.19252C12.5898 7.8088 12.9673 7.45996 13.4134 7.45996C13.8595 7.45996 14.2369 7.8088 14.2369 8.19252C14.2369 8.57624 13.8938 8.92508 13.4134 8.92508Z" fill="#26A5C1" stroke="#26A5C1" stroke-width="0.1"/>
<path d="M11.9024 17.9595C11.6622 18.3781 11.1818 18.7967 10.3926 18.7967C9.60334 18.7967 9.12295 18.413 8.88275 17.9595C9.39746 17.7153 9.94648 17.2618 10.3582 17.2967C11.0788 17.3316 11.3533 17.6805 11.9024 17.9595ZM13.4808 16.2502C13.4808 16.7037 13.3435 17.0874 13.069 17.1921C12.6573 17.4014 12.3828 17.3316 12.0053 17.0874C11.5592 16.8432 11.1475 16.4944 10.3582 16.4246C10.3239 16.4246 10.3239 16.4246 10.2896 16.4246C9.60334 16.4944 9.19158 16.8432 8.7455 17.0874C8.36805 17.3316 8.05922 17.3665 7.68177 17.1921C7.44158 17.0874 7.27001 16.7037 7.27001 16.2502C7.37295 14.4711 9.15726 13.4944 10.3582 13.4944C12.2112 13.4595 13.4808 15.0642 13.4808 16.2502ZM5.17687 2.43626L6.10334 3.69208C5.96609 3.86649 5.82883 4.04091 5.72589 4.2851C5.62295 4.4944 5.69158 4.73859 5.89746 4.84324C6.10334 4.94789 6.34354 4.84324 6.44648 4.66882C6.54942 4.45952 6.65236 4.2851 6.82393 4.0758C6.85824 4.0758 6.89256 4.04091 6.89256 4.00603C7.85334 3.09905 9.36315 2.68045 10.3926 2.68045C11.4563 2.68045 12.9318 3.09905 13.8926 4.00603C13.9269 4.04091 13.9612 4.04091 13.9612 4.0758C14.1328 4.2851 14.27 4.45952 14.3386 4.66882C14.4416 4.87812 14.6818 4.94789 14.8877 4.84324C15.0935 4.73859 15.1622 4.4944 15.0592 4.2851C14.9563 4.0758 14.819 3.90138 14.7161 3.72696L15.6426 2.47115C15.8484 2.15719 16.02 2.15719 16.1573 2.22696C16.2945 2.29673 16.4318 2.47115 16.3631 2.88975C16.0886 4.14556 15.5739 5.12231 14.9563 5.81998C14.7161 6.09905 14.922 6.51766 15.2651 6.51766C15.2651 6.51766 17.4612 6.34324 18.5592 6.27347C18.868 6.27347 18.9367 6.34324 19.0053 6.51766C19.0739 6.76184 19.0053 6.97115 18.9024 7.14557C18.5592 7.73859 18.0788 8.22696 17.5984 8.43626C17.118 8.68045 16.6033 8.68045 15.8828 8.26184C15.6082 8.08743 15.2651 8.29673 15.2651 8.61068C15.2308 10.1107 14.922 10.8432 14.5102 11.7153C14.2014 12.3781 13.8239 13.1456 13.5494 14.2618C12.8975 13.3549 11.7994 12.6921 10.3239 12.6921C8.91707 12.6921 7.81903 13.32 7.16707 14.1921C6.89256 13.1107 6.54942 12.3781 6.2406 11.7153C5.82883 10.8432 5.4857 10.1107 5.4857 8.61068C5.4857 8.29673 5.14256 8.08743 4.86805 8.26184C4.14746 8.71533 3.63275 8.68045 3.18668 8.43626C2.70628 8.19208 2.26021 7.7037 1.88275 7.14557C1.7455 6.93626 1.7455 6.72696 1.77981 6.51766C1.81413 6.34324 1.91707 6.23859 2.22589 6.27347L5.52001 6.51766C5.89746 6.55254 6.10334 6.09905 5.82883 5.81998C5.17687 5.15719 4.62785 4.14557 4.42197 2.92463C4.35334 2.50603 4.4906 2.26184 4.62785 2.22696C4.93668 2.08743 5.07393 2.26184 5.17687 2.43626ZM16.0543 1.35487C15.6769 1.35487 15.2994 1.59905 15.0249 1.98277L14.0984 3.16882C12.9661 2.26184 11.5592 1.84324 10.4269 1.84324C9.32883 1.84324 7.88766 2.26184 6.7553 3.16882L5.82883 1.98277C5.45138 1.42463 4.79942 1.21533 4.31903 1.45952C3.83864 1.7037 3.56413 2.33161 3.70138 3.02929C3.90726 4.11068 4.28471 4.87812 4.83373 5.64557L2.32883 5.47115C1.7455 5.43626 1.26511 5.7851 1.09354 6.23859C0.921969 6.69208 0.990597 7.18045 1.26511 7.59905C1.67687 8.22696 2.19158 8.85487 2.87785 9.20371C3.42687 9.48277 4.14746 9.44789 4.83373 9.16882C4.93668 10.3898 5.17687 11.3665 5.52001 12.0991C5.93177 12.9363 6.34354 13.7735 6.58373 15.3432C6.48079 15.6572 6.44648 15.9711 6.44648 16.2851C6.44648 16.9479 6.68668 17.5758 7.20138 17.9246C7.44158 18.0991 7.7504 18.1688 8.05922 18.1688C8.40236 18.9711 9.19158 19.6339 10.3582 19.6339C11.5249 19.6339 12.3484 18.9711 12.6573 18.1688C12.9661 18.1688 13.2406 18.0991 13.4808 17.9246C13.9955 17.5758 14.2357 16.9479 14.2357 16.2851C14.2357 16.0409 14.2014 15.7967 14.1328 15.5525C14.3729 13.8432 14.7847 12.9711 15.1965 12.0991C15.5396 11.3316 15.8141 10.3898 15.9171 9.16882C16.6377 9.44789 17.3239 9.48277 17.8729 9.20371C18.5592 8.85487 19.0739 8.26184 19.4857 7.59905C19.7602 7.18045 19.8288 6.65719 19.6573 6.23859C19.4857 5.7851 19.0053 5.43626 18.422 5.47115L15.9171 5.64557C16.4318 4.91301 16.8435 4.11068 17.0494 3.06417C17.1867 2.36649 16.9122 1.73859 16.4318 1.4944C16.3975 1.35487 16.2259 1.31998 16.0543 1.35487Z" fill="#26A5C1" stroke="#26A5C1" stroke-width="0.1"/>
<path d="M8.88388 15.9014C8.71232 15.6573 8.60938 15.448 8.60938 15.0991L8.88388 15.9014Z" fill="#26A5C1"/>
<path d="M8.88388 15.9014C8.71232 15.6573 8.60938 15.448 8.60938 15.0991" stroke="#26A5C1" stroke-width="0.1"/>
<path d="M8.60708 14.7153C8.4012 14.7153 8.19531 14.8898 8.19531 15.1339C8.19531 15.5525 8.33257 15.9014 8.57276 16.1804C8.71002 16.3549 8.95021 16.3898 9.12178 16.2502C9.29335 16.1107 9.32767 15.8665 9.19041 15.6921C9.05316 15.5177 9.01884 15.413 9.01884 15.1688C8.98453 14.8898 8.81296 14.7153 8.60708 14.7153Z" fill="#26A5C1" stroke="#26A5C1" stroke-width="0.1"/>
<path d="M12.0078 15.9014C12.1794 15.6573 12.2823 15.448 12.2823 15.0991L12.0078 15.9014Z" fill="#26A5C1"/>
<path d="M12.0078 15.9014C12.1794 15.6573 12.2823 15.448 12.2823 15.0991" stroke="#26A5C1" stroke-width="0.1"/>
<path d="M12.2774 14.7153C12.0715 14.7153 11.8656 14.8898 11.8656 15.1339C11.8656 15.3781 11.8313 15.4828 11.6941 15.6572C11.5568 15.8316 11.5911 16.0758 11.7627 16.2153C11.9343 16.3549 12.1745 16.32 12.3117 16.1456C12.5519 15.8665 12.6892 15.5177 12.6892 15.0991C12.6549 14.8898 12.4833 14.7153 12.2774 14.7153Z" fill="#26A5C1" stroke="#26A5C1" stroke-width="0.1"/>
<path d="M17.456 14.9387L0.865547 3.05298" stroke="#26A5C1" stroke-linecap="round"/>
</svg>
