<svg width="14" height="14" viewBox="0 0 14 14" fill="none" xmlns="http://www.w3.org/2000/svg">
<g clip-path="url(#clip0_721_2039)">
<path d="M7.00007 11.5C4.86757 11.5 2.84957 10.5965 1.31657 8.956C1.12807 8.7545 1.13907 8.438 1.34057 8.2495C1.54257 8.061 1.85857 8.072 2.04757 8.2735C3.38907 9.7095 5.14757 10.5 7.00007 10.5C9.38157 10.5 11.5746 9.1975 12.9201 7C11.5751 4.8025 9.38157 3.5 7.00007 3.5C4.53107 3.5 2.26407 4.9005 0.935068 7.2465C0.799068 7.487 0.493068 7.572 0.253568 7.435C0.0130676 7.299 -0.0709323 6.994 0.0650677 6.7535C1.57357 4.09 4.16657 2.5 7.00007 2.5C9.83407 2.5 12.4266 4.09 13.9351 6.7535C14.0216 6.9065 14.0216 7.0935 13.9351 7.246C12.4266 9.9095 9.83407 11.5 7.00007 11.5Z" fill="#332F2D"/>
<path d="M7 9.5C5.6215 9.5 4.5 8.3785 4.5 7C4.5 5.6215 5.6215 4.5 7 4.5C8.3785 4.5 9.5 5.6215 9.5 7C9.5 8.3785 8.3785 9.5 7 9.5ZM7 5.5C6.173 5.5 5.5 6.173 5.5 7C5.5 7.827 6.173 8.5 7 8.5C7.827 8.5 8.5 7.827 8.5 7C8.5 6.173 7.827 5.5 7 5.5Z" fill="#332F2D"/>
</g>
<defs>
<clipPath id="clip0_721_2039">
<rect width="14" height="14" fill="white"/>
</clipPath>
</defs>
</svg>
