<svg width="22" height="20" viewBox="0 0 22 20" fill="none" xmlns="http://www.w3.org/2000/svg">
<path d="M15.6159 0C13.4277 0 11.5285 1.26162 10.6077 3.09557C9.68696 1.26162 7.78795 0 5.59957 0C2.51194 0 0 2.51198 0 5.59957C0 8.90384 1.24445 12.8186 10.2721 19.0367C10.3731 19.1062 10.4905 19.1412 10.6078 19.1412C10.725 19.1412 10.8424 19.1064 10.9435 19.0367C19.9715 12.8186 21.216 8.9041 21.216 5.59957C21.216 2.51194 18.704 0 15.616 0H15.6159ZM10.6077 17.8289C2.33435 12.0598 1.18366 8.54139 1.18366 5.59957C1.18366 3.16452 3.16473 1.18366 5.59957 1.18366C8.0344 1.18366 10.0159 3.16473 10.0163 5.59957V5.60353C10.0185 5.92851 10.2823 6.19139 10.608 6.19139H10.6081C10.9351 6.19139 11.2 5.92652 11.2 5.59956C11.2 3.16451 13.181 1.18365 15.6159 1.18365C18.0509 1.18365 20.0322 3.16472 20.0322 5.59956C20.0322 8.54138 18.8811 12.0594 10.6077 17.8289Z" fill="white"/>
</svg>
