<svg width="18" height="20" viewBox="0 0 18 20" fill="none" xmlns="http://www.w3.org/2000/svg">
<path d="M5.19609 15.3687H5.196C4.82739 15.368 4.46075 15.4228 4.10832 15.5315L4.09359 15.4837L4.10838 15.5314C3.43002 15.7414 2.85353 16.0885 2.47546 16.4723C2.09537 16.8581 1.9256 17.2698 2.02996 17.6137C2.13423 17.9573 2.50396 18.2015 3.03395 18.3056L5.19609 15.3687ZM5.19609 15.3687C6.42938 15.3687 7.50208 15.9541 8.04605 16.3193C7.72484 16.5665 7.23233 16.9293 6.68549 17.2756C6.10602 17.6426 5.4686 17.989 4.91066 18.1611L5.19609 15.3687ZM3.64406 19.12L3.64422 19.12C4.151 19.1184 4.65472 19.0409 5.13878 18.8901L5.12392 18.8424L5.13866 18.8901C5.95259 18.6387 6.87649 18.0841 7.60527 17.5858C8.33507 17.0868 8.87371 16.6411 8.9179 16.6042L8.91817 16.604C8.96032 16.5683 8.99418 16.5238 9.01741 16.4736C9.04063 16.4234 9.05266 16.3688 9.05266 16.3134C9.05266 16.2581 9.04063 16.2034 9.01741 16.1532C8.99427 16.1032 8.96056 16.0589 8.91861 16.0233C8.8689 15.9802 8.27226 15.4739 7.35856 15.0798C6.44485 14.6856 5.20981 14.4018 3.88696 14.8107C2.99858 15.0835 2.26807 15.5491 1.80091 16.0904C1.33404 16.6315 1.12627 17.2537 1.29927 17.8339L1.29927 17.8339L1.29951 17.8346C1.56029 18.6607 2.49495 19.12 3.64406 19.12Z" fill="#D1852C" stroke="#D1852C" stroke-width="0.1"/>
<path d="M2.51115 16.0435L2.51115 16.0435L2.51309 16.0434C2.97395 16.0229 3.41561 15.8521 3.77142 15.557C4.37968 15.0629 4.8495 14.4181 5.13469 13.6861C5.65485 12.4278 5.49484 11.1901 5.19787 10.2571C4.90085 9.32402 4.46552 8.69125 4.42868 8.6387L4.42869 8.6387L4.42816 8.63797C4.39633 8.59426 4.35555 8.55788 4.30855 8.53128C4.26156 8.50469 4.20943 8.4885 4.15567 8.48381C4.10191 8.47913 4.04778 8.48606 3.99692 8.50413C3.94606 8.52221 3.89965 8.551 3.8608 8.58857L3.86079 8.58856L3.8601 8.58926C3.82011 8.62946 3.33864 9.11691 2.78748 9.78604C2.23718 10.4541 1.61394 11.3074 1.29345 12.0791C0.978803 12.8012 0.857072 13.5933 0.940286 14.3772L0.940267 14.3772L0.940454 14.3786C1.04368 15.1453 1.40034 15.7023 1.95511 15.934L1.95518 15.9341C2.13141 16.0074 2.32043 16.0446 2.51115 16.0435ZM3.00767 10.7234C3.39048 10.224 3.78451 9.77734 4.05477 9.48287C4.443 10.2189 5.09345 11.8234 4.45464 13.3896L4.45434 13.3904C4.21767 13.9997 3.82725 14.5365 3.32157 14.9479C3.20497 15.0368 3.03684 15.1454 2.84747 15.2118C2.65784 15.2783 2.451 15.3011 2.25334 15.2243C2.05715 15.1482 1.92793 14.9873 1.84205 14.8043C1.75629 14.6215 1.71615 14.4214 1.6959 14.2751C1.62775 13.6256 1.72878 12.9694 1.98906 12.371L1.98907 12.371L1.98941 12.3702C2.20753 11.8435 2.60014 11.255 3.00767 10.7234Z" fill="#D1852C" stroke="#D1852C" stroke-width="0.1"/>
<path d="M11.4224 13.1332C11.459 13.1022 11.4884 13.0636 11.5086 13.02C11.5288 12.9764 11.5392 12.9289 11.5392 12.8808C11.5392 12.8327 11.5288 12.7852 11.5086 12.7416C11.4884 12.698 11.459 12.6594 11.4224 12.6284M11.4224 13.1332L4.99937 12.6317C5.50756 12.107 6.14322 11.7249 6.84344 11.5231M11.4224 13.1332L11.4186 13.1363C11.2956 13.2374 9.43551 14.767 7.97711 15.2167L11.4224 13.1332ZM11.4224 12.6284L11.4553 12.5907C11.4552 12.5907 11.4551 12.5906 11.455 12.5905C11.4549 12.5904 11.4548 12.5903 11.4547 12.5902L11.4224 12.6284ZM11.4224 12.6284C11.3355 12.5525 9.24531 10.7808 6.84344 11.5231M6.84344 11.5231L6.82959 11.4751C6.82944 11.4751 6.82928 11.4752 6.82913 11.4752M6.84344 11.5231L6.82867 11.4754C6.82882 11.4753 6.82898 11.4753 6.82913 11.4752M6.82913 11.4752C6.12069 11.6794 5.47759 12.0661 4.96346 12.5969L4.96344 12.5969L4.96236 12.5981C4.47238 13.1377 4.28363 13.7361 4.45117 14.2844C4.61869 14.8327 5.10771 15.2231 5.81638 15.3907L5.81666 15.3908C6.08033 15.4515 6.35012 15.4813 6.62062 15.4795L6.82913 11.4752ZM7.04906 12.2031L7.06815 12.1976L7.07336 12.1889C8.54402 11.7446 9.93314 12.457 10.5853 12.884C10.2894 13.1123 9.84638 13.4362 9.35753 13.7437C8.83675 14.0713 8.26694 14.3782 7.76875 14.5322L7.76875 14.5322L7.76764 14.5325C7.19459 14.7244 6.58168 14.7625 5.98948 14.6433C5.85895 14.6126 5.6814 14.5548 5.52278 14.4588C5.36365 14.3625 5.22836 14.2307 5.17346 14.0537C5.11865 13.8771 5.15706 13.6938 5.2354 13.5261C5.31348 13.359 5.4289 13.2126 5.51969 13.1131C5.94232 12.6814 6.46939 12.3678 7.04906 12.2031Z" fill="#D1852C" stroke="#D1852C" stroke-width="0.1"/>
<path d="M6.07536 12.4654L6.07536 12.4655L6.07747 12.4654C6.4726 12.4471 6.8512 12.3008 7.15679 12.0484C7.67541 11.6295 8.07633 11.0818 8.31998 10.4595C8.76057 9.39335 8.62561 8.34582 8.37477 7.55673C8.1239 6.76756 7.75585 6.2325 7.72378 6.18719L7.72379 6.18718L7.72339 6.18664C7.69155 6.14292 7.65078 6.10654 7.60378 6.07995C7.55678 6.05335 7.50465 6.03716 7.4509 6.03248C7.39714 6.02779 7.34301 6.03472 7.29215 6.0528C7.24128 6.07087 7.19487 6.09967 7.15602 6.13723L7.15602 6.13723L7.15533 6.13792C7.12193 6.1715 6.71879 6.57895 6.25661 7.14004C5.79519 7.70021 5.27152 8.41757 5.00031 9.07057L5.00021 9.0708C4.70366 9.79461 4.61512 10.5176 4.71728 11.1102C4.81937 11.7024 5.11375 12.1707 5.58828 12.3692L5.58838 12.3692C5.74276 12.4334 5.90829 12.4661 6.07536 12.4654ZM5.69811 9.35954C6.0333 8.5485 6.8708 7.56071 7.34815 7.03702C7.66892 7.67306 8.1354 8.93533 7.63013 10.1678L7.62978 10.1687C7.43705 10.6665 7.11907 11.1054 6.707 11.4425C6.38942 11.6838 6.08936 11.7552 5.87791 11.6666C5.66441 11.5765 5.49857 11.2956 5.44803 10.8781C5.39794 10.4643 5.46381 9.93019 5.69811 9.35954Z" fill="#D1852C" stroke="#D1852C" stroke-width="0.1"/>
<path d="M13.6184 9.6392C13.5764 9.60191 13.1056 9.20321 12.3854 8.89262C11.6623 8.58076 10.6833 8.35594 9.63376 8.6805C9.02185 8.85737 8.46644 9.1917 8.0224 9.65043L8.02238 9.65041L8.0214 9.65149C7.59024 10.1237 7.42463 10.6545 7.57413 11.1401C7.72359 11.6254 8.15494 11.9713 8.77683 12.1192L8.77716 12.1193C9.00585 12.1721 9.23987 12.198 9.47451 12.1965L9.47462 12.1965C9.87246 12.193 10.2676 12.1305 10.6473 12.0111C11.2914 11.8133 12.0179 11.3783 12.5894 10.9883C13.1619 10.5975 13.5833 10.2488 13.6176 10.2201L13.6179 10.2199C13.66 10.1842 13.6939 10.1397 13.7171 10.0895C13.7404 10.0394 13.7524 9.98468 13.7524 9.92935C13.7524 9.87402 13.7404 9.81934 13.7171 9.76916C13.694 9.71916 13.6603 9.67481 13.6184 9.6392ZM13.6184 9.6392C13.6182 9.63906 13.6181 9.63893 13.6179 9.63879L13.5856 9.67695L13.6189 9.63963C13.6187 9.63949 13.6185 9.63935 13.6184 9.6392ZM9.86324 9.40676L9.86325 9.40678L9.86471 9.40632C11.0428 9.04063 12.1681 9.58251 12.7356 9.93962C12.1953 10.3509 11.205 11.0398 10.4224 11.2821L10.4224 11.2821L10.4214 11.2825C9.9451 11.4418 9.43589 11.4743 8.94344 11.3767C8.58901 11.2923 8.35261 11.1179 8.29157 10.9162C8.23035 10.7139 8.32273 10.4403 8.57367 10.165C8.93041 9.80346 9.37498 9.54206 9.86324 9.40676Z" fill="#D1852C" stroke="#D1852C" stroke-width="0.1"/>
<path d="M9.08807 9.59352L9.08807 9.59356L9.0901 9.59347C9.46378 9.57753 9.82229 9.4405 10.1121 9.20288C10.5986 8.81015 10.9747 8.29654 11.2032 7.71287C11.6159 6.70867 11.4891 5.72634 11.2541 4.9875C11.019 4.24853 10.6742 3.74897 10.6451 3.70671L10.6451 3.7067L10.6443 3.70568C10.6125 3.66197 10.5717 3.62558 10.5247 3.59899C10.4777 3.57239 10.4256 3.5562 10.3718 3.55152C10.3181 3.54683 10.2639 3.55376 10.2131 3.57184C10.1622 3.58991 10.1158 3.61871 10.077 3.65628L10.0767 3.65649C10.0446 3.68797 9.66559 4.06827 9.23276 4.59201C8.80079 5.11471 8.31161 5.78453 8.06243 6.39472C7.8125 6.96969 7.71624 7.60032 7.78317 8.22418L7.78315 8.22419L7.78335 8.22561C7.86859 8.85079 8.16473 9.30852 8.62401 9.50054C8.771 9.56223 8.92876 9.59384 9.08807 9.59352ZM8.76138 6.68156L8.76139 6.68156L8.76175 6.68069C9.06639 5.94396 9.82158 5.04636 10.2685 4.55348C10.5648 5.15784 10.9731 6.301 10.5118 7.41616L10.5114 7.41716C10.3328 7.87666 10.0398 8.28233 9.66069 8.59533C9.3721 8.81393 9.10199 8.87962 8.91571 8.79976C8.72853 8.71951 8.58401 8.48334 8.53389 8.11737C8.48642 7.62708 8.56475 7.13274 8.76138 6.68156ZM10.558 7.43527L10.558 7.43527L10.558 7.43527Z" fill="#D1852C" stroke="#D1852C" stroke-width="0.1"/>
<path d="M12.1481 9.4485L12.1479 9.4485C11.2855 9.4485 10.574 9.09613 10.3791 8.45965L10.3789 8.45908L10.3789 8.45908C10.2489 8.01574 10.4009 7.5435 10.7444 7.13517C11.0881 6.72662 11.6268 6.37712 12.284 6.17352L12.284 6.17352C13.2509 5.87433 14.1529 6.08144 14.8193 6.36858C15.4857 6.65572 15.9208 7.02463 15.9573 7.05607C15.9994 7.09199 16.0332 7.13675 16.0562 7.18717C16.0793 7.23769 16.0911 7.29268 16.0908 7.34826C16.0904 7.40385 16.0779 7.45868 16.0541 7.50889C16.0304 7.55911 15.9959 7.60349 15.9532 7.63889L15.953 7.63905C15.9522 7.63977 15.951 7.64071 15.9496 7.64187C15.9 7.68266 15.5209 7.99432 15.0113 8.34257C14.4882 8.70003 13.8232 9.09915 13.234 9.28129L12.1481 9.4485ZM12.1481 9.4485C12.5163 9.44721 12.8823 9.39086 13.234 9.28131L12.1481 9.4485ZM13.0108 8.55231L13.0108 8.55233C12.5166 8.70605 12.0647 8.72071 11.7231 8.64809C11.3776 8.57462 11.1596 8.41603 11.1047 8.2373C11.0497 8.05869 11.1419 7.80467 11.3875 7.5486C11.6302 7.29551 12.0129 7.05213 12.5072 6.89922L12.4924 6.85145L12.5071 6.89925C12.7466 6.82571 12.9957 6.78864 13.2461 6.78927C13.8945 6.81349 14.5244 7.01044 15.0717 7.35943C14.5768 7.73418 13.7042 8.33767 13.0108 8.55231Z" fill="#D1852C" stroke="#D1852C" stroke-width="0.1"/>
<path d="M10.5363 4.62632C10.5928 4.62649 10.6485 4.61394 10.6995 4.58962C10.7506 4.56526 10.7956 4.52973 10.8311 4.48564L10.8312 4.48551L13.5639 1.07484C13.5971 1.03653 13.6224 0.991909 13.6382 0.943621C13.6541 0.894983 13.6601 0.843622 13.6557 0.792621C13.6514 0.741621 13.6368 0.69202 13.6129 0.6468C13.589 0.601581 13.5562 0.56167 13.5166 0.529479C13.4769 0.497287 13.4311 0.473481 13.382 0.459507C13.333 0.445533 13.2816 0.441683 13.231 0.448191C13.1804 0.4547 13.1316 0.47143 13.0876 0.497365C13.0439 0.523118 13.0059 0.557416 12.9756 0.598208L10.2414 4.00714C10.2414 4.00716 10.2414 4.00718 10.2414 4.0072C10.1964 4.06302 10.168 4.13052 10.1596 4.20184C10.1513 4.27319 10.1632 4.34547 10.194 4.4103C10.2249 4.47513 10.2734 4.52986 10.334 4.56812C10.3946 4.60634 10.4647 4.62653 10.5363 4.62632ZM10.5363 4.62632C10.5362 4.62632 10.5362 4.62632 10.5361 4.62632L10.5363 4.57632L10.5364 4.62632C10.5364 4.62632 10.5363 4.62632 10.5363 4.62632Z" fill="#D1852C" stroke="#D1852C" stroke-width="0.1"/>
<path d="M14.0951 6.33427L14.095 6.33437C14.0424 6.38763 14.0066 6.45534 13.9922 6.52896C13.9779 6.60257 13.9855 6.67881 14.0142 6.74808C14.0429 6.81736 14.0913 6.87658 14.1535 6.91823C14.2157 6.95989 14.2888 6.98211 14.3636 6.98205L14.3635 6.93205L14.3635 6.98205C14.4634 6.98213 14.5593 6.94246 14.6302 6.87177L14.6303 6.87162L17.8788 3.60368C17.8788 3.60368 17.8788 3.60367 17.8788 3.60367C17.9497 3.53236 17.9895 3.43572 17.9895 3.335C17.9895 3.23427 17.9497 3.13762 17.8788 3.06631C17.8078 2.995 17.7116 2.95488 17.6112 2.95488C17.5107 2.95488 17.4145 2.995 17.3436 3.06631L17.3435 3.06632L14.0951 6.33427Z" fill="#D1852C" stroke="#D1852C" stroke-width="0.1"/>
<path d="M13.1528 4.73778L13.1528 4.73775L16.7259 0.762319C16.7259 0.762276 16.726 0.762233 16.726 0.76219C16.7592 0.724848 16.7994 0.694424 16.8444 0.672663C16.8893 0.650877 16.9381 0.638206 16.988 0.635382C17.0379 0.632557 17.0878 0.639636 17.1349 0.656208C17.182 0.67278 17.2254 0.698517 17.2626 0.731937C17.2998 0.765356 17.3301 0.805802 17.3518 0.850957C17.3734 0.896112 17.386 0.945098 17.3888 0.99512C17.3916 1.04514 17.3846 1.09523 17.3681 1.14254C17.3516 1.18984 17.3261 1.23344 17.2929 1.27084L17.2927 1.27106L13.7194 5.24667L13.7194 5.24671L13.1528 4.73778ZM13.1528 4.73778C13.1039 4.79229 13.0717 4.85985 13.0602 4.93229C13.0487 5.00472 13.0583 5.07897 13.0878 5.14606C13.1174 5.21314 13.1657 5.27023 13.2269 5.31037C13.288 5.35044 13.3593 5.37191 13.4323 5.37216M13.1528 4.73778L13.4323 5.37216M13.4323 5.37216C13.4322 5.37216 13.4321 5.37215 13.4319 5.37215L13.4328 5.32216L13.4327 5.37216C13.4326 5.37216 13.4324 5.37216 13.4323 5.37216Z" fill="#D1852C" stroke="#D1852C" stroke-width="0.1"/>
<path d="M11.6304 7.13376L11.6304 7.13376C11.8295 7.12974 12.0257 7.08435 12.2066 7.00045L12.2069 7.00031C12.6123 6.80885 12.9681 6.52575 13.2466 6.17314C13.7416 5.56781 13.8942 4.88678 13.9214 4.35098C13.9485 3.81727 13.8514 3.42475 13.8418 3.38785C13.8275 3.32974 13.7998 3.27583 13.7609 3.23051C13.7218 3.18508 13.6726 3.14959 13.6172 3.12695C13.5619 3.10431 13.5019 3.09518 13.4424 3.10032C13.3832 3.10542 13.3261 3.12445 13.2756 3.15584C13.2383 3.17701 12.9203 3.36867 12.5382 3.64389C12.1524 3.92171 11.697 4.28758 11.399 4.65152C11.1085 4.99408 10.9007 5.39948 10.7917 5.83607L10.7917 5.83607L10.7914 5.83752C10.6889 6.30691 10.7806 6.70366 11.0676 6.94084L11.068 6.94121C11.2272 7.06968 11.4262 7.13786 11.6304 7.13376ZM11.5369 6.00158C11.6189 5.68352 11.7709 5.38811 11.9819 5.13725C12.334 4.75555 12.7308 4.41829 13.1636 4.1328C13.1812 4.6956 13.0041 5.24815 12.6612 5.69545C12.4578 5.95431 12.1988 6.16357 11.9037 6.30758C11.8064 6.35008 11.7255 6.36914 11.6646 6.37319C11.6011 6.37743 11.5676 6.36495 11.556 6.35549C11.5448 6.34638 11.5263 6.31627 11.5184 6.25221C11.5109 6.19099 11.5142 6.10677 11.5369 6.00158Z" fill="#D1852C" stroke="#D1852C" stroke-width="0.1"/>
</svg>
