<svg width="22" height="22" viewBox="0 0 22 22" fill="none" xmlns="http://www.w3.org/2000/svg">
<path d="M16.0026 1.39453C13.8144 1.39453 11.9152 2.65615 10.9944 4.4901C10.0737 2.65615 8.17467 1.39453 5.98629 1.39453C2.89866 1.39453 0.386719 3.90652 0.386719 6.9941C0.386719 10.2984 1.63117 14.2132 10.6588 20.4312C10.7599 20.5007 10.8773 20.5357 10.9945 20.5357C11.1117 20.5357 11.2292 20.5009 11.3302 20.4312C20.3582 14.2132 21.6027 10.2986 21.6027 6.9941C21.6027 3.90647 19.0907 1.39453 16.0027 1.39453H16.0026ZM10.9944 19.2234C2.72107 13.4544 1.57038 9.93592 1.57038 6.9941C1.57038 4.55905 3.55145 2.57819 5.98629 2.57819C8.42112 2.57819 10.4026 4.55926 10.403 6.9941V6.99806C10.4052 7.32304 10.6691 7.58592 10.9947 7.58592H10.9949C11.3218 7.58592 11.5867 7.32105 11.5867 6.99409C11.5867 4.55904 13.5678 2.57818 16.0026 2.57818C18.4376 2.57818 20.4189 4.55925 20.4189 6.99409C20.4189 9.93591 19.2678 13.4539 10.9944 19.2234Z" fill="white"/>
</svg>
