<svg width="40" height="40" viewBox="0 0 40 40" fill="none" xmlns="http://www.w3.org/2000/svg">
<g clip-path="url(#clip0_289_1003)">
<path fill-rule="evenodd" clip-rule="evenodd" d="M22.2634 27.329C18.3466 28.2035 15.8897 27.9961 15.8472 27.9923C15.6048 27.9703 15.3657 28.0612 15.2006 28.2402C15.0352 28.4192 14.9635 28.6655 15.006 28.9057C15.7004 32.7976 15.165 35.6039 14.6352 37.2107C12.8085 33.1657 10.1601 30.5373 9.92189 30.3058C9.69588 30.0709 7.09641 27.4261 3.0158 25.5889C4.62371 25.059 7.42918 24.5244 11.3186 25.2183C11.5583 25.2608 11.804 25.1888 11.9833 25.0243C12.1623 24.8597 12.2544 24.6201 12.2321 24.3777C12.2299 24.3532 12.0172 21.893 12.8954 17.9608C13.6179 14.7256 15.2322 9.87433 18.8355 4.35049C18.9912 4.92981 19.238 5.59061 19.6011 6.34475C19.6036 6.35003 19.6064 6.35587 19.6091 6.36143C19.6305 6.40591 19.6525 6.45094 19.6747 6.49597C19.7117 6.57103 19.749 6.64526 19.7862 6.71864C19.7909 6.72782 19.7954 6.73671 19.8001 6.74616C19.8115 6.7684 19.8235 6.79064 19.8351 6.81316C19.8541 6.84985 19.8732 6.88627 19.8921 6.92269C19.9074 6.9516 19.9227 6.98023 19.938 7.00914C19.965 7.05973 19.9919 7.10921 20.0189 7.1587C21.1275 9.19303 22.8088 11.4328 24.8434 13.5914C24.9852 13.7421 25.1286 13.8922 25.274 14.0417C25.2801 14.0484 25.2865 14.0548 25.2929 14.0612C25.4352 14.208 25.5792 14.3542 25.7249 14.4999C25.8706 14.6453 26.0168 14.7893 26.1636 14.9319C26.17 14.9383 26.1764 14.9444 26.1828 14.9508C26.3326 15.0962 26.4827 15.2393 26.6331 15.3814C28.7922 17.4163 31.032 19.0975 33.0663 20.2062C33.1155 20.2328 33.1647 20.2595 33.2147 20.2862C33.2445 20.3021 33.2742 20.3176 33.3037 20.3335C33.3387 20.3518 33.3737 20.3699 33.409 20.3882C33.4321 20.4005 33.4555 20.4127 33.4785 20.4247C33.4883 20.4297 33.4977 20.4341 33.5075 20.4391C33.5789 20.4755 33.6509 20.5117 33.724 20.5478C33.7713 20.5709 33.818 20.594 33.8647 20.6165L33.8713 20.6195C34.6289 20.9848 35.2927 21.2331 35.874 21.3893C30.3498 24.9926 25.4988 26.6065 22.2637 27.3293M21.2343 1.7796C22.1077 1.7796 23.3862 2.26275 24.425 2.79619C26.7093 3.96928 29.3243 5.97251 31.7878 8.43661C34.2522 10.9007 36.255 13.5157 37.4285 15.8001C38.1735 17.2509 38.8201 19.1688 38.1902 19.7989C38.1457 19.8434 38.094 19.8809 38.0375 19.9129C38.032 19.9157 38.0264 19.9179 38.0209 19.9207C37.6378 20.1181 36.9631 20.0903 36.0657 19.8153C36.0504 19.8109 36.0352 19.8056 36.0201 19.8009C35.9868 19.7906 35.9534 19.7803 35.9198 19.7692C35.9165 19.7681 35.9131 19.767 35.9101 19.7658C34.9426 19.4481 33.7348 18.8576 32.3652 17.9692C32.3379 17.9517 32.311 17.9339 32.2837 17.9161C32.2507 17.8944 32.2178 17.873 32.1845 17.8511C30.5171 16.7455 28.7582 15.2989 27.0634 13.6306C26.985 13.5533 26.9066 13.4755 26.8279 13.3968C26.7492 13.3184 26.6714 13.2398 26.5944 13.1616C24.9257 11.4665 23.4793 9.70734 22.3735 8.03966C22.3523 8.00769 22.3315 7.97572 22.3106 7.94375C22.292 7.91539 22.2734 7.88732 22.255 7.85896C21.3722 6.49793 20.7839 5.29673 20.4648 4.33265C20.4615 4.32237 20.4578 4.31208 20.4548 4.30207C20.4478 4.28123 20.4414 4.26065 20.4351 4.24008C20.4259 4.21173 20.4167 4.18365 20.4084 4.15557C20.4003 4.12972 20.3931 4.10442 20.3858 4.07913C20.3797 4.05911 20.3736 4.0391 20.3681 4.01908C20.132 3.19122 20.117 2.5666 20.3041 2.2038C20.3066 2.1988 20.3086 2.19379 20.3108 2.18907C20.3433 2.13152 20.3808 2.07954 20.4259 2.0345C20.6046 1.85576 20.8876 1.77959 21.234 1.77959M38.8153 15.0875C37.5702 12.6629 35.4662 9.90936 32.8905 7.33332C30.315 4.758 27.5615 2.65364 25.1371 1.40853C21.7017 -0.355866 20.0791 0.175098 19.3227 0.931506C19.1848 1.06911 19.055 1.23618 18.9446 1.43689C14.1843 8.03355 12.1892 13.9228 11.3541 17.7046C10.7615 20.3902 10.6489 22.412 10.6458 23.5328C4.19981 22.6436 0.723961 24.8736 0.573091 24.9734C0.3254 25.1368 0.191966 25.4265 0.228666 25.7209C0.26536 26.0153 0.465788 26.2635 0.746001 26.3611C5.57243 28.0412 8.77201 31.3602 8.80546 31.3949C8.80796 31.3977 8.81074 31.3999 8.81325 31.4027C8.81464 31.4041 8.81575 31.4057 8.81714 31.4071C8.81853 31.4082 8.81964 31.4094 8.82103 31.4105C8.82464 31.4141 8.82798 31.4177 8.83159 31.421C8.86495 31.4527 12.1825 34.6499 13.8635 39.4784C13.961 39.7586 14.2093 39.959 14.5037 39.9957C14.5359 39.9999 14.5682 40.0018 14.6001 40.0018C14.8601 40.0018 15.1058 39.8717 15.2512 39.6513C15.351 39.5 17.5813 36.0246 16.6914 29.5785C17.8126 29.5755 19.8344 29.4629 22.52 28.8702C29.3602 27.3602 35.1348 23.9159 38.7891 21.2783C38.9892 21.1685 39.1558 21.039 39.2928 20.9016C40.0492 20.1452 40.5802 18.5226 38.8155 15.0872" fill="#BBAB81"/>
<path d="M22.2634 27.329C18.3466 28.2035 15.8897 27.9961 15.8472 27.9923C15.6048 27.9703 15.3657 28.0612 15.2006 28.2402C15.0352 28.4192 14.9635 28.6655 15.006 28.9057C15.7004 32.7976 15.165 35.6039 14.6352 37.2107C12.8085 33.1657 10.1601 30.5373 9.92189 30.3058C9.69588 30.0709 7.09641 27.4261 3.0158 25.5889C4.62371 25.059 7.42918 24.5244 11.3186 25.2183C11.5583 25.2608 11.804 25.1888 11.9833 25.0243C12.1623 24.8597 12.2544 24.6201 12.2321 24.3777C12.2299 24.3532 12.0172 21.893 12.8954 17.9608C13.6179 14.7256 15.2322 9.87433 18.8355 4.35049C18.9912 4.92981 19.238 5.59061 19.6011 6.34475C19.6036 6.35003 19.6064 6.35587 19.6091 6.36143C19.6305 6.40591 19.6525 6.45094 19.6747 6.49597C19.7117 6.57103 19.749 6.64526 19.7862 6.71864C19.7909 6.72782 19.7954 6.73671 19.8001 6.74616C19.8115 6.7684 19.8235 6.79064 19.8351 6.81316C19.8541 6.84985 19.8732 6.88627 19.8921 6.92269C19.9074 6.9516 19.9227 6.98023 19.938 7.00914C19.965 7.05973 19.9919 7.10921 20.0189 7.1587C21.1275 9.19303 22.8088 11.4328 24.8434 13.5914C24.9852 13.7421 25.1286 13.8922 25.274 14.0417C25.2801 14.0484 25.2865 14.0548 25.2929 14.0612C25.4352 14.208 25.5792 14.3542 25.7249 14.4999C25.8706 14.6453 26.0168 14.7893 26.1636 14.9319C26.17 14.9383 26.1764 14.9444 26.1828 14.9508C26.3326 15.0962 26.4827 15.2393 26.6331 15.3814C28.7922 17.4163 31.032 19.0976 33.0663 20.2062C33.1155 20.2328 33.1647 20.2595 33.2147 20.2862C33.2445 20.3021 33.2742 20.3176 33.3037 20.3335C33.3387 20.3518 33.3737 20.3699 33.409 20.3882C33.4321 20.4005 33.4555 20.4127 33.4785 20.4247C33.4883 20.4297 33.4977 20.4341 33.5075 20.4391C33.5789 20.4755 33.6509 20.5117 33.724 20.5478C33.7713 20.5709 33.818 20.594 33.8647 20.6165L33.8713 20.6195C34.6289 20.9848 35.2927 21.2331 35.874 21.3893C30.3498 24.9926 25.4988 26.6065 22.2637 27.3293M21.2343 1.7796C22.1077 1.7796 23.3862 2.26275 24.425 2.79619C26.7093 3.96928 29.3243 5.97251 31.7878 8.43661C34.2522 10.9007 36.255 13.5157 37.4285 15.8001C38.1735 17.2509 38.8201 19.1688 38.1902 19.7989C38.1457 19.8434 38.094 19.8809 38.0375 19.9129C38.032 19.9157 38.0264 19.9179 38.0209 19.9207C37.6378 20.1181 36.9631 20.0903 36.0657 19.8153C36.0505 19.8109 36.0352 19.8056 36.0201 19.8009C35.9868 19.7906 35.9534 19.7803 35.9198 19.7692C35.9165 19.7681 35.9131 19.767 35.9101 19.7658C34.9426 19.4481 33.7348 18.8576 32.3652 17.9692C32.3379 17.9517 32.311 17.9339 32.2837 17.9161C32.2507 17.8944 32.2178 17.873 32.1845 17.8511C30.5171 16.7455 28.7582 15.2989 27.0634 13.6306C26.985 13.5533 26.9066 13.4755 26.8279 13.3968C26.7492 13.3184 26.6714 13.2398 26.5944 13.1616C24.9257 11.4665 23.4793 9.70734 22.3735 8.03966C22.3523 8.00769 22.3315 7.97572 22.3106 7.94375C22.292 7.91539 22.2734 7.88732 22.255 7.85896C21.3722 6.49793 20.7839 5.29673 20.4648 4.33265C20.4615 4.32237 20.4578 4.31208 20.4548 4.30207C20.4478 4.28123 20.4414 4.26065 20.4351 4.24008C20.4259 4.21173 20.4167 4.18365 20.4084 4.15557C20.4003 4.12972 20.3931 4.10442 20.3858 4.07913C20.3797 4.05911 20.3736 4.0391 20.3681 4.01908C20.132 3.19122 20.117 2.5666 20.3041 2.2038C20.3066 2.1988 20.3086 2.19379 20.3108 2.18907C20.3433 2.13152 20.3808 2.07954 20.4259 2.0345C20.6046 1.85576 20.8876 1.77959 21.234 1.77959M38.8153 15.0875C37.5702 12.6629 35.4662 9.90936 32.8905 7.33332C30.315 4.758 27.5615 2.65364 25.1371 1.40853C21.7017 -0.355866 20.0791 0.175098 19.3227 0.931506C19.1848 1.06911 19.055 1.23618 18.9446 1.43689C14.1843 8.03355 12.1892 13.9228 11.3541 17.7046C10.7615 20.3902 10.6489 22.412 10.6458 23.5328C4.19981 22.6436 0.723961 24.8736 0.573091 24.9734C0.3254 25.1368 0.191966 25.4265 0.228666 25.7209C0.26536 26.0153 0.465788 26.2635 0.746001 26.3611C5.57243 28.0412 8.77201 31.3602 8.80546 31.3949C8.80796 31.3977 8.81074 31.3999 8.81325 31.4027C8.81464 31.4041 8.81575 31.4057 8.81714 31.4071C8.81853 31.4082 8.81964 31.4094 8.82103 31.4105C8.82464 31.4141 8.82798 31.4177 8.83159 31.421C8.86495 31.4527 12.1825 34.6499 13.8635 39.4784C13.961 39.7586 14.2093 39.959 14.5037 39.9957C14.5359 39.9999 14.5682 40.0018 14.6001 40.0018C14.8601 40.0018 15.1058 39.8717 15.2512 39.6513C15.351 39.5 17.5813 36.0246 16.6914 29.5785C17.8126 29.5755 19.8344 29.4629 22.52 28.8702C29.3602 27.3602 35.1348 23.9159 38.7891 21.2783C38.9892 21.1685 39.1558 21.039 39.2928 20.9016C40.0492 20.1452 40.5802 18.5226 38.8155 15.0872" stroke="#E6DEC9" stroke-width="0.3"/>
<path fill-rule="evenodd" clip-rule="evenodd" d="M29.6631 10.5596C30.7263 11.6229 31.2737 12.5623 31.4413 13.0529C30.951 12.8852 30.0116 12.3379 28.9481 11.2743C27.8848 10.211 27.3374 9.27165 27.1698 8.78133C27.6604 8.94896 28.5998 9.49632 29.6631 10.5596ZM27.8453 12.3774C28.6564 13.1885 29.5305 13.8549 30.3066 14.2532C30.8954 14.5557 31.361 14.668 31.728 14.668C32.185 14.668 32.4886 14.4937 32.6854 14.2969V14.2966C33.0407 13.9416 33.3211 13.2405 32.642 11.9178C32.2434 11.142 31.5773 10.2679 30.7662 9.4565C29.9547 8.64536 29.0807 7.97925 28.3048 7.58065C26.9819 6.90125 26.2811 7.18202 25.9258 7.53729C25.5705 7.89228 25.29 8.59338 25.9694 9.91606C26.3678 10.6919 27.0342 11.5662 27.8453 12.3774Z" fill="#BBAB81" stroke="#E6DEC9" stroke-width="0.3"/>
<path fill-rule="evenodd" clip-rule="evenodd" d="M28.0642 20.4851C22.4149 18.242 19.6539 12.094 19.6269 12.0328C19.454 11.6386 18.9939 11.4596 18.6 11.632C18.2055 11.8049 18.0257 12.2647 18.1986 12.6592C18.3195 12.9355 21.2328 19.451 27.4885 21.9349C27.583 21.9724 27.6803 21.9902 27.7762 21.9902C28.0864 21.9902 28.3797 21.8036 28.5012 21.4979C28.6602 21.0975 28.4645 20.6442 28.0642 20.4854" fill="#BBAB81"/>
<path d="M28.0642 20.4851C22.4149 18.242 19.6539 12.094 19.6269 12.0328C19.454 11.6386 18.9939 11.4596 18.6 11.632C18.2055 11.8049 18.0257 12.2647 18.1986 12.6592C18.3195 12.9355 21.2328 19.451 27.4885 21.9349C27.583 21.9724 27.6803 21.9902 27.7762 21.9902C28.0864 21.9902 28.3797 21.8036 28.5012 21.4979C28.6602 21.0975 28.4645 20.6442 28.0642 20.4854" stroke="#E6DEC9" stroke-width="0.3"/>
<path fill-rule="evenodd" clip-rule="evenodd" d="M23.6308 22.0985C19.8855 20.6115 18.0391 16.5232 18.0138 16.4662C17.8406 16.0722 17.3808 15.8932 16.9869 16.0656C16.5921 16.2382 16.4125 16.6983 16.5852 17.0928C16.6694 17.2849 18.6962 21.8175 23.0554 23.5482C23.1496 23.5858 23.2472 23.6036 23.3428 23.6036C23.653 23.6036 23.9466 23.417 24.0681 23.1112C24.2268 22.7109 24.0311 22.2575 23.6308 22.0986" fill="#BBAB81"/>
<path d="M23.6308 22.0985C19.8855 20.6115 18.0391 16.5232 18.0138 16.4662C17.8406 16.0722 17.3808 15.8932 16.9869 16.0656C16.5921 16.2382 16.4125 16.6983 16.5852 17.0928C16.6694 17.2849 18.6962 21.8175 23.0554 23.5482C23.1496 23.5858 23.2472 23.6036 23.3428 23.6036C23.653 23.6036 23.9466 23.417 24.0681 23.1112C24.2268 22.7109 24.0311 22.2575 23.6308 22.0986" stroke="#E6DEC9" stroke-width="0.3"/>
<path fill-rule="evenodd" clip-rule="evenodd" d="M19.8206 23.9974C17.3532 23.0177 16.127 20.3035 16.1148 20.2762C15.9416 19.8826 15.4821 19.7038 15.0884 19.8762C14.6937 20.0488 14.5141 20.5089 14.6867 20.9034C14.7459 21.0388 16.1717 24.2267 19.2449 25.4471C19.3394 25.4847 19.4367 25.5025 19.5327 25.5025C19.8429 25.5025 20.1362 25.3159 20.2577 25.0101C20.4167 24.6098 20.221 24.1564 19.8207 23.9974" fill="#BBAB81"/>
<path d="M19.8206 23.9974C17.3532 23.0177 16.127 20.3035 16.1148 20.2762C15.9416 19.8826 15.4821 19.7038 15.0884 19.8762C14.6937 20.0488 14.5141 20.5089 14.6867 20.9034C14.7459 21.0388 16.1717 24.2267 19.2449 25.4471C19.3394 25.4847 19.4367 25.5025 19.5327 25.5025C19.8429 25.5025 20.1362 25.3159 20.2577 25.0101C20.4167 24.6098 20.221 24.1564 19.8207 23.9974" stroke="#E6DEC9" stroke-width="0.3"/>
</g>
<defs>
<clipPath id="clip0_289_1003">
<rect width="40" height="40" fill="white"/>
</clipPath>
</defs>
</svg>
