<svg width="40" height="40" viewBox="0 0 40 40" fill="none" xmlns="http://www.w3.org/2000/svg">
<path d="M36.7025 20.3941L36.6065 20.2981L36.5587 20.2503C33.5865 17.3737 28.4089 17.4698 24.9572 17.5175H24.286C23.8065 17.5175 23.3273 17.3259 22.9437 16.9902C22.608 16.6548 22.416 16.1752 22.416 15.6961V15.0249C22.4638 11.5732 22.512 6.34776 19.6833 3.42341L19.5876 3.32777L19.5398 3.27996L19.492 3.23214C18.0537 1.88981 15.1775 0.835132 13.883 2.1296C13.4516 2.56098 13.5472 3.18428 13.5954 3.37596C13.5954 3.56757 13.4994 3.66355 13.4516 3.7117C13.3556 3.80767 13.164 3.85549 13.0202 3.80767C11.5819 3.32814 10.4794 3.42411 9.90429 4.04744C9.42475 4.47883 9.52072 5.24594 9.6167 5.72552C9.66452 5.91713 9.52072 6.06126 9.4729 6.10908C9.42508 6.1569 9.28129 6.25287 9.13716 6.20505C7.84269 5.86931 6.97994 5.96528 6.4526 6.49264C5.92524 7.02 5.82928 7.88273 6.21283 9.1772C6.26065 9.36882 6.16501 9.46479 6.11686 9.51295C6.06904 9.56076 5.92524 9.65674 5.7333 9.65674C5.20594 9.56077 4.48694 9.51294 4.05522 9.94433C3.4319 10.5677 3.38408 11.6224 3.81545 13.0603C3.86327 13.2041 3.81545 13.3479 3.71948 13.4916C3.67166 13.5395 3.57568 13.6354 3.38373 13.6354C3.19212 13.5876 2.52099 13.5395 2.13738 13.923C0.795057 15.2654 1.94576 18.1418 3.28803 19.5798L3.33585 19.6276L3.38367 19.6754L3.43148 19.7232C6.40368 22.5998 11.5812 22.5038 15.033 22.456H15.7041C16.2315 22.456 16.6628 22.6476 17.0464 22.9834C17.3822 23.3191 17.6216 23.7983 17.5738 24.3257V24.9968C17.526 28.4485 17.4778 33.674 20.3066 36.5983L20.3544 36.6461L20.7858 36.2626L20.4022 36.694L20.8336 36.2626L20.45 36.694L20.4978 36.7418C21.4566 37.6527 23.1346 38.4199 24.4769 38.4199C25.1002 38.4199 25.6754 38.2282 26.1067 37.8447C26.5381 37.4133 26.4425 36.79 26.3943 36.5983C26.3943 36.4067 26.4903 36.3107 26.5381 36.2626C26.6341 36.1666 26.8257 36.1188 26.9695 36.1666C28.4078 36.6461 29.5103 36.5502 30.0854 35.9268C30.5168 35.4473 30.469 34.7283 30.373 34.2488C30.3252 34.0571 30.469 33.913 30.5168 33.8652C30.5646 33.8174 30.7084 33.7214 30.8526 33.7692C32.147 34.105 33.0098 34.009 33.5371 33.4816C34.0645 32.9543 34.1605 32.0915 33.7769 30.7971C33.7291 30.6055 33.8247 30.5095 33.8729 30.4613C33.9207 30.4135 34.0645 30.3175 34.2564 30.3175C34.7838 30.4135 35.5028 30.4613 35.9345 30.0299C36.5578 29.4066 36.6057 28.3519 36.1743 26.914C36.1265 26.7702 36.1743 26.6264 36.2703 26.4826C36.3181 26.4348 36.4141 26.3388 36.606 26.3388C36.7976 26.3867 37.4688 26.4348 37.8524 26.0512C39.1472 24.8046 38.0925 21.9281 36.7502 20.4901C36.7023 20.442 36.7023 20.442 36.7023 20.3941L36.7025 20.3941ZM37.0379 25.236H36.7503C36.2229 25.1881 35.6956 25.3797 35.3602 25.8111C35.0245 26.2425 34.8807 26.818 35.0726 27.3454C35.3602 28.2563 35.4083 29.0235 35.1686 29.2628C35.1686 29.2628 35.0248 29.3588 34.4974 29.2628C33.9701 29.1668 33.3949 29.3588 33.0591 29.7424C32.6756 30.1259 32.5796 30.7011 32.7234 31.1806C33.0591 32.3791 32.8194 32.6667 32.7712 32.7149C32.7234 32.7627 32.4355 33.0025 31.237 32.6671C30.7096 32.5233 30.1823 32.6671 29.7987 33.0506C29.4151 33.4342 29.2235 33.9616 29.3191 34.4889C29.4151 35.0163 29.3191 35.1601 29.367 35.1601C29.1272 35.3998 28.36 35.3998 27.4495 35.1123C26.9222 34.9206 26.347 35.0644 25.9153 35.3998C25.4839 35.7356 25.292 36.2626 25.3401 36.7899V37.0775C24.669 37.6527 22.5596 37.0297 21.3611 35.879L21.3133 35.8312C18.7724 33.2426 18.8203 28.3044 18.8684 25.0447V24.3735C18.8684 23.5586 18.5808 22.7915 17.9574 22.1681C17.3823 21.5929 16.6151 21.2572 15.8002 21.2572H15.7524H15.0813C11.8215 21.305 6.88334 21.3531 4.29475 18.8123L4.24693 18.7645C3.09628 17.566 2.47323 15.4088 3.04843 14.7855H3.33602C3.86337 14.8333 4.3907 14.6417 4.72611 14.2103C5.06185 13.7789 5.20564 13.2034 5.0137 12.676C4.72611 11.7651 4.67795 10.998 4.91772 10.7586C4.91772 10.7586 5.06152 10.6626 5.58887 10.7586C6.11622 10.8546 6.6914 10.6626 7.02715 10.2791C7.41072 9.89551 7.50669 9.32035 7.3629 8.84078C7.02715 7.64228 7.26692 7.35473 7.31508 7.30653C7.3629 7.25871 7.65082 7.01894 8.84933 7.35435C9.37669 7.49814 9.90401 7.35435 10.2876 6.97079C10.6712 6.58722 10.8628 6.05984 10.7672 5.5325C10.6712 5.00514 10.7672 4.86135 10.7193 4.86135C10.9591 4.62158 11.7263 4.62158 12.6368 4.90917C13.1641 5.10079 13.7393 4.95699 14.171 4.62158C14.6024 4.28584 14.7943 3.75883 14.7462 3.23149V2.9439C15.4173 2.36873 17.5267 2.99172 18.7252 4.14241V4.19022C21.2661 6.77882 21.2182 11.717 21.1701 14.9767V15.6479C21.1701 16.4628 21.4577 17.2299 22.081 17.8533C22.6562 18.4285 23.4234 18.7642 24.2864 18.7642H24.9576C28.2173 18.7164 33.1555 18.6683 35.7441 21.2091L35.7919 21.2569C36.9901 22.4554 37.613 24.5649 37.0379 25.236Z" fill="#BBAB81"/>
<path d="M25.774 21.5933C25.055 20.8743 24.0959 20.3948 23.0894 20.2032L21.5074 19.9156C20.7884 19.7718 20.261 19.2444 20.1651 18.5255L19.9735 17.231C19.7818 16.1285 19.3023 15.1216 18.5352 14.3544L16.5695 12.3888C16.3298 12.149 15.9462 12.149 15.7546 12.3888C15.5148 12.6286 15.5148 13.0121 15.7546 13.2037L17.7202 15.1694C18.2954 15.7446 18.6789 16.5117 18.8228 17.3748L19.0144 18.6693C19.0144 18.8131 19.0622 18.909 19.1104 19.0528C19.0144 19.005 18.8706 18.9569 18.7268 18.9569L17.0966 18.6689C16.2816 18.5251 15.5623 18.1416 15.0353 17.5664L13.2135 15.7446C12.9737 15.5048 12.5902 15.5048 12.3986 15.7446C12.1588 15.9844 12.1588 16.3679 12.3986 16.5595L14.2204 18.3813C14.9393 19.1003 15.8985 19.5798 16.9049 19.7714L18.487 20.059C19.2059 20.2028 19.7333 20.7302 19.8293 21.4491L20.0209 22.7436C20.2125 23.8461 20.692 24.853 21.4592 25.6201L23.4248 27.5858C23.5208 27.6817 23.7124 27.7774 23.8562 27.7774C24 27.7774 24.1438 27.7296 24.2876 27.5858C24.5274 27.346 24.5274 26.9624 24.2876 26.7708L22.322 24.8052C21.7468 24.23 21.3632 23.4629 21.2194 22.5998L21.0278 21.3053C21.0278 21.1615 20.98 21.0656 20.9318 20.9218C21.0278 20.9696 21.1716 21.0177 21.3154 21.0177L22.8974 21.3053C23.7124 21.4491 24.4317 21.8327 24.9587 22.4079L26.7805 24.2297C26.8765 24.3256 27.0681 24.4213 27.2119 24.4213C27.3557 24.4213 27.4995 24.3735 27.6432 24.2297C27.883 23.9899 27.883 23.6063 27.6432 23.4147L25.774 21.5933Z" fill="#BBAB81"/>
</svg>
