<svg width="40" height="40" viewBox="0 0 40 40" fill="none" xmlns="http://www.w3.org/2000/svg">
<g clip-path="url(#clip0_289_981)">
<path d="M13.3615 39.0035H26.6567C33.4641 39.0035 39.0022 33.4657 39.0022 26.658V22.7236C39.0022 22.4612 38.7896 22.2486 38.5272 22.2486L25.857 22.2489L26.3617 20.6817C26.7959 19.3327 26.2137 17.8697 25.0074 17.2777C24.5937 17.0757 24.1462 16.982 23.6825 16.9883C23.6411 15.7873 22.9167 14.7032 21.8539 14.2687C21.4998 14.1246 21.1372 14.0564 20.7609 14.0657C20.7427 12.5096 19.5672 11.2302 18.0688 11.1456C17.3765 11.1042 16.6969 11.3208 16.1557 11.7415C15.0455 11.0317 13.5554 11.1701 12.5995 12.1267C11.643 13.0829 11.5049 14.5731 12.214 15.6829C11.793 16.2244 11.579 16.9021 11.6181 17.5966C11.7029 19.0944 12.9817 20.2702 14.5382 20.2884C14.5292 20.6617 14.5971 21.0277 14.7415 21.3818C14.8757 21.71 15.0724 21.9981 15.3072 22.2489H1.49059C1.22826 22.2489 1.01562 22.4612 1.01562 22.7239V26.658C1.01562 33.4658 6.55381 39.0035 13.3611 39.0035L13.3615 39.0035ZM15.621 21.022C15.4759 20.6669 15.4491 20.3066 15.5388 19.9207C15.5716 19.7796 15.5385 19.6312 15.4481 19.5176C15.358 19.4044 15.2212 19.3381 15.0761 19.3381H14.5747C13.5231 19.3381 12.6225 18.5326 12.5665 17.5423C12.5347 16.9835 12.7493 16.441 13.1551 16.0538C13.3389 15.8779 13.3518 15.5891 13.1849 15.3976C12.5274 14.6454 12.5655 13.5037 13.2713 12.7976C13.9771 12.0918 15.1188 12.0534 15.8713 12.7115C16.0628 12.8784 16.3516 12.8648 16.5275 12.6817C16.9143 12.2763 17.4575 12.064 18.0156 12.0928C19.006 12.1488 19.8118 13.05 19.8118 14.101V14.6028C19.8118 14.7478 19.8781 14.8846 19.9917 14.9747C20.1053 15.0651 20.2537 15.0979 20.3948 15.0651C20.7797 14.976 21.1397 15.0015 21.4951 15.1473C22.2367 15.4507 22.7352 16.2336 22.7352 17.0968V17.526C22.7352 17.6711 22.8014 17.8079 22.915 17.898C23.0286 17.9881 23.1763 18.0212 23.3181 17.9884C23.7739 17.8821 24.2028 17.94 24.59 18.1298C25.3756 18.5157 25.7489 19.4872 25.4584 20.39L24.8599 22.2485H23.3933L17.3698 16.225C17.1843 16.0395 16.8839 16.0395 16.6985 16.225C16.513 16.4105 16.513 16.7109 16.6985 16.8964L22.0505 22.2485H17.5291C16.6746 22.2485 15.9257 21.7672 15.621 21.022ZM1.96545 23.1981H38.0524V26.6576C38.0524 32.941 32.9404 38.0535 26.6565 38.0535H13.3613C7.07757 38.0535 1.96545 32.9412 1.96545 26.6576V23.1981Z" fill="#BBAB81" stroke="#BBAB81" stroke-width="0.4"/>
<path d="M10.2344 4.13694C10.2344 5.85692 11.6334 7.25563 13.3534 7.25563C15.0734 7.25563 16.4728 5.85658 16.4728 4.13694C16.4724 2.41696 15.0734 1.01758 13.3534 1.01758C11.6334 1.01758 10.2344 2.41696 10.2344 4.13694ZM15.5229 4.13694C15.5229 5.33291 14.5495 6.30606 13.3531 6.30606C12.1571 6.30606 11.1836 5.33266 11.1836 4.13694C11.1839 2.94063 12.157 1.96715 13.3534 1.96715C14.5498 1.96715 15.5229 2.94055 15.5229 4.13694Z" fill="#BBAB81" stroke="#BBAB81" stroke-width="0.4"/>
<path d="M36.9561 7.22505C36.7706 7.03957 36.4702 7.03957 36.2847 7.22505L27.0688 16.4409C26.8833 16.6264 26.8833 16.9268 27.0688 17.1123C28.4317 18.4752 30.222 19.1569 32.0122 19.1569C33.8024 19.1569 35.5929 18.4752 36.9556 17.1123C39.6817 14.3867 39.6817 9.95081 36.9559 7.22488L36.9561 7.22505ZM36.2847 16.4409C35.1437 17.582 33.6263 18.2103 32.0127 18.2103C30.5584 18.2103 29.1821 17.6999 28.0894 16.7636L36.6075 8.2455C37.5438 9.33854 38.0542 10.7144 38.0542 12.1688C38.0539 13.7828 37.4255 15.2997 36.2845 16.4411L36.2847 16.4409Z" fill="#BBAB81" stroke="#BBAB81" stroke-width="0.4"/>
<path d="M34.3027 13.7836C34.1172 13.5982 33.8168 13.5982 33.6313 13.7836C33.4458 13.9691 33.4458 14.2695 33.6313 14.455L34.5176 15.341C34.6104 15.4337 34.7319 15.4801 34.8535 15.4801C34.975 15.4801 35.0966 15.4337 35.1893 15.341C35.3748 15.1555 35.3748 14.8551 35.1893 14.6696L34.3027 13.7836Z" fill="#BBAB81" stroke="#BBAB81" stroke-width="0.4"/>
<path d="M31.8968 14.7266C31.6345 14.7266 31.4219 14.9389 31.4219 15.2015V16.4555C31.4219 16.7178 31.6345 16.9305 31.8968 16.9305C32.1592 16.9305 32.3718 16.7182 32.3718 16.4555V15.2015C32.3718 14.9389 32.1592 14.7266 31.8968 14.7266Z" fill="#BBAB81" stroke="#BBAB81" stroke-width="0.4"/>
<path d="M36.2992 11.5723H35.0453C34.783 11.5723 34.5703 11.7846 34.5703 12.0472C34.5703 12.3096 34.783 12.5222 35.0453 12.5222H36.2992C36.5616 12.5222 36.7742 12.3099 36.7742 12.0472C36.7742 11.7846 36.5616 11.5723 36.2992 11.5723Z" fill="#BBAB81" stroke="#BBAB81" stroke-width="0.4"/>
<path d="M3.39571 19.4534C3.51726 19.4534 3.63882 19.407 3.73155 19.3143L12.9475 10.0984C13.1329 9.9129 13.1329 9.61249 12.9475 9.42701C10.2219 6.70141 5.78595 6.70141 3.06001 9.42701C0.334162 12.1526 0.334162 16.5885 3.06001 19.3145C3.15276 19.4072 3.2743 19.4536 3.39553 19.4536L3.39571 19.4534ZM3.73155 10.0984C4.87258 8.95741 6.38991 8.32911 8.00356 8.32911C9.45789 8.32911 10.8341 8.8395 11.9268 9.7758L3.40876 18.2939C2.47241 17.2008 1.96206 15.825 1.96206 14.3706C1.96206 12.7566 2.59037 11.2393 3.73139 10.0983L3.73155 10.0984Z" fill="#BBAB81" stroke="#BBAB81" stroke-width="0.4"/>
<path d="M5.71685 12.7557C5.80959 12.8485 5.93114 12.8948 6.0527 12.8948C6.17425 12.8948 6.29581 12.8485 6.38854 12.7557C6.57402 12.5703 6.57402 12.2698 6.38854 12.0844L5.50189 11.1977C5.31641 11.0122 5.016 11.0122 4.83052 11.1977C4.64504 11.3832 4.64504 11.6836 4.83052 11.8691L5.71685 12.7557Z" fill="#BBAB81" stroke="#BBAB81" stroke-width="0.4"/>
<path d="M8.1234 11.8152C8.38573 11.8152 8.59836 11.6029 8.59836 11.3403V10.0863C8.59836 9.82397 8.38573 9.61133 8.1234 9.61133C7.86107 9.61133 7.64844 9.82364 7.64844 10.0863V11.3403C7.64844 11.6029 7.86107 11.8152 8.1234 11.8152Z" fill="#BBAB81" stroke="#BBAB81" stroke-width="0.4"/>
<path d="M4.97078 14.9656C5.23311 14.9656 5.44574 14.7532 5.44574 14.4906C5.44574 14.2283 5.23311 14.0156 4.97078 14.0156H3.71715C3.45482 14.0156 3.24219 14.2279 3.24219 14.4906C3.24219 14.7529 3.45482 14.9656 3.71715 14.9656H4.97078Z" fill="#BBAB81" stroke="#BBAB81" stroke-width="0.4"/>
<path d="M20.1847 11.044C21.5476 12.4069 23.3379 13.0885 25.1281 13.0885C26.9182 13.0885 28.7088 12.4069 30.0714 11.044C30.2569 10.8585 30.2569 10.5581 30.0714 10.3726L20.8564 1.15669C20.6709 0.971208 20.3705 0.971208 20.185 1.15669C17.4592 3.88228 17.4592 8.31819 20.185 11.0441L20.1847 11.044ZM20.5334 2.1774L29.0515 10.6955C27.9585 11.6318 26.5827 12.1422 25.1282 12.1422C23.5146 12.1422 21.9973 11.5139 20.8562 10.3728C19.7152 9.23181 19.0869 7.71448 19.0869 6.10083C19.0866 4.64616 19.597 3.27027 20.5334 2.17731L20.5334 2.1774Z" fill="#BBAB81" stroke="#BBAB81" stroke-width="0.4"/>
<path d="M21.9555 9.27331C22.0482 9.36605 22.1698 9.41242 22.2913 9.41242C22.4129 9.41242 22.5344 9.36605 22.6272 9.27331L23.5135 8.38665C23.699 8.20117 23.699 7.90076 23.5135 7.71528C23.328 7.5298 23.0276 7.5298 22.8421 7.71528L21.9558 8.60194C21.77 8.78742 21.77 9.08783 21.9555 9.27331Z" fill="#BBAB81" stroke="#BBAB81" stroke-width="0.4"/>
<path d="M20.8422 6.45383H22.0961C22.3584 6.45383 22.5711 6.24153 22.5711 5.97887C22.5711 5.71654 22.3584 5.50391 22.0961 5.50391H20.8422C20.5798 5.50391 20.3672 5.71621 20.3672 5.97887C20.3672 6.2412 20.5798 6.45383 20.8422 6.45383Z" fill="#BBAB81" stroke="#BBAB81" stroke-width="0.4"/>
<path d="M25.2484 10.8595C25.5107 10.8595 25.7234 10.6472 25.7234 10.3845V9.13121C25.7234 8.86889 25.5107 8.65625 25.2484 8.65625C24.9861 8.65625 24.7734 8.86856 24.7734 9.13121V10.3845C24.7734 10.6472 24.9861 10.8595 25.2484 10.8595Z" fill="#BBAB81" stroke="#BBAB81" stroke-width="0.4"/>
</g>
<defs>
<clipPath id="clip0_289_981">
<rect width="40" height="40" fill="white"/>
</clipPath>
</defs>
</svg>
