<svg width="40" height="40" viewBox="0 0 40 40" fill="none" xmlns="http://www.w3.org/2000/svg">
<path d="M39.116 27.7752H37.6477C37.3981 18.7647 30.2302 11.4984 21.3642 11.2454L21.3645 10.2422H23.7635C24.0321 10.2422 24.2432 10.0279 24.2432 9.75527V7.80724C24.2432 7.53459 24.0321 7.32031 23.7635 7.32031H16.0871C15.8185 7.32031 15.6075 7.53459 15.6075 7.80724V9.75527C15.6075 10.0279 15.8185 10.2422 16.0871 10.2422H18.4861V11.2454C9.60992 11.4989 2.45185 18.7656 2.20181 27.7752H0.733848C0.570635 27.7752 0.417061 27.8629 0.321324 28.009C0.234897 28.1552 0.225258 28.3306 0.302046 28.4862C1.5685 31.0484 4.11146 32.6458 6.94195 32.6458H32.9077C35.7385 32.6458 38.2812 31.0483 39.548 28.4767C39.6247 28.3208 39.6151 28.1456 39.5287 27.9995C39.4329 27.8629 39.2794 27.7751 39.1162 27.7751L39.116 27.7752ZM16.5668 9.26835V8.29416H23.2839V9.26835H16.5668ZM20.4048 10.2422V11.2164H19.4452V10.2422H20.4048ZM18.9655 12.1906H20.8845C29.4531 12.1906 36.4582 19.1358 36.7074 27.776L3.14192 27.7757C3.39156 19.1359 10.3961 12.1911 18.9648 12.1911L18.9655 12.1906ZM32.9082 31.6718H6.94245C4.74519 31.6718 2.7491 30.571 1.55938 28.7495H38.2816C37.0915 30.571 35.0958 31.6718 32.9081 31.6718H32.9082Z" fill="#BBAB81" stroke="#BBAB81" stroke-width="0.5"/>
<path d="M34.3477 24.2493C33.1291 19.3983 29.4829 15.6672 24.8291 14.5083C24.5702 14.4499 24.3109 14.6058 24.2534 14.8687C24.1863 15.1316 24.3495 15.3948 24.6084 15.4531C28.9072 16.5245 32.2848 19.9826 33.4172 24.4928C33.4747 24.7169 33.6669 24.863 33.8779 24.863C33.9162 24.863 33.9547 24.863 33.9929 24.8434C34.2615 24.7753 34.4151 24.5026 34.348 24.2495L34.3477 24.2493Z" fill="#BBAB81" stroke="#BBAB81" stroke-width="0.5"/>
</svg>
