<svg width="40" height="40" viewBox="0 0 40 40" fill="none" xmlns="http://www.w3.org/2000/svg">
<path d="M20.0171 0.914317C19.9909 0.919057 19.965 0.925521 19.9396 0.933279C19.7095 0.975082 19.5224 1.14402 19.4569 1.36897C19.3914 1.59393 19.4586 1.83656 19.631 1.99515C20.3076 2.67218 20.6088 3.22946 20.7118 3.73276C20.8153 4.23654 20.7295 4.70887 20.5576 5.2389C20.2137 6.29862 19.4009 7.48455 19.4569 8.9843C19.4621 9.14807 19.5323 9.3032 19.6517 9.41569C19.7711 9.52773 19.9305 9.58807 20.0943 9.5829C20.258 9.57772 20.4132 9.50791 20.5257 9.38811C20.6377 9.26874 20.6981 9.10972 20.6929 8.94552C20.6558 7.96295 21.3173 6.91224 21.7354 5.62498C21.9444 4.98114 22.068 4.25751 21.909 3.48182C21.75 2.70613 21.3195 1.9075 20.5187 1.10731C20.3899 0.96941 20.205 0.898375 20.0171 0.914317ZM15.0164 3.40478C14.7996 3.44313 14.6195 3.59396 14.5441 3.80082C14.4686 4.00811 14.5087 4.23953 14.6496 4.40846C15.1875 5.08075 15.3301 5.63714 15.306 6.22363C15.2823 6.80972 15.0517 7.42991 14.785 8.11546C14.5182 8.80102 14.2114 9.53677 14.0898 10.3552C13.9683 11.1735 14.0743 12.0863 14.6113 12.981C14.6725 13.1555 14.8091 13.2934 14.9828 13.3563C15.1569 13.4197 15.3499 13.4016 15.509 13.3076C15.6684 13.2133 15.7766 13.0525 15.8046 12.8694C15.8326 12.6866 15.7774 12.5005 15.6538 12.363C15.2637 11.7127 15.2155 11.1585 15.306 10.5483C15.3969 9.9376 15.6693 9.28296 15.9434 8.57876C16.217 7.87458 16.4885 7.1045 16.5226 6.26195C16.5566 5.41944 16.3127 4.50835 15.615 3.63612C15.4745 3.4534 15.2435 3.36428 15.0164 3.40478ZM25.5196 3.40478C25.3024 3.44313 25.1226 3.59396 25.0468 3.80082C24.9714 4.00811 25.0115 4.23953 25.1524 4.40846C25.6902 5.08075 25.8329 5.63714 25.8092 6.22363C25.785 6.80972 25.5545 7.42991 25.2877 8.11546C25.0209 8.80102 24.7141 9.53677 24.5926 10.3552C24.471 11.1735 24.5775 12.0863 25.114 12.981C25.1752 13.1555 25.3118 13.2934 25.4855 13.3563C25.6596 13.4197 25.8527 13.4016 26.0117 13.3076C26.1711 13.2133 26.2797 13.0525 26.3078 12.8694C26.3358 12.6866 26.2802 12.5005 26.1565 12.363C25.7665 11.7127 25.7182 11.1585 25.8092 10.5483C25.8997 9.9376 26.172 9.28296 26.4461 8.57876C26.7202 7.87458 26.9913 7.1045 27.0253 6.26195C27.0593 5.41941 26.8159 4.50835 26.1177 3.63612C25.9772 3.4534 25.7467 3.36428 25.5196 3.40478ZM20.0748 14.5255C18.3761 14.5255 16.9858 15.9158 16.9858 17.6145C16.9858 18.676 17.5344 19.6254 18.3567 20.1821C10.9451 20.9833 5.09461 26.9033 4.62904 34.2562C4.61827 34.4268 4.6786 34.594 4.79582 34.7182C4.91261 34.8427 5.07594 34.9129 5.24702 34.9125H34.9021C35.0732 34.9129 35.2365 34.8427 35.3533 34.7182C35.4705 34.594 35.5309 34.4268 35.5201 34.2562C35.0555 26.9028 29.2045 20.9831 21.7925 20.1821C22.6147 19.6253 23.1634 18.676 23.1634 17.6145C23.1634 15.9158 21.7736 14.5255 20.0748 14.5255ZM20.0748 15.761C21.1057 15.761 21.9284 16.5832 21.9284 17.6145C21.9284 18.6454 21.1057 19.4677 20.0748 19.4677C19.044 19.4677 18.2213 18.6454 18.2213 17.6145C18.2213 16.5833 19.044 15.761 20.0748 15.761ZM20.0748 21.3211C27.42 21.3211 33.4053 26.739 34.1886 33.6774H5.96219C6.74524 26.739 12.7304 21.3211 20.076 21.3211H20.0748ZM2.6602 38.0021C2.31932 38.0344 2.0685 38.337 2.10039 38.6779C2.13228 39.0192 2.4348 39.27 2.77613 39.2381H37.3737C37.5392 39.2403 37.6983 39.176 37.8163 39.0601C37.934 38.9442 38.0004 38.7856 38.0004 38.6201C38.0004 38.4546 37.934 38.296 37.8163 38.1801C37.6983 38.0642 37.5392 38 37.3737 38.0021H2.77613C2.75673 38.0013 2.73777 38.0013 2.71838 38.0021C2.69898 38.0013 2.67959 38.0013 2.6602 38.0021Z" fill="#BBAB81"/>
</svg>
