<svg width="40" height="40" viewBox="0 0 40 40" fill="none" xmlns="http://www.w3.org/2000/svg">
<path d="M39.1436 12.3503V12.3017C39.1436 12.2532 39.1436 12.1558 39.095 12.1072C39.0465 12.0587 39.0465 11.9613 38.9976 11.9127C38.9976 11.9127 38.9976 11.8642 38.9491 11.8642C38.9005 11.8156 38.8516 11.7667 38.8031 11.7182L26.0041 3.1526C25.7122 2.95809 25.3714 2.95809 25.1283 3.10406L22.9385 4.36927L1.03913 17.2169C0.941704 17.2654 0.893161 17.3143 0.844617 17.3629L0.796074 17.4114C0.747531 17.4599 0.698649 17.5574 0.650106 17.6059V17.6545C0.601563 17.7519 0.601562 17.8004 0.601562 17.8979V35.8067C0.601562 36.0501 0.698989 36.2934 0.893502 36.4394C1.03947 36.5854 1.23432 36.6339 1.42884 36.6339H1.57481L38.4144 30.8916C38.8037 30.8431 39.1442 30.4537 39.1442 30.0643L39.1439 12.3502L39.1436 12.3503ZM28.6805 12.9827V12.8853V12.7393V12.5933C28.6805 12.5448 28.6805 12.4959 28.632 12.4474C28.632 12.3988 28.632 12.3499 28.5835 12.3014C28.5835 12.2529 28.5349 12.204 28.5349 12.1554C28.5349 12.1069 28.4864 12.058 28.4864 12.0095C28.4864 11.9609 28.4378 11.912 28.4378 11.8635C28.4378 11.8149 28.3893 11.7661 28.3893 11.7175C28.3893 11.669 28.3407 11.6201 28.3407 11.5715C28.2922 11.523 28.2922 11.4741 28.2433 11.4256C28.1948 11.377 28.1948 11.3282 28.1459 11.2796C28.0973 11.2311 28.0973 11.1822 28.0485 11.1336C27.9999 11.0851 27.9999 11.0362 27.951 11.0362C27.9025 10.9877 27.9025 10.9388 27.8536 10.9388L27.7562 10.8414C27.7076 10.7928 27.6588 10.7928 27.6588 10.7439C27.6102 10.6954 27.6102 10.6954 27.5613 10.6465C27.5128 10.598 27.4639 10.598 27.4154 10.5491C27.3668 10.5005 27.3179 10.5005 27.3179 10.4517C27.2694 10.4031 27.2205 10.4031 27.172 10.3542C27.1234 10.3542 27.0745 10.3057 27.0745 10.3057C27.026 10.2571 26.9771 10.2571 26.9286 10.2571C26.88 10.2571 26.8311 10.2086 26.7826 10.2086C26.7341 10.2086 26.6852 10.1601 26.6366 10.1601C26.5881 10.1601 26.5392 10.1115 26.4907 10.1115C26.4421 10.1115 26.3932 10.063 26.2961 10.063C26.2476 10.063 26.1987 10.063 26.1502 10.0144C26.1016 10.0144 26.0042 10.0144 25.9557 9.96589H25.8582H25.5174C23.7655 9.96589 22.3544 11.377 22.3544 13.129C22.3544 13.2749 22.3544 13.4698 22.4029 13.6157C22.4029 13.6643 22.4029 13.7132 22.4514 13.7617C22.4514 13.8103 22.4514 13.8591 22.5 13.9077L10.9177 15.6596L5.71065 16.438L12.767 12.3013C12.8645 12.3987 12.913 12.4958 13.0104 12.5932L13.059 12.6418C13.1564 12.7392 13.2535 12.7877 13.3024 12.8852L13.3998 12.9826C13.4972 13.0311 13.5943 13.1286 13.6917 13.1771L13.7403 13.2257C13.8862 13.2742 13.9837 13.3716 14.1296 13.4202C14.1782 13.4202 14.2271 13.4202 14.2271 13.4687C14.3245 13.5173 14.4216 13.5173 14.5679 13.5661H14.7138C14.8598 13.5661 15.0058 13.6147 15.1518 13.6147C16.8063 13.6147 18.1689 12.2521 18.1689 10.5975V10.2567V10.1593C18.1689 10.1107 18.1689 10.0133 18.1204 9.96476C18.1204 9.91622 18.1204 9.86734 18.0718 9.86734C18.0718 9.81879 18.0233 9.72137 18.0233 9.67282C18.0233 9.62428 17.9747 9.5754 17.9747 9.52685C17.9747 9.47831 17.9262 9.42943 17.9262 9.33234V9.2838L22.3548 6.65605V6.70459C22.4034 6.85056 22.4522 6.99653 22.5008 7.1425C22.5493 7.28847 22.6468 7.43444 22.7442 7.58041L22.7927 7.62895C22.8902 7.77492 22.9872 7.87235 23.0847 8.01832L23.1332 8.06686C23.2306 8.16429 23.3277 8.31026 23.474 8.40768L23.5226 8.45623C23.62 8.55365 23.766 8.65074 23.9119 8.69962C23.9119 8.69962 23.9605 8.69962 23.9605 8.74816C24.1065 8.84559 24.2524 8.89413 24.3984 8.94268C24.4469 8.94268 24.4469 8.94268 24.4958 8.99122C24.6418 9.03976 24.7878 9.08864 24.9337 9.08864H25.0312C25.1771 9.13719 25.372 9.13719 25.5179 9.13719C25.6639 9.13719 25.8099 9.13719 26.0047 9.08864H26.1022C26.2481 9.0401 26.3941 9.0401 26.5401 8.99122C26.5886 8.99122 26.5886 8.99122 26.5886 8.94268C26.7346 8.89413 26.832 8.84525 26.978 8.79671C26.978 8.79671 27.0265 8.79671 27.0265 8.74816C27.1725 8.69962 27.2699 8.60219 27.4159 8.50477C27.4644 8.50477 27.4644 8.45623 27.5133 8.45623C27.6107 8.3588 27.7567 8.26171 27.8541 8.16429L27.9027 8.11574C28.0001 8.01832 28.0972 7.92123 28.1461 7.82381L28.1946 7.77526C28.292 7.67784 28.3406 7.53187 28.438 7.3859C28.438 7.33736 28.4866 7.33736 28.4866 7.28847C28.5351 7.1425 28.584 7.04508 28.6325 6.89911V6.85056L36.1268 11.8631L28.6805 12.9827ZM24.1059 13.6643C24.0574 13.6158 24.0574 13.5184 24.0574 13.4698V13.3724V13.129C24.0574 12.3017 24.7387 11.6205 25.5659 11.6205C26.3932 11.6205 27.0744 12.3018 27.0744 13.129V13.2264L24.1059 13.6643ZM10.7717 18.336C10.7717 19.5527 9.79843 20.5259 8.5818 20.5259C7.36517 20.5259 6.39196 19.5527 6.39196 18.336V18.0441L10.5772 17.4113C10.6746 17.7033 10.7717 18.0441 10.7717 18.336ZM14.9569 11.8636H14.8594C14.8109 11.8636 14.762 11.815 14.7135 11.815C14.6649 11.815 14.6649 11.815 14.616 11.7665C14.5675 11.7179 14.5186 11.7179 14.4701 11.669C14.4701 11.669 14.4215 11.669 14.4215 11.6205C14.373 11.572 14.2756 11.5231 14.227 11.4745L16.125 10.3553L16.5143 10.1119C16.5143 10.1605 16.5143 10.1605 16.5629 10.2093V10.3068V10.5502C16.5629 11.28 15.979 11.9128 15.2002 11.9128C15.1028 11.9125 15.0543 11.8636 14.9569 11.8636ZM26.9772 5.87782V5.97525C26.9772 6.80251 26.2959 7.48378 25.4686 7.48378C24.6414 7.48378 23.9601 6.80248 23.9601 5.97525V5.73185L25.3712 4.90459L26.9772 5.87782ZM2.3039 34.8336V18.6768L4.63975 18.336V18.3845C4.63975 20.5259 6.39169 22.2778 8.53305 22.2778C10.6744 22.2778 12.4264 20.5259 12.4264 18.3845C12.4264 17.9951 12.3778 17.6058 12.2318 17.2164L23.7655 15.4645L27.7562 14.8806L37.3919 13.4206L37.3916 29.3828L2.3039 34.8336ZM30.8217 17.5088C28.7293 17.5088 27.0744 19.2123 27.0744 21.2561C27.0744 23.3485 28.7779 25.0034 30.8217 25.0034C32.8656 25.0034 34.569 23.3 34.569 21.2561C34.5687 19.2122 32.9142 17.5088 30.8217 17.5088ZM30.8217 23.3485C29.7025 23.3485 28.7293 22.4238 28.7293 21.2561C28.7293 20.1369 29.654 19.1637 30.8217 19.1637C31.9409 19.1637 32.9142 20.0884 32.9142 21.2561C32.9142 22.4238 31.9409 23.3485 30.8217 23.3485ZM16.6601 23.3974C14.9567 23.3974 13.5941 24.7601 13.5941 26.4634C13.5941 28.1668 14.9568 29.5294 16.6601 29.5294C18.3636 29.5294 19.7261 28.1668 19.7261 26.4634C19.7258 24.76 18.3632 23.3974 16.6601 23.3974ZM16.6601 27.8257C15.8814 27.8257 15.2975 27.193 15.2975 26.4631C15.2975 25.7332 15.9303 25.1005 16.6601 25.1005C17.39 25.1005 18.0228 25.7332 18.0228 26.4631C18.0228 27.1933 17.4389 27.8257 16.6601 27.8257Z" fill="#BBAB81" stroke="#E6DEC9" stroke-width="0.1"/>
</svg>
