<svg width="40" height="40" viewBox="0 0 40 40" fill="none" xmlns="http://www.w3.org/2000/svg">
<g clip-path="url(#clip0_289_1027)">
<path d="M14.5195 20.1113C14.5195 23.1185 16.987 25.5859 19.9941 25.5859C23.0013 25.5859 25.4687 23.1185 25.4687 20.1113C25.4687 17.1041 23.0013 14.6367 19.9941 14.6367C16.987 14.6367 14.5195 17.1041 14.5195 20.1113ZM19.9941 15.7933C22.3845 15.7933 24.3121 17.721 24.3121 20.1113C24.3121 22.5016 22.3845 24.4293 19.9941 24.4293C17.6038 24.4293 15.6761 22.5016 15.6761 20.1113C15.6761 17.721 17.6038 15.7933 19.9941 15.7933Z" fill="#BBAB81" stroke="#BBAB81" stroke-width="0.2"/>
<path d="M18.582 34.0349L20.8546 31.6738L21.688 32.4759L19.4154 34.8369L18.582 34.0349Z" fill="#BBAB81" stroke="#BBAB81" stroke-width="0.2"/>
<path d="M12.2969 28.4376L13.4121 28.1309L13.9746 30.1752L12.8593 30.4819L12.2969 28.4376Z" fill="#BBAB81" stroke="#BBAB81" stroke-width="0.2"/>
<path d="M8.125 28.9426L9.51328 27.1406L10.4296 27.8466L9.0413 29.6487L8.125 28.9426Z" fill="#BBAB81" stroke="#BBAB81" stroke-width="0.2"/>
<path d="M17.3711 27.5137H18.5277V29.6727H17.3711V27.5137Z" fill="#BBAB81" stroke="#BBAB81" stroke-width="0.2"/>
<path d="M24.3047 29.8608L24.6462 28.7559L27.8874 29.7575L27.5459 30.8625L24.3047 29.8608Z" fill="#BBAB81" stroke="#BBAB81" stroke-width="0.2"/>
<path d="M28.082 26.0756L28.5526 23.8105L29.6851 24.0457L29.2146 26.3107L28.082 26.0756Z" fill="#BBAB81" stroke="#BBAB81" stroke-width="0.2"/>
<path d="M9.8125 21.3607L12.7164 20.7441L12.9567 21.8756L10.0528 22.4921L9.8125 21.3607Z" fill="#BBAB81" stroke="#BBAB81" stroke-width="0.2"/>
<path d="M11.9609 24.4093L12.6315 23.4668L14.1709 24.5622L13.5003 25.5046L11.9609 24.4093Z" fill="#BBAB81" stroke="#BBAB81" stroke-width="0.2"/>
<path d="M7.11719 24.5078H8.27379V26.5512H7.11719V24.5078Z" fill="#BBAB81" stroke="#BBAB81" stroke-width="0.2"/>
<path d="M4.49219 21.9919L6.42401 19.7383L7.30213 20.4911L5.37031 22.7448L4.49219 21.9919Z" fill="#BBAB81" stroke="#BBAB81" stroke-width="0.2"/>
<path d="M5.29297 17.6348L5.52601 16.502L8.66017 17.1463L8.42713 18.2792L5.29297 17.6348Z" fill="#BBAB81" stroke="#BBAB81" stroke-width="0.2"/>
<path d="M9.55078 15.1114L10.4 14.3262L11.8396 15.8831L10.9903 16.6683L9.55078 15.1114Z" fill="#BBAB81" stroke="#BBAB81" stroke-width="0.2"/>
<path d="M7.35156 11.4415L8.92816 10.332L9.5939 11.2779L8.0173 12.3874L7.35156 11.4415Z" fill="#BBAB81" stroke="#BBAB81" stroke-width="0.2"/>
<path d="M13.9297 9.93755L16.1534 9.70312L16.2745 10.8536L14.0509 11.088L13.9297 9.93755Z" fill="#BBAB81" stroke="#BBAB81" stroke-width="0.2"/>
<path d="M13.4141 13.8601L14.5115 13.4941L15.0113 14.9936L13.9139 15.3595L13.4141 13.8601Z" fill="#BBAB81" stroke="#BBAB81" stroke-width="0.2"/>
<path d="M13.1836 32.7376L15.8661 31.5586L16.3315 32.6175L13.649 33.7965L13.1836 32.7376Z" fill="#BBAB81" stroke="#BBAB81" stroke-width="0.2"/>
<path d="M23.5742 33.0129L24.5466 32.3867L25.6736 34.1371L24.7012 34.7632L23.5742 33.0129Z" fill="#BBAB81" stroke="#BBAB81" stroke-width="0.2"/>
<path d="M20.8359 28.1923L22.7667 26.1445L23.6083 26.938L21.6776 28.9858L20.8359 28.1923Z" fill="#BBAB81" stroke="#BBAB81" stroke-width="0.2"/>
<path d="M29.8125 30.0559L30.8645 28.0391L31.89 28.574L30.838 30.5908L29.8125 30.0559Z" fill="#BBAB81" stroke="#BBAB81" stroke-width="0.2"/>
<path d="M31.7344 24.3379L32.5836 23.5527L34.0232 25.1097L33.1739 25.8949L31.7344 24.3379Z" fill="#BBAB81" stroke="#BBAB81" stroke-width="0.2"/>
<path d="M28.0938 19.5332H30.8696V20.6898H28.0938V19.5332Z" fill="#BBAB81" stroke="#BBAB81" stroke-width="0.2"/>
<path d="M16.9492 12.2615L19.0401 9.99414L19.8903 10.7783L17.7995 13.0457L16.9492 12.2615Z" fill="#BBAB81" stroke="#BBAB81" stroke-width="0.2"/>
<path d="M10.9375 7.46217L11.8931 6.81055L12.7836 8.11652L11.828 8.76814L10.9375 7.46217Z" fill="#BBAB81" stroke="#BBAB81" stroke-width="0.2"/>
<path d="M15.1328 5.46488L17.0578 4.18164L17.6994 5.14411L15.7745 6.42735L15.1328 5.46488Z" fill="#BBAB81" stroke="#BBAB81" stroke-width="0.2"/>
<path d="M20.1289 4.69051L21.2831 4.61719L21.4005 6.46397L20.2463 6.53729L20.1289 4.69051Z" fill="#BBAB81" stroke="#BBAB81" stroke-width="0.2"/>
<path d="M34.7217 17.9913L34.4904 17.6443L34.1048 17.7214C33.835 17.76 33.5651 17.76 33.2952 17.76C31.406 17.76 29.6712 16.7576 28.7844 15.0998L28.6302 14.7913H28.2832C28.1675 14.7913 28.0904 14.7913 27.9748 14.8299H27.8591C24.8519 14.8299 22.3845 12.3625 22.3845 9.35529C22.3845 8.16017 22.7701 7.04208 23.464 6.03969L23.6953 5.73126L23.5026 5.38427C23.117 4.76742 22.9243 3.99635 22.9243 3.22528C22.9243 2.80119 23.0014 2.3771 23.1556 1.87595L23.3484 1.22054L22.6929 1.10488C21.8448 0.989217 20.958 0.912109 20.0327 0.912109C9.50737 0.912109 0.910156 9.47099 0.910156 20.0347C0.910156 30.5983 9.46904 39.1572 20.0327 39.1572C30.1333 39.1572 38.4996 31.2537 39.0777 21.1908L39.1163 20.6896L38.6151 20.574C36.9958 20.3041 35.6464 19.3789 34.7211 17.9909L34.7217 17.9913ZM20.0326 38.0779C10.1241 38.0779 2.06619 30.0202 2.06619 20.1115C2.06619 10.2029 10.1239 2.14516 20.0326 2.14516C20.6494 2.14516 21.2663 2.18372 21.8831 2.26082C21.806 2.6078 21.7675 2.95479 21.7675 3.26321C21.7675 4.11139 21.9603 4.95957 22.3458 5.69204C21.6133 6.81014 21.2277 8.08236 21.2277 9.35458C21.2277 13.0171 24.1964 15.9858 27.8589 15.9858H27.9746C29.1312 17.7978 31.1359 18.9159 33.3335 18.9159H33.9889C34.9527 20.2652 36.3407 21.2291 37.9213 21.6531C37.1117 30.906 29.3624 38.0774 20.0325 38.0774L20.0326 38.0779Z" fill="#BBAB81" stroke="#BBAB81" stroke-width="0.2"/>
</g>
<defs>
<clipPath id="clip0_289_1027">
<rect width="40" height="40" fill="white"/>
</clipPath>
</defs>
</svg>
