<svg width="21" height="21" viewBox="0 0 21 21" fill="none" xmlns="http://www.w3.org/2000/svg">
<path d="M10.4439 6.18359C7.85127 6.18359 5.70312 8.2947 5.70312 10.9243C5.70312 13.554 7.81424 15.6651 10.4439 15.6651C13.0735 15.6651 15.1846 13.5169 15.1846 10.9243C15.1846 8.33174 13.0365 6.18359 10.4439 6.18359ZM10.4439 13.9614C8.7772 13.9614 7.40683 12.591 7.40683 10.9243C7.40683 9.25767 8.7772 7.8873 10.4439 7.8873C12.1105 7.8873 13.4809 9.25767 13.4809 10.9243C13.4809 12.591 12.1105 13.9614 10.4439 13.9614Z" fill="url(#paint0_linear_619_1340)"/>
<path d="M15.3709 7.14815C15.9641 7.14815 16.445 6.66727 16.445 6.07407C16.445 5.48088 15.9641 5 15.3709 5C14.7778 5 14.2969 5.48088 14.2969 6.07407C14.2969 6.66727 14.7778 7.14815 15.3709 7.14815Z" fill="url(#paint1_linear_619_1340)"/>
<path d="M18.1467 3.29586C17.1837 2.29586 15.8134 1.77734 14.2578 1.77734H6.62818C3.40596 1.77734 1.25781 3.92549 1.25781 7.14771V14.7403C1.25781 16.3329 1.77633 17.7033 2.81337 18.7033C3.81337 19.6662 5.1467 20.1477 6.66522 20.1477H14.2208C15.8134 20.1477 17.1467 19.6292 18.1097 18.7033C19.1097 17.7403 19.6282 16.3699 19.6282 14.7773V7.14771C19.6282 5.59216 19.1097 4.25882 18.1467 3.29586ZM17.9986 14.7773C17.9986 15.9255 17.5911 16.8514 16.9245 17.481C16.2578 18.1107 15.3319 18.444 14.2208 18.444H6.66522C5.55411 18.444 4.62818 18.1107 3.96152 17.481C3.29485 16.8144 2.96152 15.8885 2.96152 14.7403V7.14771C2.96152 6.0366 3.29485 5.11068 3.96152 4.44401C4.59115 3.81438 5.55411 3.48105 6.66522 3.48105H14.2948C15.406 3.48105 16.3319 3.81438 16.9986 4.48105C17.6282 5.14771 17.9986 6.07364 17.9986 7.14771V14.7773Z" fill="url(#paint2_linear_619_1340)"/>
<defs>
<linearGradient id="paint0_linear_619_1340" x1="10.4439" y1="6.18359" x2="10.4439" y2="15.6651" gradientUnits="userSpaceOnUse">
<stop stop-color="#FAE79F"/>
<stop offset="0.520833" stop-color="#DDB97B"/>
<stop offset="1" stop-color="#C6975A"/>
</linearGradient>
<linearGradient id="paint1_linear_619_1340" x1="15.3709" y1="5" x2="15.3709" y2="7.14815" gradientUnits="userSpaceOnUse">
<stop stop-color="#FAE79F"/>
<stop offset="0.520833" stop-color="#DDB97B"/>
<stop offset="1" stop-color="#C6975A"/>
</linearGradient>
<linearGradient id="paint2_linear_619_1340" x1="10.443" y1="1.77734" x2="10.443" y2="20.1477" gradientUnits="userSpaceOnUse">
<stop stop-color="#FAE79F"/>
<stop offset="0.520833" stop-color="#DDB97B"/>
<stop offset="1" stop-color="#C6975A"/>
</linearGradient>
</defs>
</svg>
