<svg width="389" height="108" viewBox="0 0 389 108" fill="none" xmlns="http://www.w3.org/2000/svg">
<path d="M29.9899 2.75367C22.483 5.89757 14.2304 14.7795 11.624 25.9282C8.32315 40.0541 22.0595 46.0275 23.1862 44.0689C24.5123 41.7675 20.7248 40.9892 19.9452 33.6601C18.9376 24.1939 23.3361 13.6164 28.8719 8.97536C29.9009 8.11309 29.8519 9.31322 29.8519 11.5331C29.8519 15.5028 29.6327 51.1386 29.6327 58.5758C29.6327 68.6393 29.2173 71.8172 28.4711 74.9574C27.7151 78.1396 26.4997 80.2898 27.4207 81.118C28.4496 82.0445 32.8429 79.8408 35.3862 76.2893C38.436 72.0298 39.5036 66.9144 39.6953 61.3592C39.9268 54.6625 39.9169 44.0363 39.9268 37.9752C39.936 32.4163 40.0203 16.1385 39.8294 6.35294C39.7826 3.95273 33.1294 1.43456 29.9896 2.75075M296.56 49.8502C296.318 55.0819 295.16 59.1713 293.724 62.0557C290.943 67.6398 285.172 69.3737 282.721 61.3464C281.386 56.9707 281.324 49.6628 282.284 43.5566C283.261 37.3361 285.99 32.6382 290.508 33.0619C294.965 33.4807 297.051 39.2264 296.56 49.8502ZM221.429 82.3094C221.369 91.0023 220.001 98.6242 217.069 100.838C212.91 103.977 207.32 101.622 208.478 95.279C209.502 89.6657 214.345 83.9332 221.441 76.9289C221.441 76.9289 221.456 78.5262 221.429 82.3094ZM220.293 49.7995C220.039 54.5646 218.804 59.3516 217.457 62.0564C214.677 67.6404 208.864 69.3861 206.455 61.347C204.808 55.8544 205.203 48.7455 206.017 44.2663C207.075 38.4547 209.638 33.0632 214.242 33.0632C218.717 33.0632 220.924 37.9757 220.293 49.7995ZM176.77 49.7266C176.497 54.7734 175.513 58.9921 173.934 62.0564C171.077 67.602 165.425 69.3608 162.932 61.347C161.135 55.5685 161.747 47.6894 162.494 43.433C163.604 37.1169 166.382 32.6389 170.718 33.0632C175.173 33.4986 177.339 39.2264 176.77 49.7266ZM376.227 55.6214C375.138 55.6214 374.641 56.7445 374.23 58.635C372.804 65.2081 371.305 66.6923 369.372 66.6923C367.213 66.6923 365.272 63.4376 364.774 56.9222C364.382 51.799 364.445 42.367 364.946 32.9848C365.048 31.0571 364.517 29.1498 359.349 27.2715C357.125 26.4635 353.893 25.2739 352.284 29.1609C347.736 40.1422 345.957 48.8605 345.538 52.4022C345.517 52.5855 345.292 52.6229 345.253 52.1946C344.986 49.358 344.39 44.2033 344.316 33.3733C344.301 31.2603 343.854 29.4617 341.523 27.9892C340.01 27.0337 335.417 25.3438 333.763 27.3542C332.33 28.9984 330.671 33.4233 328.947 38.6685C327.545 42.9316 326.569 45.8155 326.569 45.8155C326.569 45.8155 326.588 34.3128 326.605 29.9496C326.612 28.3036 325.483 27.7551 325.143 27.6557C323.612 27.2109 320.594 26.4679 319.313 26.4679C317.733 26.4679 317.346 27.3518 317.346 28.6396C317.346 28.8082 317.096 43.784 317.096 54.2557C317.096 54.7106 317.096 55.2069 317.101 55.734C316.227 60.547 313.392 67.0804 310.309 67.0804C307.222 67.0804 305.766 64.349 305.766 51.865C305.766 44.5822 305.984 41.4155 306.092 36.1481C306.154 33.1141 306.275 30.7843 306.268 30.2556C306.245 28.6343 303.443 27.8171 302.139 27.5151C300.829 27.2105 299.691 27.0926 298.802 27.1432C297.544 27.2142 296.653 28.0401 296.653 29.1759C296.653 29.7849 296.66 30.9431 296.66 30.9431C295.04 28.3952 292.433 26.6219 290.699 26.108C286.028 24.7202 281.155 25.9499 277.478 31.0969C274.556 35.1864 272.795 39.8182 272.102 46.4729C271.595 51.3379 271.76 56.2714 272.661 60.4437C271.573 65.1516 269.552 67.0804 267.34 67.0804C264.128 67.0804 261.799 61.8349 262.069 52.7631C262.248 46.7962 263.441 42.6088 264.746 36.5508C265.302 33.9683 264.85 32.6163 263.717 31.3204C262.677 30.1321 260.462 29.5249 257.278 30.2717C255.01 30.8041 251.767 31.3766 248.8 31.8164C248.8 31.8164 248.979 31.1018 249.126 29.8418C249.897 23.2341 242.721 23.7702 240.431 25.8807C239.064 27.1408 238.134 28.6268 237.781 31.2988C237.221 35.5391 240.677 37.5391 240.677 37.5391C239.543 42.7329 236.763 49.5179 233.893 54.4234C232.356 57.0516 231.18 58.9991 229.662 61.0694C229.657 60.2985 229.652 59.5277 229.65 58.7604C229.615 47.8408 229.76 39.2467 229.824 36.1491C229.887 33.1152 230.008 30.8471 230.001 30.3184C229.984 29.1325 229.292 28.6847 227.853 28.1177C226.58 27.6162 225.074 27.269 223.513 27.148C221.543 26.9942 220.356 28.0399 220.386 29.2764C220.392 29.5099 220.392 30.9435 220.392 30.9435C218.772 28.3956 216.165 26.6224 214.431 26.1084C209.76 24.7212 204.887 25.951 201.21 31.0973C198.289 35.1868 196.376 40.9255 195.834 46.4226C195.329 51.5461 195.422 55.9 196.111 59.5676C195.368 63.2403 193.232 67.0809 190.818 67.0809C187.731 67.0809 185.975 64.3494 185.975 51.8655C185.975 44.5827 186.193 41.4159 186.301 36.1491C186.363 33.1152 186.484 30.7848 186.477 30.2567C186.454 28.6353 183.652 27.8181 182.348 27.5155C180.984 27.1999 179.806 27.0838 178.901 27.1504C177.708 27.2394 176.869 28.3086 176.869 29.106V30.9435C175.249 28.3956 172.642 26.6224 170.908 26.1084C166.237 24.7212 161.391 25.9707 157.687 31.0973C155.272 34.4401 153.317 38.146 152.311 46.3498C152.02 48.7205 151.892 50.9405 151.908 53.0156C150.945 58.9082 146.692 65.6998 143.212 65.6998C141.176 65.6998 139.237 61.7487 139.237 53.3281C139.237 42.1114 139.931 26.1412 140.048 24.602C140.048 24.602 144.445 24.5273 145.296 24.5174C147.489 24.4933 149.475 24.5452 152.395 24.3957C153.86 24.321 155.271 19.061 153.76 18.41C153.074 18.1153 148.231 17.8572 146.311 17.8164C144.697 17.7798 140.203 17.447 140.203 17.447C140.203 17.447 140.606 6.84676 140.7 5.72697C140.779 4.79368 139.572 4.31316 138.88 4.02158C137.198 3.30944 135.692 2.96847 133.907 2.60035C131.441 2.09143 130.323 2.58923 130.104 4.67136C129.775 7.83134 129.605 17.0869 129.605 17.0869C127.795 17.0869 121.615 16.733 119.805 16.733C118.123 16.733 116.308 23.9689 118.633 24.0578C121.308 24.1616 125.969 24.2512 129.06 24.3444C129.06 24.3444 128.922 40.5777 128.922 45.5894C128.922 46.1226 128.927 46.6361 128.928 47.1343C127.227 56.0039 121.236 60.7951 121.236 60.7951C122.523 54.9273 119.895 50.5209 115.161 46.7909C113.417 45.4164 109.974 42.8142 106.122 39.9627C106.122 39.9627 108.353 37.7626 110.332 33.3364C111.733 30.2012 111.794 26.6132 108.353 25.822C102.667 24.5138 97.9791 28.6916 96.5808 33.1518C95.4974 36.6069 96.0753 39.1708 98.1977 41.8342C98.3526 42.0288 98.5205 42.2276 98.694 42.4277C97.4105 44.9028 95.6474 48.2351 94.1541 50.8193C90.0092 57.994 86.8781 63.669 84.5118 63.669C82.6202 63.669 82.6456 57.9074 82.6456 52.5129C82.6456 47.8624 82.9888 40.8706 83.2629 33.6317C83.3537 31.2376 82.1572 29.8738 80.1515 28.6385C78.9329 27.8881 76.332 26.4125 74.8257 26.4125C72.5711 26.4125 66.0663 26.7194 59.92 44.5074C59.1454 46.7494 57.6238 50.8347 57.6238 50.8347L57.7547 29.4439C57.7547 28.9424 57.4877 28.4575 56.8765 28.1258C55.8408 27.5632 53.0745 26.4125 50.6148 26.4125C49.4428 26.4125 48.858 26.9579 48.858 28.0449L48.6434 61.511C48.6434 64.0537 48.7097 67.0201 48.961 68.3176C49.2113 69.6166 49.6169 70.6734 50.1192 71.3021C50.6208 71.9297 51.201 72.4084 52.1576 72.6059C53.048 72.7893 57.9233 73.4157 58.1767 71.5516C58.4803 69.3177 58.4919 66.9013 61.052 57.8896C65.0374 43.8595 70.2337 37.014 72.6765 34.5829C73.1036 34.1579 73.5913 34.1326 73.5678 34.8281C73.4635 37.904 73.0968 45.5902 72.8499 52.1201C72.1882 69.5949 75.3655 72.8339 79.9061 72.8339C83.3799 72.8339 88.2767 69.3805 93.5259 60.6388C96.7985 55.1911 99.9759 49.8496 102.259 45.9997C103.85 47.4732 105.635 49.0591 107.419 50.7532C111.565 54.6903 112.926 58.4314 112.023 61.9804C111.333 64.6936 108.731 67.4896 104.101 64.7719C102.751 63.9791 102.175 63.3665 100.819 62.4727C100.09 61.9925 98.9764 61.8489 98.3091 62.352C96.5756 63.6597 95.5841 65.323 95.0181 67.3823C94.4674 69.386 96.4731 70.4453 98.5523 71.3718C100.343 72.1692 104.19 72.8917 106.644 72.974C116.206 73.2939 123.865 68.3551 129.197 55.6153C130.152 66.6177 134.214 72.8437 141.271 72.8437C145.989 72.8437 150.72 66.7417 152.789 60.7388C153.383 63.1858 154.262 65.3136 155.397 67.113C160.835 75.7337 171.385 73.8783 176.684 66.5579C178.323 64.296 178.572 63.4831 178.572 63.4831C179.345 70.3953 184.909 72.8104 188.094 72.8104C191.662 72.8104 195.345 71.1229 197.927 65.3077C198.23 65.9388 198.56 66.5415 198.92 67.1128C204.358 75.7335 214.908 73.8781 220.207 66.5577C220.457 66.2143 220.674 65.9028 220.864 65.6233L221.019 70.1635C221.019 70.1635 217.996 72.9382 216.14 74.6403C207.973 82.1375 201.763 87.8255 201.306 94.4493C200.719 102.895 207.566 106.034 212.745 106.445C218.246 106.882 222.956 103.842 225.851 99.5876C228.398 95.8428 230.065 87.7829 229.942 79.8225C229.894 76.6348 229.813 72.5817 229.75 68.2371C232.621 64.9017 235.855 60.6862 238.833 55.7517C242.079 50.3742 245.557 43.1527 247.338 37.5326C247.338 37.5326 250.36 37.5586 253.585 37.3473C254.616 37.28 254.913 37.4906 254.722 38.2473C254.492 39.1614 250.647 53.9963 254.156 63.8789C256.557 70.6441 261.971 72.8207 265.18 72.8207C268.937 72.8207 272.531 69.9819 274.458 65.7664C274.69 66.2364 274.932 66.6912 275.197 67.111C280.635 75.7317 291.148 73.8651 296.484 66.5559C297.689 64.9068 298.372 63.4811 298.372 63.4811C299.517 70.6348 305.078 72.8448 308.263 72.8448C311.58 72.8448 314.729 71.484 317.283 65.4366C317.39 68.0993 317.558 70.2765 317.823 70.963C317.985 71.3827 318.928 71.9097 319.614 72.1642C322.648 73.2902 325.744 72.7578 326.889 72.5262C327.682 72.3655 328.301 71.7288 328.385 70.0845C328.608 65.7671 328.471 58.5132 329.779 53.1223C331.975 44.0748 334.024 40.5653 334.995 38.8279C335.539 37.8544 336.153 37.6938 336.175 38.7241C336.221 40.8087 336.324 46.9303 337.175 55.1551C337.8 61.2041 338.635 64.7794 339.276 65.911C341.106 69.1469 343.367 69.3001 345.208 69.3001C346.379 69.3001 348.828 68.9763 348.609 66.9171C348.502 65.9134 348.689 59.7102 350.854 50.7968C352.268 44.976 354.625 39.7166 355.475 37.7938C355.789 37.0848 355.934 37.6437 355.929 37.7526C355.75 41.7612 355.348 54.8729 356.981 62.0439C359.193 71.7585 365.594 72.8455 367.824 72.8455C372.586 72.8455 376.48 69.2216 377.792 59.6863C378.108 57.3916 377.64 55.6197 376.238 55.6197" fill="white"/>
</svg>
