<svg width="194" height="118" viewBox="0 0 194 118" fill="none" xmlns="http://www.w3.org/2000/svg">
<g clip-path="url(#clip0_392_15)">
<path d="M130.308 50.1695C130.529 50.1695 130.943 50.142 131.164 50.142C131.523 51.1078 131.026 52.0737 130.943 53.0395C130.778 53.7846 130.722 54.7229 129.977 55.1368C128.956 55.7439 127.438 54.7229 127.852 53.5363C128.322 52.1841 129.508 51.301 130.308 50.1695ZM49.1486 77.1861C43.657 79.0074 38.1654 80.8563 32.8393 83.064C32.591 84.8577 32.5358 86.7067 31.8459 88.39C31.2939 89.5491 29.3898 89.5491 28.9759 88.2797C28.6723 87.0102 29.2794 85.7684 29.5002 84.5266C28.424 85.0509 27.2925 85.4925 26.1887 85.9892C23.2911 87.231 20.6143 88.8868 17.8823 90.4321C13.5221 92.9434 9.4103 96.0893 6.37474 100.146C4.69138 102.436 3.03562 105.03 2.98043 107.983C3.1736 109.694 4.08427 111.295 5.38128 112.399C8.14088 114.358 11.7284 114.165 14.9295 113.778C20.8351 112.813 26.3819 110.246 31.3767 106.99C39.8487 101.526 47.1893 94.406 53.4535 86.5135C56.9582 82.1533 60.187 77.5724 63.0846 72.7983C58.4208 74.1781 53.7847 75.7235 49.1486 77.1861ZM85.1062 66.8651C84.1127 68.1621 83.616 69.7075 82.9537 71.1701C82.5949 72.3016 81.9878 73.7641 83.0089 74.73C83.9195 74.73 84.6922 74.2885 85.4097 73.7917C87.4794 72.4395 88.9972 70.4802 90.4046 68.4933C89.0248 68.4657 87.6726 68.1622 86.4584 67.4723C86.0168 67.3067 85.6305 66.8927 85.1062 66.8651ZM86.1824 55.5784C84.6094 57.8136 83.5056 60.6284 84.0299 63.388C84.8578 62.3946 85.6857 60.7388 87.2311 61.1528C87.4518 61.7047 87.7278 62.2842 87.5622 62.8913C87.3139 64.2435 86.1548 65.1266 85.6029 66.3408C87.3967 65.8717 89.1628 65.4301 90.9565 65.0162C91.2049 64.9058 91.4257 65.099 91.5636 65.2922C89.7423 65.6509 87.9486 66.1752 86.1548 66.6444C87.5622 67.4723 89.2732 68.0242 90.9013 67.693C91.7292 66.5616 92.2259 65.237 92.8055 63.9952C93.8541 61.5943 94.544 58.9175 93.9921 56.2959C93.6609 54.7505 92.4467 53.3431 90.8462 53.0947C88.9144 52.7912 87.2587 54.1434 86.1824 55.5784ZM186.135 16.1713C182.575 19.1516 180.506 23.429 178.574 27.5684C175.787 33.6947 174.048 40.235 173.11 46.8856C173.993 45.2851 175.152 43.8225 176.063 42.2495C178.712 37.7789 181.168 33.198 183.541 28.5895C185.418 24.7812 187.322 20.9454 188.481 16.8612C188.674 16.254 188.564 15.6469 188.481 15.0398C187.57 14.9018 186.825 15.5917 186.135 16.1713ZM35.8749 4.96727C42.1944 1.79373 49.2038 -0.275969 56.3235 0.0827788C61.8979 0.275951 67.5275 2.34565 71.5013 6.34707C75.1992 9.93456 77.3241 14.7915 78.4555 19.7311C79.5318 24.6432 79.6146 29.7485 79.2558 34.7434C78.5383 45.6162 75.0336 56.1303 70.2319 65.8717C69.404 67.555 68.4382 69.1556 67.6379 70.839C72.1636 69.5696 76.7722 68.5209 81.3531 67.3343C82.0982 66.2304 82.6501 65.0162 83.5056 64.0228C82.9261 61.7875 83.478 59.4142 84.4715 57.3721C85.3545 55.606 86.5412 53.895 88.3073 52.9567C89.7699 52.1289 91.7292 52.1565 93.1366 53.1223C94.7372 54.3641 95.3443 56.5442 95.2615 58.5035C95.2063 61.6771 94.0197 64.7126 92.7503 67.5826C95.9514 67.0031 98.9594 65.5129 101.691 63.7744C101.664 57.6205 103.32 51.6045 105.527 45.9198C106.521 43.1878 107.873 40.6213 109.004 37.9721C106.714 38.3309 104.396 38.2757 102.078 38.524C101.139 38.6344 99.7045 38.4688 99.3733 39.6279C98.2695 39.3795 99.125 38.3033 99.8149 38.2757C102.988 37.4478 106.328 37.641 109.529 37.1442C110.081 36.3439 110.743 35.4333 111.736 35.2125C112.592 35.2401 112.481 36.2888 112.647 36.8683C114.993 36.6199 117.338 36.1508 119.601 35.4333C120.788 35.1021 121.947 34.6882 123.189 34.6054C123.161 34.7434 123.133 34.9917 123.106 35.1021C119.684 36.5923 115.986 37.365 112.288 37.7513C109.611 43.6569 106.962 49.6728 105.5 56.0199C104.699 59.7178 104.092 63.6916 105.334 67.3619C105.831 69.0452 106.935 70.7286 108.673 71.3357C110.522 72.0532 112.564 71.5289 114.33 70.839C118.028 69.2108 121.174 66.4788 123.63 63.2777C125.148 61.4011 125.7 58.9727 127.107 57.041C128.266 56.1579 129.867 57.6481 129.287 58.9175C128.046 61.4011 126.887 64.0228 126.528 66.81C126.362 68.0242 126.638 69.7627 128.073 70.0387C130.281 70.287 132.268 68.9624 134.117 67.9414C138.339 65.2922 142.285 62.1186 145.845 58.6139C145.21 57.5929 145.128 56.3511 145.403 55.192C145.817 53.5363 146.783 52.0461 147.942 50.8319C149.184 49.6452 150.785 48.6518 152.551 48.707C153.903 48.7346 154.869 49.9764 155.172 51.1906C155.393 52.6256 155.2 54.171 154.455 55.4404C153.848 56.489 153.489 57.7033 152.523 58.4759C152.358 56.5994 153.544 54.9989 154.51 53.5087C154.731 52.3496 154.648 50.9974 153.875 50.0592C153.296 49.3417 152.247 49.3693 151.447 49.6728C149.57 50.4179 148.246 52.0461 147.363 53.8122C146.838 54.9437 146.673 56.4338 147.528 57.4549C148.881 58.8623 151.061 59.1107 152.358 60.6284C153.379 61.6771 153.71 63.1949 153.544 64.6023C158.015 60.8768 163.148 57.9792 168.612 55.9923C169.633 49.6452 171.233 43.3809 173.331 37.2822C174.986 32.3149 177.111 27.4856 179.678 22.9323C181.333 20.1175 183.32 17.4131 185.914 15.3986C186.632 14.8191 187.515 14.1016 188.508 14.2671C189.612 14.6811 189.474 16.1437 189.226 17.0819C188.315 20.3383 186.88 23.429 185.556 26.5198C183.293 31.1007 180.837 35.5713 178.27 39.9866C176.559 42.8014 174.876 45.6438 172.862 48.2654C172.53 52.0185 171.896 55.7439 171.84 59.497C173.662 56.9582 175.235 54.1434 177.58 52.0185C178.767 50.887 180.588 50.0592 182.161 50.9974C182.465 51.6321 182.768 52.2668 182.741 52.9843C182.741 55.4404 181.968 57.8412 181.333 60.1869C180.892 61.7047 180.202 63.388 180.892 64.9334C181.058 65.0162 181.389 65.1818 181.527 65.2646C183.155 64.961 184.452 63.8848 185.694 62.8637C188.564 60.2697 191.13 57.2893 193.117 53.9226C193.227 53.5639 193.614 53.7018 193.89 53.7294C191.599 58.0068 188.426 61.8151 184.617 64.7954C183.348 65.7061 181.665 66.9479 180.092 66.0097C179.209 63.9676 179.954 61.7323 180.533 59.7178C181.113 57.3445 181.913 54.8885 181.527 52.4048C181.444 51.6321 180.588 51.1354 179.871 51.5218C177.774 52.4048 176.642 54.5297 175.456 56.3235C173.965 58.5311 172.751 60.9596 171.758 63.4432C171.509 63.9952 171.454 64.6851 171.013 65.1266C170.267 65.6509 169.191 65.7613 168.419 65.2094C168.087 64.8782 168.143 64.4091 168.087 63.9952C167.922 61.4287 168.225 58.8623 168.474 56.2959C163.948 58.2 159.643 60.6284 155.669 63.5536C154.841 64.1883 153.986 64.823 153.268 65.5957C152.109 68.7141 150.343 71.7496 147.639 73.7641C147.032 74.2057 146.066 74.7576 145.431 74.0953C144.824 73.571 145.128 72.7155 145.486 72.136C146.921 69.7351 149.377 68.0242 150.288 65.3198C150.647 64.2711 150.95 62.8913 150.012 62.0634C148.743 60.9872 147.087 60.3525 146.066 58.9727C145.265 59.497 144.686 60.2697 143.941 60.9044C141.292 63.2501 138.56 65.5681 135.552 67.4447C133.758 68.1898 132.295 69.4592 130.529 70.2319C129.287 70.7286 127.963 71.1977 126.583 71.0597C125.396 71.0045 124.237 70.2043 123.906 69.0452C123.244 67.2239 123.741 65.2922 124.017 63.4708C121.726 67.1135 118.277 70.0387 114.33 71.6944C111.681 72.7983 108.48 73.295 105.803 71.998C102.988 70.563 101.802 67.2515 101.719 64.2711C101.167 64.3815 100.726 64.6851 100.256 64.9886C97.8003 66.4788 95.0959 67.693 92.2535 68.2173C91.0945 70.4526 89.6319 72.5499 87.8658 74.3713C86.3756 75.8614 84.5543 77.2136 82.4018 77.5172C80.9668 77.6552 79.6422 76.6065 79.4214 75.1715C79.035 72.6603 79.8353 70.1215 80.9668 67.8862C76.6066 68.9624 72.2464 70.1215 67.9139 71.3081C67.6103 71.4185 67.2516 71.4737 66.9756 71.6669C62.8362 78.897 58.0069 85.7684 52.5429 92.0879C49.7557 95.2615 46.8305 98.297 43.7673 101.195C38.1654 106.189 31.9838 110.577 25.1676 113.778C21.1662 115.489 16.9164 116.676 12.5838 117.007C9.85184 117.173 6.95426 116.842 4.63619 115.324C2.12495 113.778 0.331212 110.881 0.634768 107.873C0.855536 104.727 2.5113 101.884 4.41542 99.4284C6.26435 97.1104 8.44444 95.0683 10.7901 93.3021C13.3013 91.398 16.0885 89.963 18.7654 88.3624C22.2149 86.3479 25.8023 84.5542 29.5554 83.1192C30.7696 77.2412 31.6803 71.2805 33.0601 65.4301C33.7224 62.6154 34.4399 59.8282 35.4885 57.1237C35.8749 56.0751 37.3927 56.4063 37.917 57.1789C38.4137 57.7033 37.9998 58.4484 37.8894 59.0555C36.0956 66.534 34.5227 74.0953 33.1153 81.6566C43.0774 77.876 53.3708 74.9784 63.5537 71.8324C68.7693 62.9465 73.2123 53.4535 75.42 43.3257C76.0547 40.1246 76.6066 36.8683 76.855 33.6119C77.4897 28.0099 77.3793 22.2424 75.8891 16.7784C74.4817 11.6455 71.1978 6.92659 66.5065 4.27737C63.057 2.20767 59.0279 1.43498 55.0541 1.297C47.41 1.15902 39.9591 3.80824 33.4188 7.64409C28.3412 10.6245 23.705 14.3499 19.5656 18.5445C14.0188 24.2569 9.16193 30.7695 5.9056 38.0825C3.00802 44.7331 1.43505 52.0737 1.98697 59.3314C2.42851 64.4367 3.8911 69.5696 6.98185 73.709C8.63761 76.0822 10.4865 78.2623 12.1975 80.5804C13.4669 82.3189 14.8467 84.0299 15.785 85.9892C14.9295 85.934 14.4328 85.0785 13.8257 84.5542C10.6245 81.1047 7.61656 77.462 5.05013 73.5158C1.26948 67.3067 -0.0275382 59.8282 0.60717 52.6532C1.62822 40.8421 7.58896 29.9969 15.2607 21.1661C21.1662 14.6259 28.0376 8.9135 35.8749 4.96727Z" fill="white"/>
<path d="M130.613 77.2594C132.379 76.4867 133.87 75.2173 135.636 74.4722C135.498 74.9689 135.056 75.2173 134.67 75.4932C133.428 76.3487 132.324 77.3973 131.193 78.3632C129.813 79.5774 128.516 80.9572 127.743 82.6406C127.357 83.5237 126.667 84.3515 126.695 85.3726C126.667 85.8417 126.722 86.3109 126.777 86.78C127.881 85.8693 128.35 84.4619 128.82 83.1649C129.234 83.4409 129.372 83.8272 129.178 84.2688C128.764 85.483 128.13 86.6144 127.523 87.7183C127.164 87.7459 126.833 87.7459 126.474 87.7735C125.536 86.2833 125.977 84.4343 126.722 82.9441C127.523 80.902 128.93 79.1083 130.641 77.7285L130.613 77.2594Z" fill="#959597"/>
<path d="M58.808 93.3203C59.1116 92.2717 59.9946 91.5542 60.6845 90.7539C61.3468 90.6987 61.7056 91.4162 61.7884 91.9681C62.0643 93.4583 61.5676 94.9485 61.2089 96.3835C60.5742 98.8671 59.3599 101.158 58.5045 103.558C57.3178 105.187 56.6279 107.063 55.7724 108.857C55.4137 109.602 55.2481 110.789 54.1719 110.678C54.1719 110.513 54.1719 110.209 54.1719 110.044C54.4202 109.906 54.6686 109.795 54.917 109.657C55.4137 108.415 56.0484 107.229 56.4623 105.959C56.9867 104.359 58.0353 102.979 58.4217 101.323C58.67 100.164 59.3599 99.1707 59.6359 98.0117C60.4638 96.1627 61.0985 93.9827 60.4638 91.9957C59.8015 92.5477 59.4979 93.3203 59.2771 94.1482C58.6424 94.7829 58.67 93.7343 58.808 93.3203ZM141.541 80.4054C141.762 79.136 142.783 78.2253 143.721 77.4526C144.438 78.0322 144.77 78.9428 144.659 79.8535C144.411 82.5579 143.417 85.0967 142.396 87.5804C141.817 88.5738 141.651 89.7329 141.044 90.6987C139.637 92.7684 138.864 95.1417 137.76 97.377C137.319 97.5149 136.932 97.4873 136.877 96.963C137.871 96.6319 138.036 95.528 138.45 94.7001C139.14 93.3203 139.471 91.8026 140.271 90.4504C140.961 89.2637 141.182 87.8839 141.734 86.6421C142.562 84.4344 143.666 82.2543 143.5 79.8535C143.417 79.5775 143.528 78.7772 143.031 79.136C142.396 79.6051 142.258 80.433 141.982 81.1229C141.568 81.3437 141.43 80.709 141.541 80.4054Z" fill="#979797"/>
<path d="M136.684 83.6066C137.07 82.6408 137.236 81.5921 137.677 80.6538C137.843 80.6262 138.201 80.5711 138.367 80.5435C138.505 81.6473 138.008 82.7511 137.318 83.6342C137.18 83.6342 136.849 83.6066 136.684 83.6066Z" fill="#8F8F8F"/>
<path d="M113.145 87.2771C113.503 86.2009 113.586 85.0143 114.221 84.076C114.662 84.214 115.049 84.6555 114.8 85.1247C114.607 85.8698 114.193 86.5596 113.834 87.2495C113.669 87.2495 113.31 87.2496 113.145 87.2771ZM133.179 81.3164C133.483 81.3164 133.759 81.3164 134.062 81.3164C134.062 82.4754 133.538 83.6069 132.793 84.4624L132.379 84.3796C132.462 83.3033 132.986 82.3375 133.179 81.3164Z" fill="#999999"/>
<path d="M65.4561 95.0589C65.3733 93.9275 66.0632 92.934 66.1736 91.8302C66.6703 91.7474 67.2498 91.9405 67.0015 92.5477C66.7255 93.4583 66.4496 94.6726 65.4561 95.0589ZM101.855 85.4279C102.656 85.2347 103.125 85.8694 103.649 86.3386C104.173 86.8629 104.974 87.0009 105.581 87.4148C105.663 87.8011 105.443 88.1323 105.167 88.3807C103.787 87.9391 102.38 88.629 101.386 89.6225C100.448 90.3676 99.5096 91.637 100.117 92.8788C100.669 94.1758 102.048 94.7002 103.235 95.2245C101.91 95.4452 100.751 94.5622 99.8407 93.6791C99.0128 92.6305 98.9301 91.0023 99.7304 89.8984C100.393 88.8222 101.552 88.2703 102.573 87.608C102.186 86.9181 101.8 86.2282 101.855 85.4279ZM110.465 82.4199C110.631 82.4475 110.962 82.4751 111.128 82.5027C110.686 84.2137 110.079 85.8694 109.389 87.4976C108.865 89.2637 108.147 90.9471 107.402 92.6304C106.878 93.6239 106.105 94.8657 104.808 94.645C104.201 94.4794 104.311 93.8171 104.284 93.3479C104.532 93.5411 104.753 93.7343 105.001 93.8999C105.305 93.8447 105.691 93.8723 105.857 93.5411C107.098 92.0233 107.54 90.0916 108.313 88.2979C109.085 86.3662 109.637 84.324 110.465 82.4199ZM119.186 83.1374C120.096 82.6407 121.2 81.7576 122.276 82.2819C123.656 83.4686 122.663 85.3727 121.945 86.6697C121.2 87.5804 120.427 88.5462 119.489 89.2637C119.572 88.4635 120.234 87.9391 120.593 87.3044C121.338 86.1178 122.056 84.6828 121.559 83.2478C119.71 82.9442 119.02 85.014 117.695 85.8418C117.53 84.7104 118.468 83.8549 119.186 83.1374Z" fill="#959595"/>
<path d="M78.7596 83.8276C78.9527 83.8001 79.3115 83.7725 79.5046 83.7725C78.456 84.6279 77.2418 85.3178 76.2483 86.2561C74.9513 87.4703 73.5163 88.5466 72.5228 90.0368C71.8605 90.975 71.419 92.0789 70.8395 93.0723C70.398 93.845 70.5359 94.7557 70.4807 95.5836C70.7843 95.5008 71.143 95.4732 71.281 95.1144C71.8329 94.2865 72.2469 93.3759 72.5228 92.41C72.6608 92.3824 72.9644 92.2996 73.1024 92.272C73.0748 93.9554 71.9709 95.3628 71.2258 96.8254C70.7567 96.7426 70.1496 96.715 69.984 96.1907C69.2941 94.0106 70.5083 91.9133 71.4742 90.0368C73.2679 87.3599 75.9172 85.3454 78.7596 83.8276Z" fill="#929292"/>
<path d="M77.1003 88.7944C77.3762 88.7944 77.6246 88.822 77.9006 88.822C78.2869 90.0363 78.0109 91.3057 77.735 92.5199C77.3762 93.7065 77.0451 94.9208 76.2448 95.8866C76.0516 94.7 76.8519 93.6789 76.9623 92.5475C77.2658 91.3057 76.7415 90.0363 77.1003 88.7944Z" fill="#9A9A9A"/>
<path d="M83.3386 89.3463C85.5463 89.0151 88.1127 89.5118 89.6581 91.2504C90.1824 91.7747 90.0168 92.575 89.8237 93.2097C88.1955 94.148 86.2914 93.5685 84.6632 92.9613C83.9457 92.6026 83.7525 93.6236 83.449 94.0376C83.1454 94.4791 82.6763 95.307 82.014 94.8931C82.5107 93.7616 83.0626 92.6026 83.8629 91.6643C84.3597 91.278 84.9392 91.7747 85.4083 91.9403C86.5397 92.5474 87.8643 92.9889 89.1062 92.4922C89.0786 92.2162 89.051 91.9127 89.0234 91.6367C87.616 90.2569 85.4359 89.8982 83.5594 90.2845C82.4831 90.4501 81.8208 91.3332 80.9102 91.8023C80.9378 90.4501 82.0968 89.4842 83.3386 89.3463Z" fill="#969698"/>
</g>
<defs>
<clipPath id="clip0_392_15">
<rect width="194" height="117.007" fill="white"/>
</clipPath>
</defs>
</svg>
