<svg width="40" height="40" viewBox="0 0 40 40" fill="none" xmlns="http://www.w3.org/2000/svg">
<path d="M23.6205 5.26799C23.5847 5.24125 23.5446 5.21887 23.5042 5.2055C23.4641 5.18778 23.424 5.17441 23.3798 5.16539C23.1659 5.12093 22.934 5.19213 22.7776 5.34821C22.6532 5.47289 22.582 5.647 22.582 5.82081C22.582 5.99896 22.6532 6.16841 22.7776 6.2934C22.9023 6.41808 23.0717 6.48959 23.2505 6.48959C23.295 6.48959 23.3397 6.48523 23.3798 6.47622C23.4243 6.4672 23.4641 6.45849 23.5042 6.44046C23.5446 6.42274 23.5847 6.40035 23.6205 6.37797C23.6562 6.35123 23.6917 6.32449 23.7225 6.2934C23.8471 6.16872 23.9187 5.99927 23.9187 5.8208C23.9187 5.647 23.8475 5.4732 23.7225 5.34821C23.6917 5.3168 23.6562 5.29007 23.6205 5.26799Z" fill="#6A3F2D" stroke="#6A3F2D" stroke-width="0.1"/>
<path d="M18.4174 6.5195C18.3816 6.49711 18.3415 6.47504 18.3014 6.457C18.2613 6.43928 18.2212 6.43027 18.1767 6.42125C17.9585 6.37679 17.7265 6.44799 17.5751 6.60407C17.4504 6.72875 17.3789 6.8982 17.3789 7.07666C17.3789 7.11677 17.3833 7.16123 17.3923 7.20601C17.4013 7.25047 17.41 7.29058 17.428 7.33068C17.4458 7.37079 17.4681 7.4109 17.4905 7.44665C17.5129 7.48241 17.544 7.51785 17.5751 7.54926C17.6998 7.67394 17.8692 7.74545 18.0477 7.74545C18.0878 7.74545 18.1323 7.74109 18.177 7.73208C18.2215 7.72306 18.2616 7.70969 18.3017 7.69197C18.3418 7.6786 18.3819 7.65621 18.4177 7.62947C18.4534 7.60709 18.4889 7.58035 18.5203 7.54926C18.645 7.42458 18.7165 7.25047 18.7165 7.07666C18.7165 6.89851 18.6453 6.72906 18.5203 6.60407C18.4886 6.57298 18.4528 6.54189 18.4174 6.5195Z" fill="#6A3F2D" stroke="#6A3F2D" stroke-width="0.1"/>
<path d="M23.1674 9.25196C23.1316 9.22522 23.0915 9.2075 23.0514 9.18946C23.0113 9.17174 22.9712 9.15837 22.9267 9.15371C22.7085 9.10925 22.4765 9.18045 22.3251 9.33186C22.2004 9.46121 22.1289 9.63066 22.1289 9.80881C22.1289 9.84892 22.1339 9.89338 22.1423 9.93815C22.1513 9.97826 22.1647 10.0227 22.178 10.0628C22.1958 10.1029 22.2181 10.143 22.2405 10.1788C22.2676 10.2146 22.294 10.25 22.3251 10.2814C22.4498 10.4061 22.6192 10.4776 22.7977 10.4776C22.8428 10.4776 22.8869 10.4732 22.927 10.4642C22.9721 10.4552 23.0116 10.4418 23.0517 10.4241C23.0918 10.4064 23.1319 10.3884 23.1677 10.3616C23.2034 10.3392 23.2389 10.3125 23.2703 10.2814C23.3011 10.2503 23.3281 10.2146 23.3545 10.1788C23.3769 10.143 23.3996 10.1029 23.4124 10.0628C23.4301 10.0227 23.4435 9.97826 23.4528 9.93815C23.4618 9.89369 23.4659 9.84892 23.4659 9.80881C23.4659 9.63065 23.3947 9.45654 23.2703 9.33186C23.2386 9.30543 23.2028 9.27434 23.1674 9.25196Z" fill="#6A3F2D" stroke="#6A3F2D" stroke-width="0.1"/>
<path d="M14.1666 9.89296C14.1489 9.8485 14.1308 9.81274 14.1041 9.77699C14.0817 9.73688 14.055 9.70579 14.0239 9.67438C13.8678 9.51831 13.6362 9.4471 13.4176 9.49156C13.3775 9.50058 13.333 9.51395 13.2929 9.52732C13.2528 9.54504 13.2127 9.56743 13.1769 9.58981C13.1412 9.61655 13.1101 9.64329 13.079 9.67438C13.0479 9.70547 13.0165 9.73688 12.9944 9.77699C12.972 9.81274 12.95 9.84819 12.9319 9.89296C12.9142 9.93307 12.9052 9.97317 12.8962 10.0176C12.8872 10.0577 12.8828 10.1022 12.8828 10.147C12.8828 10.3208 12.954 10.4946 13.079 10.6196C13.1101 10.6507 13.1415 10.6774 13.1769 10.7041C13.2127 10.7265 13.2528 10.7486 13.2929 10.762C13.333 10.7797 13.3775 10.7931 13.4176 10.8021C13.462 10.8111 13.5068 10.8154 13.5513 10.8154C13.7251 10.8154 13.8989 10.7442 14.0239 10.6193C14.1486 10.4946 14.2201 10.3205 14.2201 10.1467C14.2201 10.1022 14.2157 10.0574 14.2067 10.0173C14.198 9.97318 14.1846 9.93307 14.1666 9.89296Z" fill="#6A3F2D" stroke="#6A3F2D" stroke-width="0.1"/>
<path d="M8.17063 9.26601C8.15291 9.2259 8.13052 9.18579 8.10814 9.15004C8.0814 9.11428 8.05466 9.07884 8.02357 9.04743C7.86749 8.89135 7.63585 8.82015 7.42194 8.86461C7.37748 8.87362 7.33737 8.88699 7.29727 8.90472C7.25716 8.91809 7.21705 8.94047 7.1813 8.96721C7.14554 8.9896 7.1101 9.01634 7.07869 9.04743C7.0476 9.07852 7.02086 9.11427 6.99412 9.15003C6.97173 9.18579 6.94966 9.2259 6.93629 9.266C6.91857 9.30611 6.9052 9.34622 6.89618 9.39068C6.88717 9.43514 6.88281 9.47991 6.88281 9.52002C6.88281 9.69818 6.95401 9.86763 7.079 9.99262C7.11009 10.0237 7.14584 10.0551 7.1816 10.0772C7.21736 10.0996 7.25747 10.1216 7.29757 10.1397C7.33768 10.1574 7.37779 10.1664 7.42225 10.1754C7.46671 10.1845 7.50682 10.1888 7.55159 10.1888C7.72975 10.1888 7.8992 10.1176 8.02419 9.99262C8.05528 9.96153 8.08202 9.93013 8.10876 9.89468C8.13114 9.85457 8.15322 9.81881 8.17125 9.77871C8.18462 9.7386 8.19799 9.69414 8.20701 9.65403C8.21602 9.60957 8.22038 9.5648 8.22038 9.52034C8.22038 9.48023 8.21602 9.43577 8.20701 9.39099C8.19737 9.34622 8.184 9.30611 8.17063 9.26601Z" fill="#6A3F2D" stroke="#6A3F2D" stroke-width="0.1"/>
<path d="M32.635 7.31874C32.6173 7.27863 32.5993 7.23852 32.5725 7.20277C32.5498 7.16266 32.5234 7.13157 32.492 7.10016C32.3359 6.94409 32.1043 6.87288 31.8863 6.91734C31.8459 6.92636 31.8018 6.93973 31.7617 6.9531C31.7216 6.97082 31.6858 6.99321 31.6457 7.01559C31.6099 7.04233 31.5745 7.06907 31.5471 7.10016C31.5163 7.13125 31.4846 7.16701 31.4629 7.20277C31.4358 7.23852 31.4178 7.27863 31.4001 7.31874C31.3827 7.35885 31.3693 7.39895 31.3649 7.44341C31.3556 7.48352 31.3516 7.52798 31.3516 7.57276C31.3516 7.74656 31.4228 7.92036 31.5471 8.04535C31.5742 8.07644 31.6099 8.10318 31.6457 8.12992C31.6858 8.15231 31.7216 8.17438 31.7617 8.18775C31.8018 8.20547 31.8459 8.21884 31.8863 8.22786C31.9308 8.23688 31.975 8.24123 32.02 8.24123C32.1938 8.24123 32.3676 8.17003 32.4926 8.04504C32.5237 8.01395 32.5505 7.9782 32.5732 7.94244C32.5999 7.90668 32.6176 7.86658 32.6356 7.82647C32.6534 7.78636 32.6667 7.74625 32.6758 7.70179C32.6851 7.66168 32.6891 7.61722 32.6891 7.57245C32.6891 7.52799 32.6848 7.48322 32.6758 7.44311C32.6664 7.39896 32.6531 7.35885 32.635 7.31874Z" fill="#6A3F2D" stroke="#6A3F2D" stroke-width="0.1"/>
<path d="M36.445 11.1887C36.2746 9.15655 35.2125 7.2711 33.3734 5.73548C29.9859 2.90739 24.4285 1.55889 18.5114 2.12824C9.1256 3.0318 1.89043 8.55958 2.38312 14.4511C2.39773 14.6293 2.48385 14.7944 2.62066 14.9085C2.74161 15.0092 2.89303 15.0639 3.0491 15.0639C3.07056 15.0639 3.09201 15.063 3.11315 15.0608L35.8426 11.91C36.2067 11.8752 36.4756 11.5534 36.4451 11.189L36.445 11.1887ZM3.69882 13.6605C3.84402 9.62385 8.25778 5.86737 14.4266 4.21657C14.3955 4.23802 14.3595 4.25046 14.3327 4.27751C14.3016 4.3086 14.2702 4.34435 14.2482 4.38011C14.2258 4.41587 14.2037 4.45598 14.1857 4.49608C14.1679 4.53619 14.1589 4.5763 14.1499 4.62076C14.1409 4.66522 14.1365 4.70533 14.1365 4.7501C14.1365 4.92826 14.2077 5.09771 14.3327 5.2227C14.4574 5.34737 14.6269 5.41888 14.8053 5.41888C14.9791 5.41888 15.1529 5.34768 15.2779 5.2227C15.4026 5.09802 15.4741 4.92857 15.4741 4.7501C15.4741 4.70564 15.4697 4.66553 15.4607 4.62076C15.4517 4.5763 15.4383 4.53619 15.4206 4.49608C15.4029 4.45597 15.3849 4.41587 15.3581 4.38011C15.3357 4.34436 15.309 4.30891 15.2779 4.27751C15.1682 4.16775 15.018 4.11489 14.865 4.10153C16.0664 3.80336 17.3303 3.58447 18.6396 3.45824C19.465 3.37896 20.2856 3.33978 21.0961 3.33978C25.6746 3.33978 29.9065 4.5813 32.5164 6.76077C33.8695 7.89062 34.7245 9.22201 35.0174 10.6448L3.69882 13.6605Z" fill="#6A3F2D" stroke="#6A3F2D" stroke-width="0.1"/>
<path d="M37.3773 28.7328C37.2445 28.6118 37.0729 28.5515 36.8901 28.5593L4.60878 30.3418C4.26366 30.3611 3.98974 30.64 3.9773 30.9854C3.91885 32.6037 4.41227 33.9571 5.44328 35.0068C7.76276 37.3682 12.4038 37.9686 18.6911 37.9686C19.3912 37.9686 20.1125 37.9611 20.8529 37.948C25.9774 37.8557 32.7467 37.0464 35.8971 33.7127C37.0904 32.4501 37.6612 30.9318 37.595 29.201C37.5885 29.0219 37.5101 28.853 37.3774 28.7327L37.3773 28.7328ZM34.9257 32.7946C32.7166 35.132 27.7103 36.4874 20.8294 36.6107C14.7345 36.722 8.77319 36.4882 6.39808 34.0696C5.75323 33.4129 5.39908 32.6142 5.32514 31.6413L36.2446 29.9341C36.1504 31.0182 35.7157 31.9591 34.9263 32.7946H34.9257Z" fill="#6A3F2D" stroke="#6A3F2D" stroke-width="0.1"/>
<path d="M4.28191 29.0248C4.87732 29.5186 5.64936 29.7888 6.44252 29.7888C6.55849 29.7888 6.67478 29.7829 6.79075 29.7714L33.5466 27.0819C35.3782 26.8979 36.7468 25.3321 36.5973 23.5922C36.5273 22.7757 36.135 22.0319 35.4923 21.4991C34.8098 20.9326 33.8945 20.6589 32.9832 20.7525L25.0299 21.5516C25.7015 20.792 26.6591 20.3213 27.6525 20.2719L36.2989 20.2986H36.3011C36.6692 20.2986 36.9683 20.0004 36.9695 19.6323C36.9708 19.2629 36.6723 18.9629 36.3032 18.9614L27.6218 18.9355C26.0172 19.0136 24.5223 19.8546 23.6222 21.1847L23.2531 21.7298L23.1291 21.7422L22.5486 21.0339C21.6348 19.9183 20.2273 19.2907 18.8098 19.3634L3.83319 19.6439C3.46382 19.651 3.17031 19.956 3.17715 20.3251C3.18399 20.6941 3.47967 20.9786 3.85775 20.9811L18.855 20.7001C19.8736 20.65 20.8685 21.0924 21.5146 21.8812L21.5323 21.903L6.22623 23.4417C4.39459 23.6258 3.02596 25.1912 3.1752 26.9318C3.24609 27.7483 3.63877 28.492 4.28117 29.0249L4.28191 29.0248ZM6.36101 24.7721L22.5498 23.1448L22.7274 23.3615C22.8545 23.5169 23.0448 23.6065 23.2444 23.6065C23.2544 23.6065 23.2649 23.6062 23.2746 23.6055C23.486 23.5962 23.6794 23.4874 23.7978 23.3127L24.0108 22.998L33.1173 22.0824C33.1894 22.0752 33.2622 22.0718 33.334 22.0718C33.8168 22.0718 34.2829 22.2331 34.6386 22.5282C35.0033 22.8307 35.226 23.2495 35.2654 23.7066C35.3528 24.7224 34.522 25.6402 33.413 25.7515L6.6572 28.4416C6.10035 28.496 5.54471 28.3349 5.13591 27.9963C4.77089 27.6932 4.54796 27.2747 4.50879 26.8179C4.42141 25.8013 5.2525 24.8837 6.3612 24.7721L6.36101 24.7721Z" fill="#6A3F2D" stroke="#6A3F2D" stroke-width="0.1"/>
<path d="M32.1723 14.4247C31.5844 14.6856 31.0291 14.9325 29.8566 15.0313C28.685 15.1311 28.0956 14.981 27.4719 14.8227C26.8006 14.6523 26.0407 14.4589 24.645 14.578C23.2502 14.6962 22.5339 15.0142 21.902 15.2944C21.3147 15.5552 20.7597 15.8015 19.5882 15.901C18.4155 16.0005 17.8281 15.8506 17.2044 15.6923C16.5341 15.522 15.7742 15.3292 14.3788 15.4473C12.9837 15.5655 12.2674 15.8836 11.6353 16.164C11.0479 16.4249 10.4929 16.6711 9.32206 16.7703C8.15146 16.8698 7.56317 16.7202 6.94011 16.5617C6.27008 16.3913 5.50986 16.197 4.11608 16.3167C3.74795 16.3478 3.47496 16.6714 3.50637 17.0392C3.53746 17.4074 3.86206 17.6841 4.22894 17.649C5.39954 17.5495 5.98814 17.6993 6.61089 17.8576C7.13728 17.9913 7.71838 18.139 8.61939 18.139C8.86532 18.139 9.13614 18.1284 9.43492 18.1023C10.83 17.9841 11.5463 17.6661 12.1785 17.3856C12.7658 17.1248 13.3208 16.8785 14.4917 16.7793C15.6626 16.6795 16.2517 16.8297 16.8755 16.9879C17.5458 17.1577 18.3054 17.3508 19.7011 17.2326C21.0961 17.1145 21.8128 16.7964 22.4449 16.516C23.0323 16.2551 23.5873 16.0089 24.7581 15.9097C25.93 15.8102 26.5192 15.96 27.1429 16.1183C27.8138 16.2887 28.574 16.4815 29.9698 16.363C31.3655 16.2445 32.0821 15.9268 32.7145 15.6463C33.3025 15.3855 33.8577 15.1386 35.0303 15.0397C35.3981 15.0086 35.6714 14.685 35.64 14.3172C35.6089 13.949 35.2774 13.6767 34.9171 13.7074C33.5214 13.8265 32.8047 14.1443 32.1723 14.4247Z" fill="#6A3F2D" stroke="#6A3F2D" stroke-width="0.1"/>
</svg>
