<svg width="40" height="40" viewBox="0 0 40 40" fill="none" xmlns="http://www.w3.org/2000/svg">
<path d="M29.0645 2.52287C27.7503 3.00139 26.6013 5.25834 25.3774 7.66284C24.7718 8.8527 24.1481 10.0775 23.466 11.1599L26.1148 11.1433L26.1281 11.1426V11.1423H26.1366C26.4051 11.1297 26.7898 11.1402 27.2523 11.1688C27.7448 11.1994 28.3286 11.2507 28.9567 11.3173L28.9662 11.318V11.3176L28.9723 11.3183C30.3304 11.4121 31.6942 11.5565 32.9085 11.7751C33.7914 11.9338 34.5939 12.1323 35.2562 12.3787C35.4081 10.9927 35.1009 8.73609 34.358 6.69561C33.9651 5.61625 33.4513 4.6031 32.8205 3.82076C32.2104 3.06391 31.4926 2.52694 30.6743 2.3679C30.1801 2.27172 29.6431 2.31182 29.064 2.52253L29.0645 2.52287ZM24.8479 7.39331C26.1261 4.88214 27.3264 2.52452 28.8626 1.96509C29.5492 1.7153 30.1908 1.66908 30.7866 1.78497C31.7565 1.97359 32.5892 2.58805 33.2835 3.44925C33.9574 4.28496 34.5025 5.35689 34.9165 6.49367C35.7583 8.80639 36.0591 11.4107 35.7903 12.8303C35.7869 12.8582 35.7794 12.8857 35.7678 12.9129C35.7023 13.0634 35.5269 13.1324 35.3763 13.0668L35.4949 12.7943L35.3763 13.0661C34.6976 12.7705 33.8079 12.539 32.8043 12.3586C31.6209 12.1455 30.2772 12.0038 28.932 11.911C28.9225 11.911 28.9133 11.9103 28.9038 11.9093V11.9086C28.2808 11.8423 27.7027 11.7913 27.2178 11.7614C26.7742 11.7339 26.4113 11.7237 26.1662 11.7349C26.155 11.7363 26.1438 11.737 26.1323 11.737L26.1306 11.4396L26.1316 11.7359L23.4365 11.7526C23.4287 11.7533 23.4208 11.7536 23.413 11.754V11.7529H23.412C23.2988 11.7546 23.2485 11.7594 23.2142 11.7625C23.1245 11.7706 23.1 11.7726 22.8958 11.7478C22.8472 11.7434 22.7993 11.7274 22.7561 11.6982C22.6198 11.6065 22.5841 11.4216 22.6759 11.2853C23.4552 10.1302 24.1631 8.73906 24.8483 7.39329L24.8479 7.39331Z" fill="#6A3F2D"/>
<path d="M22.6759 11.2853C22.5841 11.4216 22.6198 11.6065 22.7561 11.6982C22.7993 11.7274 22.8472 11.7434 22.8958 11.7478C23.1 11.7726 23.1245 11.7706 23.2142 11.7625C23.2485 11.7594 23.2988 11.7546 23.412 11.7529H23.413V11.754C23.4208 11.7536 23.4287 11.7533 23.4365 11.7526L26.1316 11.7359L26.1306 11.4396L26.1323 11.737C26.1438 11.737 26.155 11.7363 26.1662 11.7349C26.4113 11.7237 26.7742 11.7339 27.2178 11.7614C27.7027 11.7913 28.2808 11.8423 28.9038 11.9086V11.9093C28.9133 11.9103 28.9225 11.911 28.932 11.911C30.2772 12.0038 31.6209 12.1455 32.8043 12.3586C33.8079 12.539 34.6976 12.7705 35.3763 13.0661L35.4949 12.7943L35.3763 13.0668C35.5269 13.1324 35.7023 13.0634 35.7678 12.9129C35.7794 12.8857 35.7869 12.8582 35.7903 12.8303C36.0591 11.4107 35.7583 8.80639 34.9165 6.49367C34.5025 5.35689 33.9574 4.28496 33.2835 3.44925C32.5892 2.58805 31.7565 1.97359 30.7866 1.78497C30.1908 1.66908 29.5492 1.7153 28.8626 1.96509C27.3264 2.52452 26.1261 4.88214 24.8479 7.39331L24.8483 7.39329C24.1631 8.73906 23.4552 10.1302 22.6759 11.2853ZM22.6759 11.2853L22.9223 11.4515M29.0645 2.52287C27.7503 3.00139 26.6013 5.25834 25.3774 7.66284C24.7718 8.8527 24.1481 10.0775 23.466 11.1599L26.1148 11.1433L26.1281 11.1426V11.1423H26.1366C26.4051 11.1297 26.7898 11.1402 27.2523 11.1688C27.7448 11.1994 28.3286 11.2507 28.9567 11.3173L28.9662 11.318V11.3176L28.9723 11.3183C30.3304 11.4121 31.6942 11.5565 32.9085 11.7751C33.7914 11.9338 34.5939 12.1323 35.2562 12.3787C35.4081 10.9927 35.1009 8.73609 34.358 6.69561C33.9651 5.61625 33.4513 4.6031 32.8205 3.82076C32.2104 3.06391 31.4926 2.52694 30.6743 2.3679C30.1801 2.27172 29.6431 2.31182 29.064 2.52253L29.0645 2.52287Z" stroke="#6A3F2D" stroke-width="0.7"/>
<path d="M35.3546 13.0569C34.2562 12.5838 32.6144 12.2762 30.8328 12.0791C28.237 11.7919 25.3621 11.741 23.4121 11.7532H23.4104V11.7542C23.4029 11.7542 23.3951 11.7539 23.3876 11.7535C23.2914 11.7556 23.2459 11.7597 23.2139 11.7627C23.131 11.7702 23.1038 11.7726 22.9393 11.7532C22.6386 11.829 22.3364 11.8891 22.0244 11.951C21.4504 12.0652 20.8424 12.1862 20.268 12.3948L21.465 12.9043L21.4653 12.9036C21.4704 12.9057 21.4752 12.908 21.4799 12.9104C22.837 13.4419 27.1922 15.6708 30.744 18.2233C32.7495 19.665 34.5072 21.2175 35.3518 22.6462C35.7199 22.0896 36.025 21.5349 36.2847 20.9579C36.6079 20.2401 36.8608 19.489 37.0783 18.6584C37.3424 17.65 37.5221 16.6301 37.3243 15.6751C37.1313 14.7429 36.5695 13.8514 35.3545 13.0568L35.3546 13.0569ZM30.8977 11.4891C32.7309 11.692 34.4305 12.0131 35.5908 12.5131C35.6135 12.5209 35.6356 12.5314 35.6567 12.545L35.4949 12.7945L35.6563 12.5461C37.0386 13.4436 37.6806 14.4717 37.9052 15.5568C38.1261 16.6243 37.9351 17.7261 37.652 18.8072C37.425 19.6738 37.1616 20.4561 36.8258 21.2017C36.4917 21.944 36.0856 22.6516 35.5728 23.3717C35.5432 23.421 35.4987 23.4621 35.4426 23.4879C35.2934 23.5566 35.1167 23.4913 35.0481 23.3421L35.3182 23.2177L35.0487 23.3408C34.386 21.8998 32.5426 20.2457 30.3975 18.7041C26.8858 16.18 22.593 13.9822 21.2621 13.4618C21.2519 13.4587 21.2417 13.455 21.2315 13.4506L21.2319 13.4499L19.4225 12.6795C19.3535 12.6557 19.2933 12.6064 19.2566 12.5367C19.1805 12.3913 19.2366 12.2115 19.382 12.1353L19.52 12.3987L19.3831 12.1364C20.2007 11.7075 21.0888 11.5311 21.9099 11.368C22.2348 11.3034 22.5492 11.2408 22.8234 11.1708C22.8652 11.1562 22.9108 11.1508 22.9577 11.1566C23.1174 11.1763 23.1262 11.1753 23.1599 11.1722C23.1996 11.1685 23.2567 11.1634 23.376 11.161C23.3859 11.16 23.3957 11.1593 23.4059 11.1593L23.4076 11.4567L23.4066 11.1603C25.3768 11.1481 28.2811 11.1994 30.8971 11.4886L30.8977 11.4891Z" fill="#6A3F2D" stroke="#6A3F2D" stroke-width="0.7"/>
<path d="M21.1831 13.4231L21.1039 13.3789C20.6795 13.1427 20.3182 12.9412 20.0066 12.8188C19.2405 12.5177 18.7504 12.7842 18.0602 14.5395L17.7839 14.4314L18.0606 14.5402C18.0201 14.6432 17.9284 14.7108 17.8264 14.7257C17.512 14.8009 17.2884 14.8498 17.0876 14.8933C15.5748 15.223 15.3336 15.2756 14.9128 17.7066L14.6202 17.6567L14.9132 17.7073C14.8948 17.8127 14.8231 17.8956 14.7307 17.9326C14.228 18.1763 13.8168 18.4411 13.4793 18.7184C13.1942 18.9529 12.96 19.1972 12.7673 19.4463C12.8903 19.7057 13.0178 19.9762 13.1496 20.2559C15.4508 25.1352 19.0978 32.8679 23.4978 34.9272C24.6775 35.4792 24.7322 35.4081 24.8599 35.2423C24.9999 35.0601 25.1817 34.8239 25.6463 34.6329L25.7592 34.9072L25.646 34.6322C25.6912 34.6135 25.7384 34.6071 25.7843 34.6108C26.0361 34.6101 26.2516 34.6254 26.4569 34.6404C27.1417 34.6897 27.7052 34.7298 28.5578 34.0134L34.2769 28.2715C34.9128 27.4524 34.871 26.9182 34.82 26.2708C34.8047 26.0753 34.7884 25.8704 34.7874 25.6216H34.7863C34.786 25.537 34.821 25.4602 34.8774 25.4058C35.0273 25.2407 35.135 25.0687 35.2037 24.8909C35.4113 24.3543 35.2798 23.729 34.9039 23.0534C34.5022 22.3315 33.8266 21.5611 32.9838 20.7818C29.4034 17.473 22.9001 14.0952 21.2427 13.4535L21.3494 13.1772L21.242 13.4545C21.221 13.4464 21.2016 13.4362 21.1836 13.4239L21.1831 13.4231ZM21.3918 12.861L21.4761 12.9079C23.192 13.5788 29.7631 16.997 33.3851 20.3447C34.2711 21.1634 34.9861 21.9828 35.4215 22.7647C35.8827 23.5933 36.0342 24.3862 35.7562 25.104C35.6713 25.3232 35.5476 25.5326 35.3814 25.73C35.3865 25.8955 35.3994 26.0627 35.412 26.2235C35.4724 26.9946 35.5221 27.6308 34.7482 28.6293C34.737 28.6466 34.7237 28.6633 34.7088 28.6782L34.7081 28.6776L28.9823 34.4262C28.9721 34.4381 28.9605 34.4496 28.9479 34.4602L28.9476 34.4598C27.9056 35.3394 27.2327 35.2908 26.4143 35.2323C26.223 35.2187 26.0225 35.2041 25.8199 35.2031C25.5399 35.3295 25.4209 35.4838 25.3285 35.6045C24.9985 36.0334 24.8568 36.2176 23.2462 35.4638C18.6513 33.3131 14.9486 25.4628 12.6126 20.5088C12.4566 20.1781 12.3071 19.8607 12.1633 19.5586C12.1086 19.4614 12.111 19.3373 12.18 19.2401L12.4223 19.4124L12.1807 19.2404C12.4193 18.9043 12.72 18.5743 13.1024 18.2603C13.449 17.9755 13.8613 17.7049 14.3531 17.4569C14.8275 14.7774 15.1446 14.7081 16.9618 14.3121C17.1565 14.2696 17.3689 14.2234 17.565 14.1782C18.4062 12.1034 19.0981 11.8234 20.2223 12.2655C20.5663 12.4008 20.9459 12.6122 21.3918 12.8606L21.3918 12.861Z" fill="#6A3F2D" stroke="#6A3F2D" stroke-width="0.7"/>
<path d="M1.96703 28.8629C2.52644 27.3268 4.88364 26.1268 7.39525 24.8482C8.7411 24.163 10.1321 23.4551 11.2872 22.6758C11.4235 22.584 11.6081 22.6201 11.7002 22.756C11.7294 22.7992 11.7457 22.8474 11.7498 22.8957C11.7749 23.1003 11.7726 23.1244 11.7644 23.2141C11.7613 23.2485 11.7566 23.2991 11.7549 23.4119V23.4129H11.7559C11.7559 23.4208 11.7552 23.4286 11.7545 23.4364L11.7379 26.1315L11.4415 26.1305L11.7389 26.1322C11.7389 26.1437 11.7382 26.1549 11.7369 26.1662C11.7257 26.4112 11.7359 26.7742 11.7634 27.2177C11.7933 27.7026 11.8443 28.2804 11.9105 28.9037H11.9112C11.9122 28.9132 11.9129 28.9227 11.9129 28.9319C12.0057 30.2774 12.1474 31.6212 12.3605 32.8043C12.5413 33.8078 12.7724 34.6976 13.0681 35.3762L12.7962 35.4949L13.0688 35.3762C13.1344 35.5268 13.0654 35.7022 12.9148 35.7678C12.888 35.7796 12.8601 35.7868 12.8322 35.7902C11.4123 36.059 8.80834 35.7582 6.49562 34.9164C5.35884 34.5028 4.28687 33.9574 3.45121 33.2834C2.58968 32.589 1.97555 31.7564 1.78692 30.7865C1.67104 30.1907 1.71725 29.549 1.96705 28.8626L1.96703 28.8629ZM7.66469 25.378C5.26019 26.6018 3.00324 27.7509 2.52472 29.0651C2.31401 29.6442 2.27391 30.1812 2.37009 30.6754C2.52948 31.4938 3.06612 32.2115 3.82296 32.8216C4.60531 33.4523 5.61844 33.9662 6.6978 34.3591C8.73829 35.1017 10.995 35.4092 12.3808 35.2573C12.1341 34.5946 11.936 33.7922 11.7773 32.9096C11.5587 31.6953 11.4143 30.3315 11.3205 28.9734L11.3198 28.9673H11.3202L11.3195 28.9578C11.2529 28.3297 11.2015 27.7458 11.171 27.2531C11.1424 26.7905 11.1319 26.4058 11.1445 26.1373V26.1288H11.1448L11.1455 26.1156L11.1621 23.4664C10.0797 24.1489 8.8548 24.7722 7.66504 25.3778L7.66469 25.378Z" fill="#6A3F2D"/>
<path d="M11.2872 22.6758C10.1321 23.4551 8.7411 24.163 7.39525 24.8482C4.88364 26.1268 2.52644 27.3268 1.96703 28.8629L1.96705 28.8626C1.71725 29.549 1.67104 30.1907 1.78692 30.7865C1.97555 31.7564 2.58968 32.589 3.45121 33.2834C4.28687 33.9574 5.35884 34.5028 6.49562 34.9164C8.80834 35.7582 11.4123 36.059 12.8322 35.7902C12.8601 35.7868 12.888 35.7796 12.9148 35.7678C13.0654 35.7022 13.1344 35.5268 13.0688 35.3762L12.7962 35.4949L13.0681 35.3762C12.7724 34.6976 12.5413 33.8078 12.3605 32.8043C12.1474 31.6212 12.0057 30.2774 11.9129 28.9319C11.9129 28.9227 11.9122 28.9132 11.9112 28.9037H11.9105C11.8443 28.2804 11.7933 27.7026 11.7634 27.2177C11.7359 26.7742 11.7257 26.4112 11.7369 26.1662C11.7382 26.1549 11.7389 26.1437 11.7389 26.1322L11.4415 26.1305L11.7379 26.1315L11.7545 23.4364C11.7552 23.4286 11.7559 23.4208 11.7559 23.4129H11.7549V23.4119C11.7566 23.2991 11.7613 23.2485 11.7644 23.2141C11.7726 23.1244 11.7749 23.1003 11.7498 22.8957C11.7457 22.8474 11.7294 22.7992 11.7002 22.756C11.6081 22.6201 11.4235 22.584 11.2872 22.6758ZM11.2872 22.6758L11.4534 22.9222M7.66469 25.378C5.26019 26.6018 3.00324 27.7509 2.52472 29.0651C2.31401 29.6442 2.27391 30.1812 2.37009 30.6754C2.52948 31.4938 3.06612 32.2115 3.82296 32.8216C4.60531 33.4523 5.61844 33.9662 6.6978 34.3591C8.73829 35.1017 10.995 35.4092 12.3808 35.2573C12.1341 34.5946 11.936 33.7922 11.7773 32.9096C11.5587 31.6953 11.4143 30.3315 11.3205 28.9734L11.3198 28.9673H11.3202L11.3195 28.9578C11.2529 28.3297 11.2015 27.7458 11.171 27.2531C11.1424 26.7905 11.1319 26.4058 11.1445 26.1373V26.1288H11.1448L11.1455 26.1156L11.1621 23.4664C10.0797 24.1489 8.8548 24.7722 7.66504 25.3778L7.66469 25.378Z" stroke="#6A3F2D" stroke-width="0.7"/>
<path d="M12.5146 35.5905C12.0147 34.4302 11.6935 32.7302 11.4906 30.8971C11.201 28.2812 11.15 25.3772 11.1623 23.4066L11.4586 23.4076L11.1612 23.4059C11.1612 23.3957 11.1619 23.3859 11.1629 23.376C11.1653 23.2567 11.1708 23.1997 11.1742 23.1599C11.1772 23.1262 11.1779 23.1174 11.1585 22.9577C11.1527 22.9108 11.1582 22.8652 11.1728 22.8234C11.2428 22.5492 11.3053 22.2348 11.3699 21.9099C11.533 21.0885 11.7098 20.2007 12.1383 19.3831L12.4007 19.52L12.1373 19.382C12.2134 19.2366 12.3932 19.1805 12.5387 19.2566C12.6083 19.293 12.6576 19.3535 12.6814 19.4225L13.4519 21.2319L13.4525 21.2315C13.457 21.2417 13.4604 21.2519 13.4638 21.2621C13.9844 22.5927 16.1823 26.8854 18.7064 30.3975C20.248 32.5426 21.902 34.3857 23.3431 35.0487L23.22 35.3182L23.3444 35.0481C23.4936 35.1167 23.5589 35.2934 23.4902 35.4426C23.4644 35.4987 23.4233 35.5432 23.374 35.5728C22.6542 36.0856 21.9466 36.4917 21.204 36.8258C20.4581 37.1616 19.6757 37.425 18.8095 37.652C17.7284 37.9351 16.6265 38.1261 15.5591 37.9052C14.4736 37.6806 13.4455 37.0389 12.5484 35.6564L12.7968 35.4949L12.5473 35.6567C12.5337 35.6356 12.5229 35.6135 12.5154 35.5908L12.5146 35.5905ZM12.0809 30.8322C12.278 32.614 12.5856 34.2556 13.0587 35.3543C13.8536 36.5693 14.7451 37.1311 15.6769 37.3242C16.632 37.522 17.6518 37.3422 18.6602 37.0781C19.4911 36.8606 20.2423 36.6074 20.9597 36.2845C21.5368 36.0249 22.0918 35.7197 22.6481 35.3516C21.2193 34.5074 19.6665 32.7494 18.2252 30.7438C15.6722 27.192 13.4437 22.8367 12.9119 21.4797C12.9095 21.475 12.9071 21.4699 12.9051 21.4651L12.9058 21.4648L12.3963 20.2682C12.1877 20.8422 12.0667 21.4505 11.9525 22.0246C11.8906 22.3366 11.8305 22.6387 11.7547 22.9395C11.7741 23.1043 11.7717 23.1312 11.7642 23.2141C11.7611 23.246 11.7571 23.2916 11.755 23.3878C11.7557 23.3952 11.7557 23.4027 11.7557 23.4105H11.7547V23.4122C11.7425 25.3623 11.7934 28.2372 12.0806 30.833L12.0809 30.8322Z" fill="#6A3F2D" stroke="#6A3F2D" stroke-width="0.7"/>
<path d="M32.0363 24.2687C32.146 24.3907 32.3336 24.4006 32.4556 24.2908C32.5776 24.181 32.5875 23.9934 32.4777 23.8714C32.4604 23.852 26.4755 17.1504 17.8786 14.1514C17.724 14.0974 17.555 14.1793 17.501 14.3339C17.447 14.4885 17.5289 14.6575 17.6835 14.7115C26.1334 17.6594 32.019 24.2496 32.0356 24.2688L32.0363 24.2687Z" fill="#6A3F2D" stroke="#6A3F2D" stroke-width="0.7"/>
<path d="M25.5551 35.1215C25.6744 35.2337 25.8624 35.2279 25.9745 35.1086C26.0867 34.9893 26.0809 34.8014 25.9616 34.6893C25.9399 34.6689 18.4195 27.6117 16.2181 21.008C16.1668 20.8527 15.9993 20.7684 15.8439 20.8197C15.6886 20.871 15.6043 21.0386 15.6557 21.1939C17.9058 27.9441 25.5323 35.1005 25.5549 35.1214L25.5551 35.1215Z" fill="#6A3F2D" stroke="#6A3F2D" stroke-width="0.7"/>
<path d="M28.4488 8.21267C28.2949 8.26909 28.2157 8.4397 28.2721 8.59365C28.3285 8.7476 28.4991 8.82679 28.6531 8.77037C28.6599 8.76799 30.9318 7.88912 35.2952 9.89123C35.4441 9.95921 35.6198 9.89361 35.6878 9.74475C35.7558 9.5959 35.6902 9.42019 35.5413 9.35222C30.9519 7.24614 28.4559 8.20996 28.4485 8.21266L28.4488 8.21267Z" fill="#6A3F2D" stroke="#6A3F2D" stroke-width="0.7"/>
<path d="M31.0008 5.77695C30.8809 5.88842 30.8741 6.07637 30.9859 6.19633C31.0973 6.3163 31.2853 6.3231 31.4053 6.21129C31.408 6.20857 32.3919 5.2553 34.3732 6.56032C34.5098 6.65004 34.6933 6.61232 34.7834 6.47535C34.8731 6.33873 34.8354 6.15521 34.6984 6.06515C32.3232 4.50049 31.0049 5.77287 31.0012 5.77662L31.0008 5.77695Z" fill="#6A3F2D" stroke="#6A3F2D" stroke-width="0.7"/>
<path d="M8.79575 28.6218C8.85217 28.4679 8.77298 28.2973 8.61903 28.2408C8.46508 28.1844 8.29447 28.2636 8.23806 28.4176C8.23534 28.4247 7.27154 30.9209 9.37762 35.5103C9.44559 35.6592 9.6213 35.7248 9.77015 35.6568C9.91901 35.5888 9.9846 35.4131 9.91663 35.2643C7.91417 30.9009 8.79307 28.6289 8.79577 28.6221L8.79575 28.6218Z" fill="#6A3F2D" stroke="#6A3F2D" stroke-width="0.7"/>
<path d="M6.30462 31.3132C6.41609 31.1932 6.4093 31.0056 6.28967 30.8938C6.1697 30.7824 5.9821 30.7892 5.87029 30.9088C5.86689 30.9125 4.59413 32.2308 6.15883 34.6061C6.24854 34.7427 6.43207 34.7808 6.56903 34.691C6.70565 34.6013 6.74371 34.4178 6.65399 34.2808C5.34894 32.2995 6.30224 31.3156 6.30496 31.3129L6.30462 31.3132Z" fill="#6A3F2D" stroke="#6A3F2D" stroke-width="0.7"/>
</svg>
