<svg width="40" height="40" viewBox="0 0 40 40" fill="none" xmlns="http://www.w3.org/2000/svg">
<path d="M20.015 0.914317C19.9873 0.919057 19.96 0.925521 19.9331 0.933279C19.6902 0.975082 19.4927 1.14402 19.4236 1.36897C19.3544 1.59393 19.4254 1.83656 19.6074 1.99515C20.3217 2.67218 20.6397 3.22946 20.7484 3.73276C20.8576 4.23654 20.7671 4.70887 20.5855 5.2389C20.2225 6.29862 19.3645 7.48455 19.4236 8.9843C19.429 9.14807 19.5032 9.3032 19.6292 9.41569C19.7552 9.52773 19.9236 9.58807 20.0964 9.5829C20.2693 9.57772 20.4331 9.50791 20.5519 9.38811C20.6701 9.26874 20.7338 9.10972 20.7284 8.94552C20.6893 7.96295 21.3876 6.91224 21.8289 5.62498C22.0496 4.98114 22.1801 4.25751 22.0122 3.48182C21.8444 2.70613 21.3899 1.9075 20.5445 1.10731C20.4085 0.96941 20.2134 0.898375 20.015 0.914317ZM14.7358 3.40478C14.5069 3.44313 14.3168 3.59396 14.2372 3.80082C14.1575 4.00811 14.1998 4.23953 14.3486 4.40846C14.9164 5.08075 15.067 5.63714 15.0415 6.22363C15.0165 6.80972 14.7731 7.42991 14.4915 8.11546C14.2098 8.80102 13.8859 9.53677 13.7576 10.3552C13.6293 11.1735 13.7412 12.0863 14.3081 12.981C14.3727 13.1555 14.5169 13.2934 14.7003 13.3563C14.8841 13.4197 15.0879 13.4016 15.2558 13.3076C15.4241 13.2133 15.5383 13.0525 15.5679 12.8694C15.5975 12.6866 15.5392 12.5005 15.4086 12.363C14.9969 11.7127 14.946 11.1585 15.0415 10.5483C15.1375 9.9376 15.425 9.28296 15.7144 8.57876C16.0033 7.87458 16.2899 7.1045 16.3258 6.26195C16.3618 5.41944 16.1043 4.50835 15.3677 3.63612C15.2194 3.4534 14.9755 3.36428 14.7358 3.40478ZM25.8238 3.40478C25.5945 3.44313 25.4048 3.59396 25.3248 3.80082C25.2451 4.00811 25.2874 4.23953 25.4362 4.40846C26.004 5.08075 26.1546 5.63714 26.1296 6.22363C26.1041 6.80972 25.8607 7.42991 25.5791 8.11546C25.2974 8.80102 24.9735 9.53677 24.8452 10.3552C24.7169 11.1735 24.8293 12.0863 25.3957 12.981C25.4603 13.1555 25.6045 13.2934 25.7879 13.3563C25.9717 13.4197 26.1755 13.4016 26.3434 13.3076C26.5117 13.2133 26.6264 13.0525 26.6559 12.8694C26.6855 12.6866 26.6268 12.5005 26.4962 12.363C26.0845 11.7127 26.0336 11.1585 26.1296 10.5483C26.2251 9.9376 26.5126 9.28296 26.802 8.57876C27.0913 7.87458 27.3775 7.1045 27.4134 6.26195C27.4494 5.41941 27.1923 4.50835 26.4553 3.63612C26.307 3.4534 26.0636 3.36428 25.8238 3.40478ZM20.0759 14.5255C18.2826 14.5255 16.8148 15.9158 16.8148 17.6145C16.8148 18.676 17.394 19.6254 18.2621 20.1821C10.4378 20.9833 4.2615 26.9033 3.77 34.2562C3.75863 34.4268 3.82232 34.594 3.94607 34.7182C4.06936 34.8427 4.24179 34.9129 4.4224 34.9125H35.7289C35.9095 34.9129 36.0819 34.8427 36.2052 34.7182C36.329 34.594 36.3927 34.4268 36.3813 34.2562C35.8908 26.9028 29.714 20.9831 21.8892 20.1821C22.7573 19.6253 23.3364 18.676 23.3364 17.6145C23.3364 15.9158 21.8693 14.5255 20.0759 14.5255ZM20.0759 15.761C21.1642 15.761 22.0327 16.5832 22.0327 17.6145C22.0327 18.6454 21.1642 19.4677 20.0759 19.4677C18.9877 19.4677 18.1192 18.6454 18.1192 17.6145C18.1192 16.5833 18.9877 15.761 20.0759 15.761ZM20.0759 21.3211C27.8301 21.3211 34.1487 26.739 34.9756 33.6774H5.1774C6.00405 26.739 12.3225 21.3211 20.0771 21.3211H20.0759ZM1.69152 38.0021C1.33166 38.0344 1.06687 38.337 1.10054 38.6779C1.13421 39.0192 1.45358 39.27 1.81391 39.2381H38.3381C38.5128 39.2403 38.6807 39.176 38.8054 39.0601C38.9296 38.9442 38.9996 38.7856 38.9996 38.6201C38.9996 38.4546 38.9296 38.296 38.8054 38.1801C38.6807 38.0642 38.5128 38 38.3381 38.0021H1.81391C1.79343 38.0013 1.77342 38.0013 1.75294 38.0021C1.73247 38.0013 1.712 38.0013 1.69152 38.0021Z" fill="#6A3F2D"/>
</svg>
