<svg width="19" height="18" viewBox="0 0 19 18" fill="none" xmlns="http://www.w3.org/2000/svg">
<g clip-path="url(#clip0_663_65)">
<path d="M16.2579 11.2808C16.001 12.0843 17.0099 13.5379 16.5269 14.2003C16.0378 14.875 14.344 14.3598 13.6714 14.8443C13.011 15.3289 12.9744 17.1076 12.1794 17.3652C11.409 17.6167 10.3451 16.206 9.49517 16.206C8.64524 16.206 7.58131 17.6167 6.81087 17.3652C6.01599 17.1076 5.98543 15.3289 5.31892 14.8443C4.65242 14.3536 2.95871 14.8689 2.46956 14.2003C1.98648 13.5318 2.9954 12.0781 2.7386 11.2808C2.48788 10.5141 0.8125 9.93142 0.8125 9.07885C0.8125 8.22629 2.48788 7.6436 2.7386 6.87692C2.9954 6.07343 1.98648 4.6198 2.46956 3.95741C2.95259 3.2827 4.64634 3.79793 5.31892 3.30726C5.9793 2.82269 6.01599 1.044 6.81087 0.786371C7.58131 0.534915 8.64524 1.94561 9.49517 1.94561C10.3451 1.94561 11.4151 0.534915 12.1794 0.786371C12.9805 1.044 13.011 2.82269 13.6775 3.30726C14.344 3.79793 16.0378 3.2827 16.5269 3.95127C17.0099 4.6198 16.001 6.07343 16.2579 6.87081C16.5085 7.6436 18.1839 8.22629 18.1839 9.07885C18.1839 9.93142 16.5085 10.5141 16.2579 11.2808Z" stroke="#DE4D1F" stroke-miterlimit="10" stroke-linecap="round" stroke-linejoin="round"/>
<path d="M6 9L8.5 12.5L13 6" stroke="#DE4D1F" stroke-linecap="round"/>
</g>
<defs>
<clipPath id="clip0_663_65">
<rect width="19" height="18" fill="white"/>
</clipPath>
</defs>
</svg>
