<svg width="14" height="14" viewBox="0 0 14 14" fill="none" xmlns="http://www.w3.org/2000/svg">
<g clip-path="url(#clip0_721_2581)">
<path d="M10.9181 3.91975C11.382 3.91975 11.7581 3.54367 11.7581 3.07975C11.7581 2.61583 11.382 2.23975 10.9181 2.23975C10.4542 2.23975 10.0781 2.61583 10.0781 3.07975C10.0781 3.54367 10.4542 3.91975 10.9181 3.91975Z" stroke="#332F2D" stroke-width="0.7" stroke-miterlimit="10" stroke-linecap="round"/>
<path d="M13.156 1.53984C13.156 1.15316 12.8427 0.839844 12.456 0.839844C12.4123 0.839844 8.29073 0.840404 8.29073 0.840404C7.91833 0.840404 7.56189 0.820804 7.35525 1.02744L0.991128 7.39128C0.784207 7.59792 0.784207 7.93336 0.991128 8.14L5.85585 13.0047C6.06249 13.2114 6.39793 13.2114 6.60457 13.0047L12.9684 6.6406C13.175 6.43424 13.1554 6.0862 13.1554 5.7054C13.1554 5.7054 13.156 1.58352 13.156 1.53984Z" stroke="#332F2D" stroke-width="0.7" stroke-miterlimit="10" stroke-linecap="round"/>
</g>
<defs>
<clipPath id="clip0_721_2581">
<rect width="14" height="14" fill="white"/>
</clipPath>
</defs>
</svg>
