<svg width="19" height="17" viewBox="0 0 19 17" fill="none" xmlns="http://www.w3.org/2000/svg">
<g clip-path="url(#clip0_663_10)">
<path d="M18.0786 8.82309C18.2558 8.65226 18.3964 8.44876 18.4924 8.2244C18.5883 8.00005 18.6376 7.75933 18.6374 7.51622C18.6533 7.28062 18.6182 7.04439 18.5345 6.82289C18.4507 6.60139 18.3201 6.39958 18.1512 6.23059C17.6867 5.79497 16.8993 5.60372 15.7346 5.64976L12.7665 5.72414C12.6438 5.72414 12.5258 5.67855 12.4363 5.59663C12.3562 5.52198 12.3071 5.42109 12.2984 5.3133C12.2984 5.21414 12.5488 2.83414 12.4472 2.00539C12.371 1.37497 11.9465 0.588719 10.3826 0.369135C9.96527 0.31323 9.54209 0.418718 9.20334 0.663094C9.07519 0.756241 8.96744 0.87348 8.88643 1.0079C8.80541 1.14233 8.75279 1.29122 8.73164 1.4458C8.68084 1.83893 8.65544 2.32059 8.62641 2.83059C8.55384 4.10205 8.45588 5.84101 7.90072 6.28726C7.34556 6.73351 6.37313 6.99559 4.79838 7.13018C4.7984 7.00635 4.77313 6.88376 4.72404 6.76958C4.67495 6.65541 4.60303 6.55192 4.51249 6.4652C4.42194 6.37847 4.31459 6.31023 4.19671 6.26447C4.07883 6.21872 3.95278 6.19636 3.82594 6.19872H1.38761C1.26168 6.19825 1.1369 6.22212 1.02047 6.26894C0.904029 6.31576 0.798238 6.38461 0.709192 6.47153C0.620146 6.55845 0.549604 6.66171 0.501634 6.77536C0.453664 6.88901 0.429215 7.0108 0.429694 7.13372V15.8887C0.429215 16.0116 0.453664 16.1334 0.501634 16.2471C0.549604 16.3607 0.620146 16.464 0.709192 16.5509C0.798238 16.6378 0.904029 16.7067 1.02047 16.7535C1.1369 16.8003 1.26168 16.8242 1.38761 16.8237H3.82594C4.03922 16.8241 4.24642 16.7544 4.41424 16.6259C4.58205 16.4975 4.70074 16.3176 4.7512 16.1154C4.83578 16.1208 4.92063 16.1208 5.0052 16.1154H14.2723C14.969 16.1169 15.6435 15.8766 16.1752 15.4373C16.707 14.9981 17.0614 14.3885 17.1751 13.7177L17.2731 13.1439C17.5825 12.8754 17.7931 12.5151 17.8724 12.1184C17.9517 11.7217 17.8954 11.3105 17.7121 10.9481C17.993 10.6756 18.1791 10.3239 18.2442 9.94265C18.3093 9.56137 18.2501 9.16976 18.075 8.82309H18.0786ZM4.05817 15.8887C4.05817 15.9498 4.03332 16.0083 3.98909 16.0515C3.94486 16.0947 3.88487 16.1189 3.82232 16.1189H1.38761C1.32569 16.118 1.26663 16.0933 1.22318 16.0503C1.17973 16.0072 1.15538 15.9492 1.15539 15.8887V7.13372C1.15632 7.07389 1.18109 7.01676 1.22444 6.97445C1.26779 6.93214 1.32631 6.90797 1.38761 6.90705H3.82594C3.8885 6.90705 3.94849 6.93131 3.99272 6.97448C4.03695 7.01765 4.0618 7.0762 4.0618 7.13726L4.05817 15.8887ZM17.4509 8.41934C17.3797 8.47366 17.3318 8.55197 17.3166 8.63893L17.2985 8.74872C17.2828 8.83738 17.3022 8.92855 17.3529 9.00372C17.5186 9.2459 17.5831 9.54079 17.5332 9.82791C17.4832 10.115 17.3227 10.3726 17.0844 10.5479C17.011 10.6025 16.9617 10.6822 16.9465 10.771V10.8737C16.9319 10.9628 16.9526 11.054 17.0046 11.1287C17.1714 11.3712 17.2365 11.6669 17.1865 11.9548C17.1366 12.2428 16.9753 12.5011 16.736 12.6764C16.6627 12.731 16.6134 12.8108 16.5982 12.8996L16.4784 13.6079C16.3927 14.1115 16.127 14.5692 15.7285 14.8998C15.33 15.2305 14.8244 15.4127 14.3013 15.4141H5.00883C4.93199 15.4131 4.85544 15.4047 4.78023 15.3893V7.84205C6.55093 7.71101 7.62858 7.40643 8.33976 6.83622C9.13803 6.19872 9.24688 4.42789 9.33397 2.86955C9.36299 2.37372 9.38839 1.90622 9.43556 1.53434C9.4443 1.47287 9.46588 1.4138 9.49896 1.3608C9.53204 1.3078 9.57592 1.26199 9.62787 1.22622C9.81251 1.09666 10.0414 1.04206 10.2665 1.07393C11.6054 1.25455 11.6852 1.88497 11.7179 2.09393C11.7388 3.15854 11.6879 4.22334 11.5655 5.28143C11.5659 5.43425 11.5975 5.58547 11.6583 5.7263C11.7191 5.86714 11.8079 5.9948 11.9196 6.10187C12.0313 6.20894 12.1637 6.2933 12.3091 6.35005C12.4545 6.4068 12.6099 6.43481 12.7665 6.43247L15.7564 6.35809C16.707 6.32268 17.3384 6.45018 17.6468 6.74059C17.7436 6.84408 17.8169 6.96635 17.8619 7.0994C17.9069 7.23245 17.9226 7.37328 17.908 7.51268C17.9083 7.68793 17.8672 7.86089 17.788 8.01814C17.7087 8.17538 17.5933 8.31267 17.4509 8.41934Z" fill="#A0B524" stroke="#A0B524" stroke-width="0.2"/>
</g>
<defs>
<clipPath id="clip0_663_10">
<rect width="19" height="17" fill="white"/>
</clipPath>
</defs>
</svg>
