<svg width="22" height="22" viewBox="0 0 22 22" fill="none" xmlns="http://www.w3.org/2000/svg">
<path d="M9.37363 16.7121C5.32759 16.7121 2 13.4223 2 9.33847C2 5.29243 5.28977 1.96484 9.37363 1.96484C13.4575 1.96484 16.7473 5.25462 16.7473 9.33847C16.7094 13.4223 13.4197 16.7121 9.37363 16.7121ZM9.37363 3.06143C5.89479 3.06143 3.05878 5.89744 3.05878 9.37628C3.05878 12.8551 5.89479 15.6911 9.37363 15.6911C12.8525 15.6911 15.6885 12.8551 15.6885 9.37628C15.6507 5.89744 12.8147 3.06143 9.37363 3.06143Z" fill="white"/>
<path d="M19.2051 20.0031L14.0625 14.8983L14.8944 14.0664L19.9992 19.209L19.2051 20.0031Z" fill="white"/>
</svg>
