<svg width="19" height="19" viewBox="0 0 19 19" fill="none" xmlns="http://www.w3.org/2000/svg">
<path d="M14.7163 9.45508H4.28375C2.62549 9.45508 1.28125 10.8007 1.28125 12.4586V14.8719C1.28125 16.5299 2.62549 17.8751 4.28375 17.8751H14.7163C16.3742 17.8751 17.7188 16.5299 17.7188 14.8719V12.4586C17.7188 10.8007 16.3742 9.45508 14.7163 9.45508ZM6.47556 11.3339H5.50567V16.1532H4.56862V11.3339H3.5994V10.5141H6.47556V11.3339ZM9.21532 16.1532H8.38417V15.6974C8.22967 15.8659 8.07048 15.9946 7.90425 16.0814C7.73803 16.1719 7.57749 16.2141 7.42132 16.2141C7.22828 16.2141 7.08484 16.1528 6.98665 16.0281C6.89013 15.9038 6.84086 15.7195 6.84086 15.4705V11.9927H7.672V15.1843C7.672 15.2828 7.69044 15.3535 7.72362 15.3974C7.75947 15.4427 7.81645 15.4634 7.89454 15.4634C7.95486 15.4634 8.03261 15.4346 8.12612 15.3763C8.22029 15.3173 8.30609 15.2436 8.38417 15.1524V11.9924H9.21532V16.1532ZM12.2329 15.2942C12.2329 15.5881 12.1676 15.814 12.0372 15.9715C11.9075 16.129 11.7178 16.2064 11.4721 16.2064C11.3086 16.2064 11.1631 16.1769 11.0368 16.116C10.9098 16.0556 10.7901 15.9628 10.6812 15.8341V16.1528H9.84001V10.5141H10.6812V12.3302C10.7938 12.2046 10.9128 12.107 11.0371 12.0417C11.1641 11.975 11.2918 11.9428 11.4212 11.9428C11.6843 11.9428 11.8847 12.0306 12.0234 12.2079C12.1629 12.3852 12.2322 12.6449 12.2322 12.9854V15.2942H12.2329ZM15.1161 14.1732H13.5255V14.957C13.5255 15.1756 13.5523 15.3277 13.6066 15.4125C13.6623 15.4976 13.7558 15.5392 13.8888 15.5392C14.0269 15.5392 14.1224 15.5033 14.178 15.4316C14.2317 15.3592 14.2605 15.2017 14.2605 14.957V14.7677H15.1161V14.9812C15.1161 15.4075 15.0125 15.7289 14.8024 15.9457C14.5956 16.1605 14.2839 16.2671 13.8697 16.2671C13.4967 16.2671 13.2028 16.1535 12.9893 15.9249C12.7765 15.6977 12.6679 15.3823 12.6679 14.9815V13.1128C12.6679 12.7532 12.7865 12.4572 13.0222 12.2304C13.2571 12.0035 13.5597 11.8902 13.9321 11.8902C14.3131 11.8902 14.6057 11.9951 14.8098 12.2056C15.0139 12.4164 15.1161 12.718 15.1161 13.1124V14.1732Z" fill="#B7B0AE"/>
<path d="M13.8987 12.6172C13.766 12.6172 13.6715 12.6544 13.6138 12.7321C13.5548 12.8052 13.5273 12.9302 13.5273 13.1048V13.5254H14.2623V13.1048C14.2623 12.9302 14.2328 12.8049 14.1745 12.7321C14.1185 12.6547 14.025 12.6172 13.8987 12.6172Z" fill="#B7B0AE"/>
<path d="M11.0272 12.6035C10.9682 12.6035 10.9086 12.6166 10.8513 12.6437C10.793 12.6702 10.736 12.7141 10.6797 12.7711V15.3627C10.7464 15.4297 10.8124 15.4813 10.8767 15.5108C10.9408 15.5393 11.0071 15.5554 11.0778 15.5554C11.18 15.5554 11.2544 15.5259 11.3024 15.4663C11.3496 15.4073 11.3738 15.3131 11.3738 15.1801V13.0315C11.3738 12.8901 11.3456 12.7842 11.2866 12.7114C11.2256 12.6397 11.1392 12.6035 11.0272 12.6035Z" fill="#B7B0AE"/>
<path d="M5.64962 8.00967H6.7033V5.43246L7.93024 1.79688H6.85914L6.20696 4.28025H6.1406L5.45591 1.79688H4.39453L5.64962 5.54841V8.00967Z" fill="#B7B0AE"/>
<path d="M9.35976 8.12481C9.78539 8.12481 10.1192 8.01321 10.3625 7.79001C10.6041 7.5658 10.7251 7.25982 10.7251 6.86771V4.50029C10.7251 4.15141 10.6014 3.8642 10.3551 3.64267C10.1071 3.42181 9.78941 3.31055 9.40199 3.31055C8.97636 3.31055 8.63754 3.41578 8.38551 3.62591C8.13416 3.83604 8.00781 4.1179 8.00781 4.47415V6.84961C8.00781 7.23937 8.13081 7.5477 8.37646 7.77895C8.62212 8.00919 8.95056 8.12481 9.35976 8.12481ZM8.97167 4.43929C8.97167 4.33976 9.00753 4.25932 9.07757 4.19632C9.1503 4.13465 9.24246 4.10482 9.35708 4.10482C9.48075 4.10482 9.58095 4.13465 9.65736 4.19632C9.73344 4.25932 9.77131 4.33976 9.77131 4.43929V6.93641C9.77131 7.05873 9.73411 7.15592 9.6587 7.22597C9.58397 7.29635 9.48343 7.33087 9.35708 7.33087C9.23341 7.33087 9.1379 7.29735 9.07087 7.22697C9.00485 7.15827 8.97134 7.06175 8.97134 6.93607L8.97167 4.43929Z" fill="#B7B0AE"/>
<path d="M12.1376 8.07549C12.3135 8.07549 12.4941 8.02522 12.6801 7.9287C12.8682 7.83084 13.0481 7.68774 13.2194 7.50106V8.0088H14.1554V3.42578H13.2194V6.90452C13.1323 7.00405 13.0354 7.08583 12.9315 7.15084C12.8256 7.21519 12.7385 7.24736 12.6698 7.24736C12.582 7.24736 12.5173 7.22323 12.4794 7.1733C12.4409 7.12537 12.4191 7.04695 12.4191 6.93937V3.42578H11.4844V7.25608C11.4844 7.52922 11.5393 7.73331 11.6479 7.86871C11.7585 8.00612 11.9201 8.07549 12.1376 8.07549Z" fill="#B7B0AE"/>
</svg>
