<svg width="19" height="19" viewBox="0 0 19 19" fill="none" xmlns="http://www.w3.org/2000/svg">
<path d="M9.4533 5.59766C7.10763 5.59766 5.16406 7.50771 5.16406 9.8869C5.16406 12.2661 7.07412 14.1761 9.4533 14.1761C11.8325 14.1761 13.7425 12.2326 13.7425 9.8869C13.7425 7.54122 11.799 5.59766 9.4533 5.59766ZM9.4533 12.6347C7.94537 12.6347 6.70551 11.3948 6.70551 9.8869C6.70551 8.37896 7.94537 7.1391 9.4533 7.1391C10.9612 7.1391 12.2011 8.37896 12.2011 9.8869C12.2011 11.3948 10.9612 12.6347 9.4533 12.6347Z" fill="#B7B0AE"/>
<path d="M13.9093 6.467C14.446 6.467 14.8811 6.03192 14.8811 5.49522C14.8811 4.95852 14.446 4.52344 13.9093 4.52344C13.3726 4.52344 12.9375 4.95852 12.9375 5.49522C12.9375 6.03192 13.3726 6.467 13.9093 6.467Z" fill="#B7B0AE"/>
<path d="M16.421 2.98327C15.5498 2.07851 14.3099 1.60938 12.9025 1.60938H5.99953C3.08419 1.60938 1.14062 3.55294 1.14062 6.46828V13.3378C1.14062 14.7787 1.60976 16.0185 2.54803 16.9233C3.45279 17.7946 4.65914 18.2302 6.03304 18.2302H12.869C14.3099 18.2302 15.5163 17.761 16.3875 16.9233C17.2923 16.0521 17.7614 14.8122 17.7614 13.3713V6.46828C17.7614 5.06087 17.2923 3.85452 16.421 2.98327ZM16.287 13.3713C16.287 14.4101 15.9184 15.2478 15.3152 15.8175C14.7121 16.3872 13.8743 16.6887 12.869 16.6887H6.03304C5.02775 16.6887 4.19001 16.3872 3.58683 15.8175C2.98366 15.2143 2.68207 14.3766 2.68207 13.3378V6.46828C2.68207 5.46299 2.98366 4.62525 3.58683 4.02207C4.1565 3.45241 5.02775 3.15082 6.03304 3.15082H12.936C13.9413 3.15082 14.7791 3.45241 15.3822 4.05558C15.9519 4.65876 16.287 5.4965 16.287 6.46828V13.3713Z" fill="#B7B0AE"/>
</svg>
