<svg width="18" height="24" viewBox="0 0 18 24" fill="none" xmlns="http://www.w3.org/2000/svg">
<path d="M9.27942 1.56223C9.14172 1.45126 8.9462 1.45126 8.8085 1.56223C8.51003 1.8032 1.5 7.52266 1.5 12.906C1.5 16.9392 4.68384 20.2336 8.66896 20.4309V22.3289C8.66896 22.536 8.8367 22.7039 9.04396 22.7039C9.25122 22.7039 9.41896 22.536 9.41896 22.3289V20.4309C13.4041 20.2336 16.5879 16.9392 16.5879 12.906C16.5879 7.52266 9.57788 1.8032 9.27942 1.56223ZM9.41896 19.6809V17.0827C10.742 16.9693 11.9489 16.2685 12.6973 15.1477C12.8123 14.9756 12.7658 14.7427 12.5936 14.6277C12.4204 14.5118 12.1883 14.5591 12.0732 14.7314C11.4644 15.6432 10.4909 16.2217 9.41896 16.3327V12.0897C10.3262 11.981 11.1465 11.4827 11.6631 10.7091C11.7781 10.5368 11.7316 10.304 11.5595 10.1891C11.3862 10.0732 11.1541 10.1206 11.0391 10.2927C10.6628 10.8567 10.0739 11.226 9.41896 11.3299V7.54996C9.41896 7.34285 9.25122 7.17496 9.04396 7.17496C8.8367 7.17496 8.66896 7.34285 8.66896 7.54996V11.3299C8.01406 11.226 7.42516 10.8567 7.04884 10.2927C6.93349 10.1206 6.70096 10.0732 6.52846 10.1891C6.35633 10.304 6.30983 10.5368 6.4248 10.7091C6.94144 11.4827 7.76176 11.981 8.66896 12.0897V16.3327C7.59698 16.2217 6.62351 15.6432 6.01466 14.7314C5.89931 14.5591 5.66711 14.5124 5.49428 14.6277C5.32215 14.7427 5.27565 14.9756 5.39062 15.1477C6.13905 16.2685 7.34589 16.9693 8.66896 17.0827V19.6809C5.09741 19.4845 2.25 16.5256 2.25 12.906C2.25 8.41074 7.82007 3.392 9.04396 2.34373C10.2686 3.39181 15.8379 8.40744 15.8379 12.906C15.8379 16.5256 12.9905 19.4845 9.41896 19.6809Z" fill="#64B524" stroke="#64B524" stroke-width="0.3"/>
</svg>
