<svg width="19" height="19" viewBox="0 0 19 19" fill="none" xmlns="http://www.w3.org/2000/svg">
<path d="M14.7163 9.45312H4.28375C2.62549 9.45312 1.28125 10.7987 1.28125 12.4566V14.87C1.28125 16.5279 2.62549 17.8731 4.28375 17.8731H14.7163C16.3742 17.8731 17.7188 16.5279 17.7188 14.87V12.4566C17.7188 10.7987 16.3742 9.45312 14.7163 9.45312ZM6.47556 11.3319H5.50567V16.1512H4.56862V11.3319H3.5994V10.5122H6.47556V11.3319ZM9.21532 16.1512H8.38417V15.6954C8.22967 15.864 8.07048 15.9927 7.90425 16.0795C7.73803 16.17 7.57749 16.2122 7.42132 16.2122C7.22828 16.2122 7.08484 16.1509 6.98665 16.0262C6.89013 15.9019 6.84086 15.7175 6.84086 15.4685V11.9908H7.672V15.1823C7.672 15.2808 7.69044 15.3516 7.72362 15.3955C7.75947 15.4407 7.81645 15.4615 7.89454 15.4615C7.95486 15.4615 8.03261 15.4327 8.12612 15.3744C8.22029 15.3154 8.30609 15.2416 8.38417 15.1505V11.9905H9.21532V16.1512ZM12.2329 15.2922C12.2329 15.5862 12.1676 15.812 12.0372 15.9696C11.9075 16.1271 11.7178 16.2045 11.4721 16.2045C11.3086 16.2045 11.1631 16.175 11.0368 16.114C10.9098 16.0537 10.7901 15.9608 10.6812 15.8321V16.1509H9.84001V10.5122H10.6812V12.3283C10.7938 12.2026 10.9128 12.1051 11.0371 12.0397C11.1641 11.973 11.2918 11.9409 11.4212 11.9409C11.6843 11.9409 11.8847 12.0287 12.0234 12.206C12.1629 12.3832 12.2322 12.643 12.2322 12.9835V15.2922H12.2329ZM15.1161 14.1712H13.5255V14.9551C13.5255 15.1736 13.5523 15.3258 13.6066 15.4105C13.6623 15.4957 13.7558 15.5372 13.8888 15.5372C14.0269 15.5372 14.1224 15.5014 14.178 15.4296C14.2317 15.3573 14.2605 15.1997 14.2605 14.9551V14.7657H15.1161V14.9792C15.1161 15.4055 15.0125 15.7269 14.8024 15.9438C14.5956 16.1586 14.2839 16.2651 13.8697 16.2651C13.4967 16.2651 13.2028 16.1515 12.9893 15.923C12.7765 15.6957 12.6679 15.3804 12.6679 14.9796V13.1108C12.6679 12.7512 12.7865 12.4553 13.0222 12.2284C13.2571 12.0015 13.5597 11.8882 13.9321 11.8882C14.3131 11.8882 14.6057 11.9931 14.8098 12.2036C15.0139 12.4144 15.1161 12.716 15.1161 13.1105V14.1712Z" fill="#B7B0AE"/>
<path d="M13.8987 12.6172C13.766 12.6172 13.6715 12.6544 13.6138 12.7321C13.5548 12.8052 13.5273 12.9302 13.5273 13.1048V13.5254H14.2623V13.1048C14.2623 12.9302 14.2328 12.8049 14.1745 12.7321C14.1185 12.6547 14.025 12.6172 13.8987 12.6172Z" fill="#B7B0AE"/>
<path d="M11.0272 12.6016C10.9682 12.6016 10.9086 12.6146 10.8513 12.6418C10.793 12.6683 10.736 12.7122 10.6797 12.7691V15.3608C10.7464 15.4278 10.8124 15.4794 10.8767 15.5089C10.9408 15.5374 11.0071 15.5535 11.0778 15.5535C11.18 15.5535 11.2544 15.524 11.3024 15.4643C11.3496 15.4053 11.3738 15.3112 11.3738 15.1781V13.0295C11.3738 12.8881 11.3456 12.7822 11.2866 12.7095C11.2256 12.6378 11.1392 12.6016 11.0272 12.6016Z" fill="#B7B0AE"/>
<path d="M5.64962 8.00967H6.7033V5.43246L7.93024 1.79688H6.85914L6.20696 4.28025H6.1406L5.45591 1.79688H4.39453L5.64962 5.54841V8.00967Z" fill="#B7B0AE"/>
<path d="M9.35976 8.12676C9.78539 8.12676 10.1192 8.01516 10.3625 7.79196C10.6041 7.56775 10.7251 7.26177 10.7251 6.86966V4.50224C10.7251 4.15336 10.6014 3.86615 10.3551 3.64462C10.1071 3.42377 9.78941 3.3125 9.40199 3.3125C8.97636 3.3125 8.63754 3.41773 8.38551 3.62787C8.13416 3.838 8.00781 4.11985 8.00781 4.4761V6.85156C8.00781 7.24133 8.13081 7.54965 8.37646 7.7809C8.62212 8.01114 8.95056 8.12676 9.35976 8.12676ZM8.97167 4.44125C8.97167 4.34171 9.00753 4.26128 9.07757 4.19827C9.1503 4.13661 9.24246 4.10678 9.35708 4.10678C9.48075 4.10678 9.58095 4.13661 9.65736 4.19827C9.73344 4.26128 9.77131 4.34171 9.77131 4.44125V6.93836C9.77131 7.06069 9.73411 7.15788 9.6587 7.22792C9.58397 7.2983 9.48343 7.33282 9.35708 7.33282C9.23341 7.33282 9.1379 7.29931 9.07087 7.22893C9.00485 7.16022 8.97134 7.0637 8.97134 6.93803L8.97167 4.44125Z" fill="#B7B0AE"/>
<path d="M12.1376 8.07549C12.3135 8.07549 12.4941 8.02522 12.6801 7.9287C12.8682 7.83084 13.0481 7.68774 13.2194 7.50106V8.0088H14.1554V3.42578H13.2194V6.90452C13.1323 7.00405 13.0354 7.08583 12.9315 7.15084C12.8256 7.21519 12.7385 7.24736 12.6698 7.24736C12.582 7.24736 12.5173 7.22323 12.4794 7.1733C12.4409 7.12537 12.4191 7.04695 12.4191 6.93937V3.42578H11.4844V7.25608C11.4844 7.52922 11.5393 7.73331 11.6479 7.86871C11.7585 8.00612 11.9201 8.07549 12.1376 8.07549Z" fill="#B7B0AE"/>
</svg>
